<?xml version="1.0" encoding="UTF-8" standalone="no"?>
<svg
   xmlns:dc="http://purl.org/dc/elements/1.1/"
   xmlns:cc="http://creativecommons.org/ns#"
   xmlns:rdf="http://www.w3.org/1999/02/22-rdf-syntax-ns#"
   xmlns:svg="http://www.w3.org/2000/svg"
   xmlns="http://www.w3.org/2000/svg"
   xmlns:sodipodi="http://sodipodi.sourceforge.net/DTD/sodipodi-0.dtd"
   xmlns:inkscape="http://www.inkscape.org/namespaces/inkscape"
   viewBox="0 0 612.00002 700"
   class="header__logo"
   id="svg2"
   version="1.1"
   inkscape:version="0.91 r13725"
   sodipodi:docname="Logo_Atlhetico_Bilbao_1995.svg"
   width="612"
   height="700">
  <metadata
     id="metadata14">
    <rdf:RDF>
      <cc:Work
         rdf:about="">
        <dc:format>image/svg+xml</dc:format>
        <dc:type
           rdf:resource="http://purl.org/dc/dcmitype/StillImage" />
        <dc:title />
      </cc:Work>
    </rdf:RDF>
  </metadata>
  <defs
     id="defs12" />
  <sodipodi:namedview
     pagecolor="#ffffff"
     bordercolor="#666666"
     borderopacity="1"
     objecttolerance="10"
     gridtolerance="10"
     guidetolerance="10"
     inkscape:pageopacity="0"
     inkscape:pageshadow="2"
     inkscape:window-width="1440"
     inkscape:window-height="788"
     id="namedview10"
     showgrid="false"
     inkscape:zoom="1.4360573"
     inkscape:cx="122.67596"
     inkscape:cy="505.15627"
     inkscape:window-x="0"
     inkscape:window-y="1"
     inkscape:window-maximized="1"
     inkscape:current-layer="svg2" />
  <g
     id="g4443">
    <g
       transform="translate(0.55175381,0)"
       id="g4439">
      <path
         inkscape:connector-curvature="0"
         d="m 611.78607,53.41312 c -0.0173,0.61653 -0.0288,1.96482 -0.0461,3.96421 -0.70257,81.15683 -8.90894,159.89365 -23.74375,227.70585 -26.46193,120.93146 -79.88682,218.76332 -173.23207,317.22324 -45.09183,47.559 -103.68816,93.88494 -104.27557,94.3459 L 306.27885,700 l -4.27306,-3.3304 c -0.65073,-0.52433 -59.72505,-48.03147 -104.7996,-95.602 C 103.82638,502.62497 50.401488,404.79887 23.985626,283.87317 9.1508185,216.03217 0.93869316,137.28382 0.22459529,56.15004 0.20731869,54.15641 0.19580099,52.81964 0.17276559,52.18583 0,47.23633 0,18.00028 0,5.5141699 L 0,0.02304994 611.99339,-5.0061035e-5 611.99939,5.4853099 c 0,1.69977 0.0231,41.7221601 -0.21307,47.9277601 z"
         id="path4144" />
      <path
         inkscape:connector-curvature="0"
         d="m 601.02853,10.97648 -590.057914,0.0231 c 0,13.5175 0.01728,36.68623 0.161248,40.80601 0.02304,0.67415 0.04031,2.11463 0.05759,4.24655 0.708338,80.39049 8.83984,158.36097 23.5134,225.47597 25.966671,118.85717 78.539246,215.08145 170.462066,311.98565 39.25811,41.4283 89.32559,82.86812 101.09668,92.47327 11.75382,-9.44381 61.36059,-49.90411 100.54959,-91.23446 91.88826,-96.92148 144.4666,-193.15153 170.47934,-312.01445 14.6678,-67.08043 22.79354,-145.04515 23.4846,-225.45293 0.0173,-2.14344 0.0288,-3.58968 0.0576,-4.26383 0.16701,-4.67869 0.19005,-30.56706 0.19581,-42.04483 z"
         id="path6"
         style="fill:#ffffff" />
    </g>
    <g
       transform="translate(0.6500855,0)"
       id="g4414">
      <g
         id="g4244">
        <path
           inkscape:connector-curvature="0"
           id="path4202"
           d="m 187.66992,480.07227 0,64.0625 16.92578,19.00195 c 8.18909,9.18452 10.35446,9.39876 12.64649,8.3789 2.1135,-0.92766 3.44922,-4.24815 3.44922,-9.33593 0,-6.33237 -1.29052,-14.02362 -6.18555,-22.46485 1.67008,0.53009 4.88853,1.57897 4.89453,-7.61132 0,-6.59741 -2.51064,-19.23866 -12.29492,-30.23243 l -19.43555,-21.79882 z m 8.03906,20.05273 9.56446,10.75586 c 3.77204,4.24655 6.11718,8.46621 6.11718,13.74414 10e-6,5.08203 -2.61969,4.20511 -5.89648,0.51172 l -9.78516,-10.99414 0,-14.01758 z m 0,24.81641 10.61914,11.9375 c 3.01189,3.36496 6.02344,8.88621 6.02344,14.51562 0,6.51674 -2.35983,6.73562 -6.41406,2.18945 l -10.22852,-11.50195 0,-17.14062 z" />
        <path
           inkscape:connector-curvature="0"
           id="path4196"
           d="m 232.68073,595.19619 8.35033,9.36891 0,-64.02084 -8.35033,-9.36891 0,64.02084 z" />
        <path
           inkscape:connector-curvature="0"
           id="path4194"
           d="m 271.96186,570.09145 -9.48482,-8.74662 0,63.98627 31.54124,29.52415 0,-12.52644 -22.05065,-20.79482 0,-51.44254 z" />
        <path
           inkscape:connector-curvature="0"
           id="path4192"
           d="m 338.6875,572.98047 c -2.08213,-0.11314 -5.02368,1.27521 -9.10742,5.11914 l -21.54492,20.33984 0,64.08985 18.76172,-17.72852 c 9.10474,-8.55071 11.51863,-13.0617 14.04101,-19.01953 2.36113,-5.50841 3.83594,-11.74394 3.83594,-16.81445 0,-6.34965 -1.4291,-11.25233 -6.87695,-9.08008 1.87738,-3.07688 5.4414,-9.04605 5.4414,-18.23633 0,-4.11978 -1.08056,-8.48136 -4.55078,-8.66992 z m -6.15625,14.87891 c 1.17049,-0.0476 1.81641,1.05912 1.81641,3.68945 0,5.08779 -2.89195,9.88239 -6.54883,13.32226 l -10.88281,10.26172 0,-14.02539 10.65429,-10.01367 c 2.09622,-1.98499 3.79045,-3.18684 4.96094,-3.23437 z m 0.78516,24.38476 c 1.24751,0.0576 2.08007,1.21162 2.08007,4.02344 0,6.51675 -2.58632,11.82376 -7.08398,16.07031 l -11.39648,10.7168 0,-17.13672 11.82812,-11.11914 c 1.66143,-1.57301 3.32475,-2.61231 4.57227,-2.55469 z" />
        <path
           inkscape:connector-curvature="0"
           id="path4186"
           d="m 379.98633,530.2832 -10.69336,10.08789 -15.80859,79.00196 9.76171,-9.20703 3.0918,-16.13868 16.37305,-15.4375 2.83789,10.53907 10.07812,-9.48438 -15.64062,-49.36133 z m -5.37305,19.52539 5.50586,20.17969 -11.31055,10.6582 5.80469,-30.83789 z" />
        <path
           inkscape:connector-curvature="0"
           id="path4182"
           d="m 421.45312,477.24219 c -5.06275,7.2e-4 -10.06391,3.9999 -12.71874,6.65039 -5.29814,5.30674 -18.58844,22.50028 -12.80079,49.19531 5.79341,26.69504 20.46582,15.98447 25.78125,10.67773 5.30966,-5.28946 18.58504,-22.48845 12.82618,-49.17773 -2.89958,-13.34751 -8.02514,-17.34642 -13.0879,-17.3457 z m -4.10742,13.33789 c 3.3596,-0.0751 6.7409,2.91797 8.77539,12.36719 3.46107,15.92598 -2.07305,26.25208 -6.59375,30.76367 -4.51493,4.52312 -11.76684,6.9377 -15.19336,-8.98828 -3.47258,-15.92023 2.04602,-26.2348 6.58399,-30.76368 1.84122,-1.83985 4.12906,-3.32753 6.42773,-3.3789 z" />
      </g>
      <g
         id="g4410">
        <path
           inkscape:connector-curvature="0"
           id="path4178"
           d="m 564.65561,184.87163 -16.88496,20.76601 -16.89647,-20.76601 -13.70032,0 22.82234,29.54143 -22.82234,30.00239 13.70032,0 16.89647,-20.78329 16.88496,20.78329 13.71183,0 -22.81658,-30.00239 22.81658,-29.54143 -13.71183,0 z" />
        <path
           inkscape:connector-curvature="0"
           id="path4176"
           d="m 80.911895,184.87163 -16.88496,20.76601 -16.896476,-20.76601 -13.694554,0 22.822337,29.54143 -22.822337,30.00239 13.700313,0 16.896476,-20.78329 16.88496,20.78329 13.71183,0 -22.816578,-30.00239 22.816578,-29.54143 -13.717589,0 z" />
      </g>
      <g
         id="g4255">
        <path
           inkscape:connector-curvature="0"
           id="path4174"
           d="m 63.722656,32.705078 -17.599609,39.347656 6.103515,0 5.771485,-12.953125 17.378906,0 5.570313,12.953125 6.322265,0 -17.316406,-39.347656 -6.230469,0 z m 3,7.023438 6.121094,13.71289 -12.253906,0 6.132812,-13.71289 z" />
        <path
           inkscape:connector-curvature="0"
           id="path4170"
           d="m 105.1797,72.05298 5.60912,0 0,-33.68427 13.66001,0 0,-5.66398 -32.929127,0 0,5.66398 13.659997,0 0,33.68427 z" />
        <path
           inkscape:connector-curvature="0"
           id="path4168"
           d="m 141.25316,54.27165 22.84538,0 0,17.78133 5.60912,0 0,-39.34825 -5.60912,0 0,15.90294 -22.84538,0 0,-15.90294 -5.60336,0 0,39.34825 5.60336,0 0,-17.78133 z" />
        <path
           inkscape:connector-curvature="0"
           id="path4166"
           d="m 215.04135,66.40628 -23.64009,0 0,-33.70155 -5.5976,0 0,39.34825 29.23769,0 0,-5.6467 z" />
        <path
           inkscape:connector-curvature="0"
           id="path4164"
           d="m 255.8198,66.40628 -27.23362,0 0,-12.01939 13.23384,0 0,-5.68127 -13.23384,0 0,-10.33691 26.26038,0 0,-5.66398 -31.88102,0 0,39.34825 32.85426,0 0,-5.6467 z" />
        <path
           inkscape:connector-curvature="0"
           id="path4162"
           d="m 277.27153,72.05298 5.61488,0 0,-33.68427 13.65425,0 0,-5.66398 -32.91762,0 0,5.66398 13.64849,0 0,33.68427 z" />
        <path
           inkscape:connector-curvature="0"
           id="path4160"
           d="m 312.6712,32.70473 -5.60912,0 0,39.34825 5.61488,0 0,-39.34825 z" />
        <path
           inkscape:connector-curvature="0"
           id="path4158"
           d="m 344.8632,72.9115 c 11.14914,0 15.76774,-3.8432 19.45341,-7.8708 l -3.72598,-4.10825 c -1.71614,2.03972 -6.05832,6.30931 -14.37411,6.30931 -10.65387,0 -16.263,-7.51356 -16.263,-14.54312 0,-9.81257 7.59017,-15.17117 14.85209,-15.17117 8.00481,0 12.94591,4.50583 14.70235,5.98089 l 4.1982,-3.61273 c -1.86586,-1.84382 -8.29274,-8.04366 -18.95238,-8.04366 -11.52923,0 -20.40362,9.24214 -20.40362,20.84091 0,12.08278 9.97433,20.21862 20.51304,20.21862 z" />
        <path
           inkscape:connector-curvature="0"
           id="path4156"
           d="m 412.13236,72.9115 c 11.16642,0 15.77927,-3.8432 19.47069,-7.8708 l -3.7375,-4.10825 c -1.72189,2.03972 -6.07559,6.30931 -14.37409,6.30931 -10.64813,0 -16.263,-7.51356 -16.263,-14.54312 0,-9.81257 7.5844,-15.17117 14.84632,-15.17117 8.0048,0 12.93439,4.50583 14.70235,5.98089 l 4.22125,-3.61273 c -1.87739,-1.84382 -8.3158,-8.04366 -18.96967,-8.04366 -11.51771,0 -20.40938,9.24214 -20.40938,20.84091 -0.006,12.08278 9.99161,20.21862 20.51303,20.21862 z" />
        <path
           inkscape:connector-curvature="0"
           id="path4154"
           d="m 472.65216,66.40628 -23.6113,0 0,-33.70155 -5.6264,0 0,39.34825 29.23194,0 0,-5.6467 z" />
        <path
           inkscape:connector-curvature="0"
           id="path4152"
           d="m 498.78584,72.9115 c 14.26468,0 17.05772,-8.24532 17.05772,-15.70703 l 0,-24.49974 -5.59185,0 0,24.50551 c 0,5.76769 -2.38992,10.03152 -11.46587,10.03152 -9.09899,0 -11.48315,-4.26383 -11.48315,-10.03152 l 0,-24.50551 -5.60337,0 0,24.50551 c 0,7.4617 2.79304,15.70126 17.08652,15.70126 z" />
        <path
           inkscape:connector-curvature="0"
           id="path4150"
           d="m 530.77148,32.705078 0,39.347656 22.21094,0 c 7.52683,0 13.26772,-3.941031 13.26172,-11.425781 0,-4.93797 -3.1376,-8.290389 -5.31445,-9.292969 1.3994,-1.41167 3.46679,-3.631277 3.46679,-7.929687 0,-7.44441 -5.63217,-10.699219 -11.41406,-10.699219 l -22.21094,0 z m 5.5918,5.664063 16.61914,0 c 3.95057,0 5.79297,1.889146 5.79297,5.035156 0,3.50326 -1.96334,5.767578 -5.79297,5.767578 l -16.61914,0 0,-10.802734 z m 0,16.490234 16.61914,0 c 5.87403,0 7.67578,2.252899 7.67578,5.773437 0,3.762552 -2.4525,5.773438 -7.67578,5.773438 l -16.61914,0 0,-11.546875 z" />
      </g>
    </g>
    <g
       id="g4379">
      <path
         style="fill:#ffffff"
         d="m 105.70602,102.60775 c 0.0678,1.14929 0.17656,2.841 0.26268,4.25617 l -0.26268,0.0908 c 0.46587,7.70851 1.11217,17.86488 1.57805,23.51662 0.12229,1.42751 0.26188,3.41385 0.4424,5.92508 0.75159,10.56862 2.17803,30.5855 5.53994,56.29414 0.96055,7.34533 2.07916,15.15367 3.3852,23.34085 1.63239,10.23397 3.55853,21.05809 5.83422,32.29956 0.91034,4.49659 1.87518,9.05955 2.90131,13.67902 1.53913,6.92922 3.21396,13.98468 5.03435,21.12882 1.2136,4.76276 2.49164,9.56504 3.83944,14.39596 1.34778,4.83092 2.76487,9.6906 4.2542,14.56779 2.3119,7.57451 4.91578,15.20682 7.74013,22.86289 3.3543,9.09523 7.04593,18.22579 11.06409,27.35014 9.01467,20.45699 19.63058,40.8668 31.55695,60.6945 14.30235,23.77812 30.47457,46.71212 48.00891,67.89742 2.83601,3.42601 5.70721,6.81094 8.61309,10.14373 10.13988,11.6295 20.86217,22.97508 30.67806,33.00069 1.7496,1.81331 3.53129,3.66977 5.20617,5.38392 10.8374,11.08791 19.92151,19.94352 24.75496,24.59893 0.0781,-0.0734 0.20221,-0.19108 0.28243,-0.26662 0.0802,0.0755 0.2044,0.19321 0.28243,0.26662 1.20836,-1.16385 2.68191,-2.59015 4.38258,-4.24827 5.10202,-4.97439 12.24433,-12.03473 20.37239,-20.35066 1.67488,-1.71415 3.45656,-3.57061 5.20616,-5.38392 9.81591,-10.02561 20.5382,-21.37119 30.67807,-33.00069 2.90588,-3.33279 5.77707,-6.71772 8.61308,-10.14373 17.53434,-21.1853 33.70657,-44.1193 48.00892,-67.89742 11.92637,-19.8277 22.54228,-40.23751 31.55695,-60.6945 4.01816,-9.12435 7.70978,-18.25491 11.06408,-27.35014 2.82435,-7.65607 5.42823,-15.28838 7.74013,-22.86289 1.48934,-4.87719 2.90642,-9.73687 4.2542,-14.56779 1.34781,-4.83092 2.62584,-9.6332 3.83945,-14.39596 1.82038,-7.14414 3.49521,-14.1996 5.03434,-21.12882 1.02613,-4.61947 1.99098,-9.18243 2.90131,-13.67902 2.2757,-11.24147 4.20183,-22.06559 5.83422,-32.29956 1.30604,-8.18718 2.42466,-15.99552 3.3852,-23.34085 3.36191,-25.70864 4.78835,-45.72552 5.53995,-56.29414 0.18052,-2.51123 0.32011,-4.49757 0.4424,-5.92508 0.46588,-5.65174 1.11217,-15.80811 1.57804,-23.51662 l -0.26267,-0.0908 c 0.0861,-1.41517 0.19492,-3.10688 0.26267,-4.25617 z"
         id="path4285"
         inkscape:connector-curvature="0"
         sodipodi:nodetypes="cccccsccssscccscscccccsccscscccsssscscccccc" />
      <path
         d="m 472.46212,312.34288 c -2.29202,7.49052 -4.86624,15.03865 -7.65351,22.60983 l 0.50677,-196.21112 39.59212,-29.27638 c -0.46071,7.62304 -1.09994,17.66609 -1.56641,23.26093 -0.12094,1.40591 -0.25914,3.37073 -0.43767,5.85988 -1.6931,23.88898 -6.87607,96.58729 -30.4413,173.75686 z m -97.28431,-106.94724 0,283.76369 c 17.3399,-20.95039 33.33224,-43.62936 47.47598,-67.14381 l 0,-251.72734 -47.47598,35.10746 z m -93.51803,69.15472 0,262.59435 c 10.71723,10.96496 19.70103,19.7231 24.48089,24.32689 4.72225,-4.44245 13.5045,-12.82607 23.96258,-23.32431 l 0,-299.41887 -48.44347,35.82194 z m -92.3605,68.2962 0,77.23872 c 14.46049,24.2635 30.89625,47.67423 48.76597,69.24691 l 0,-182.54957 -48.76597,36.06394 z"
         id="path4"
         inkscape:connector-curvature="0"
         style="fill:#e2231a" />
      <g
         id="g4338">
        <path
           style="fill:#000000"
           id="path4228"
           d="m 229.36938,278.99858 c 0.99629,1.44624 2.91398,1.94177 6.8588,-1.15815 l 5.08506,1.52115 c 1.68159,0.87581 3.62808,0.73753 10.21621,-0.50129 0.98476,2.17225 4.19821,0.67415 3.2192,-1.4981 -1.93497,-4.22926 -6.47871,-5.4047 -14.77722,-3.37073 -1.87739,-1.02563 -3.86995,-0.83548 -8.51734,1.46353 -2.13077,-2.83487 -6.72058,-1.57877 -8.2294,1.42319 -1.11146,2.13192 2.0847,3.76255 6.14469,2.1204 z" />
        <path
           style="fill:#000000"
           id="path4222"
           d="m 163.25199,321.25083 5.1081,1.52115 c 1.68734,0.87582 3.61656,0.73177 10.19317,-0.50128 0.99628,2.18377 4.22124,0.67414 3.23647,-1.50963 -1.95224,-4.2235 -6.50174,-5.39893 -9.58273,-2.12039 l -5.19448,-1.22729 c -1.86588,-1.01987 -3.89299,-0.82972 -8.51735,1.44624 -2.11925,-2.82335 -6.73785,-1.57301 -8.25819,1.41744 -1.08267,2.13767 2.07318,3.7683 6.15621,2.12615 1.01355,1.45201 2.91398,1.95906 6.8588,-1.15239 z" />
        <path
           style="fill:#000000"
           id="path4220"
           d="m 150.73223,195.5024 c -8.43096,0 -15.45676,4.59802 -18.08855,11.01682 l 36.48809,-0.0749 c -2.62027,-6.41303 -9.96858,-10.94191 -18.39954,-10.94191 z" />
        <path
           style="fill:#000000"
           id="path4218"
           d="m 182.98757,160.92504 36.38445,0 -17.40326,-36.38661 0,-10.94191 4.40552,0 0,-1.64215 -4.40552,0 -1.60096,-4.86308 0,4.86308 -2.57997,0.88733 -2.24019,0.75482 4.82016,0 0,10.94191 -17.38023,36.38661 z" />
        <path
           style="fill:#000000"
           id="path4216"
           d="m 196.41722,318.85963 c -2.09046,-2.82335 -6.72057,-1.57301 -8.24668,1.44048 -1.06538,2.11463 2.08471,3.74526 3.17889,1.61335 0.3916,-0.79515 2.29778,-0.4552 3.8642,2.90401 l 9.6,-7.0987 c -1.82555,-0.73177 -4.33642,-0.84701 -8.39641,1.14086 z" />
        <path
           style="fill:#000000"
           sodipodi:nodetypes="ccccc"
           inkscape:connector-curvature="0"
           id="path4206"
           d="m 155.817,353.95 4.4807,-3.31331 -4.1291,-1.15814 -0.91566,3.12872 c 0.18428,0.44944 0.37403,0.89906 0.56406,1.34273 z" />
        <path
           style="fill:#000000"
           id="path4236"
           d="m 171.91331,289.94049 c 1.51457,-3.00197 6.12165,-4.24079 8.25243,-1.42896 4.63587,-2.28173 6.63995,-2.47187 8.52311,-1.44625 l 5.21176,1.23306 c 3.08674,-3.27278 7.63623,-2.10311 9.56545,2.12615 0.97324,2.16649 -2.24019,3.67611 -3.22495,1.50963 -6.58814,1.23881 -8.52887,1.34829 -10.2047,0.50705 l -5.09082,-1.53268 c -1.81404,2.0743 -4.63012,4.35602 -6.8588,1.15239 -4.08302,1.64791 -7.24463,0.006 -6.17348,-2.12039 z" />
        <path
           style="fill:#000000"
           id="path4234"
           d="m 189.43174,300.4733 c -1.08267,2.14344 2.07318,3.77407 6.15621,2.14344 1.02508,1.44625 2.90822,1.94753 6.8588,-1.1812 l 5.10234,1.52115 c 1.68158,0.88734 3.6108,0.74329 10.19317,-0.47824 0.99629,2.16073 4.22124,0.66839 3.22495,-1.52115 -1.92345,-4.24078 -6.46143,-5.39893 -14.77146,-3.34768 -1.8601,-1.02562 -3.89297,-0.82396 -8.51733,1.43472 -2.1135,-2.81758 -6.74363,-1.56724 -8.24668,1.42896 z" />
        <path
           style="fill:#000000"
           id="path4232"
           d="m 166.47119,291.92835 c 0.98476,2.16649 4.22124,0.65686 3.23647,-1.50962 -1.95801,-4.21774 -6.49022,-5.4047 -14.77145,-3.35921 -1.88891,-1.02562 -3.88724,-0.84124 -8.54039,1.44625 -2.13078,-2.81183 -6.7321,-1.56725 -8.24092,1.42896 -1.0769,2.12615 2.09046,3.7683 6.15622,2.12039 1.01931,1.46929 2.91974,1.94753 6.85303,-1.15239 l 5.10234,1.53267 c 1.68159,0.84701 3.6108,0.73177 10.2047,-0.50705 z" />
        <path
           style="fill:#000000"
           id="path4230"
           d="m 188.27421,307.30695 c -1.86588,-1.02562 -3.88723,-0.84124 -8.51159,1.42896 -2.1135,-2.81758 -6.73786,-1.56724 -8.2582,1.44625 -1.05387,2.12039 2.07895,3.75102 6.16198,2.10887 2.23443,3.19787 5.05051,0.91614 6.85303,-1.15815 l 5.10235,1.52691 c 1.68158,0.85853 3.61655,0.73177 10.21045,-0.49553 0.99052,2.16073 4.21547,0.66263 3.21344,-1.50962 -1.93498,-4.24079 -6.49599,-5.39317 -14.77146,-3.34769 z" />
        <path
           style="fill:#000000"
           id="path4226"
           d="m 167.42716,301.43554 5.09658,1.52115 c 1.68158,0.88734 3.61656,0.74329 10.21045,-0.47824 0.99052,2.16073 4.1982,0.66839 3.22496,-1.52115 -1.94649,-4.24078 -6.49599,-5.39893 -9.5597,-2.13191 l -5.21177,-1.21577 c -1.88314,-1.02562 -3.9045,-0.82396 -8.52885,1.43472 -2.10775,-2.81182 -6.7321,-1.56148 -8.24093,1.42896 -1.06539,2.14344 2.09046,3.77407 6.15622,2.14344 2.21715,3.16906 5.05051,0.91615 6.85304,-1.1812 z" />
        <path
           style="fill:#000000"
           id="path4224"
           d="m 210.99289,313.14956 6.39808,-4.73055 -3.04643,0.3169 c -2.11926,-2.81758 -6.72059,-1.56724 -8.24668,1.44625 -0.9099,1.81501 1.78524,3.71068 4.89503,2.9674 z" />
        <path
           sodipodi:nodetypes="ccccccccccccccccccccccccccccccccccccccccccccccccccccsccsccscccccccccccccccccccccccccccccccccccccccccccccc"
           inkscape:connector-curvature="0"
           id="path4336"
           d="m 317.02539,103.96094 0,6.36914 c -6.83576,1.95906 -13.43045,6.13021 -15.15234,13.13672 l -8.66602,0 0,10.94726 9.07617,0 c 0.67379,8.17619 6.77194,15.07338 14.74219,16.64063 l 0,8.64258 -3.16797,0.22461 -4.3418,-4.9668 1.45118,-1.22656 -2.42383,-0.73243 -0.36914,-1.80273 -1.77344,2.59766 -7.98828,5.11718 2.33203,2.62696 6.53711,-0.83985 0.56445,5.35742 -13.06054,8.44141 4.28906,0.24219 c 3.32286,-1.74586 10.26758,-6.10156 10.26758,-6.10156 l -0.875,9.54101 2.62695,-0.0391 2.37891,-7.88867 3.54687,-0.72657 0,21.20508 -3.16797,0.23047 -4.34179,-4.95703 1.45117,-1.22656 -2.42383,-0.72656 -0.36914,-1.82618 -1.77344,2.60547 -7.98828,5.1211 2.33203,2.62304 6.53711,-0.84179 0.56445,5.34765 -13.06054,8.45703 4.28906,0.23047 c 3.32286,-1.73434 10.26758,-6.10156 10.26758,-6.10156 l -0.875,9.54883 2.62695,-0.0293 2.37891,-7.91211 3.54687,-0.69726 0,16.84765 -65.1914,-14.91601 -32.45118,21.00781 0,-57.32617 -36.38281,0 0,43.76172 -66.15581,0 c 0.36723,2.44681 0.72073,4.86273 1.12305,7.38476 1.61429,10.12049 3.51907,20.82459 5.76953,31.94141 0.90024,4.44673 1.85439,8.95909 2.86914,13.52734 1.31621,5.92563 2.75413,11.95855 4.27735,18.04688 l 88.49955,0 c 1.93787,-26.54794 10.84561,-39.11636 19.67969,-39.09766 8.83408,0.0187 17.59607,12.62601 19.24024,36.42578 l 5.53906,-4.0918 c 0.16701,-16.19104 8.05115,-32.35351 17.80664,-32.35351 4.56101,0 8.71339,5.34151 11.875,10.40625 l 40.11523,-29.58203 c -2.29397,-0.83229 -4.59091,-1.65702 -6.88672,-2.48438 l 0.20118,-21.50781 1.88867,-0.38086 4.90625,6.5918 c 0,0 -2.14792,3.72126 -2.67774,4.5625 l 2.85157,0.16797 c 1.22663,-1.38287 2.96484,-4.5 2.96484,-4.5 l -1.73242,-5.72266 4.88867,3.79297 0.46094,5.96875 1.97461,-0.17774 0.81836,-6.32812 -5.33204,-8.19922 4.92969,1.45313 8.52149,-4.00586 -8.17578,0.33007 -11.0918,-2.42578 -5.0918,0.35547 0.21875,-22.58594 1.56641,-0.31054 4.91797,6.58008 c 0,0 -2.14792,3.72692 -2.67774,4.55664 l 2.85157,0.18554 c 1.22663,-1.38286 2.96484,-4.50586 2.96484,-4.50586 l -1.73242,-5.72265 4.88867,3.79687 0.46094,5.96485 1.97461,-0.17969 0.81836,-6.32031 -5.33204,-8.19922 4.92969,1.44531 8.51563,-3.99805 -8.17578,0.32227 -11.0918,-2.4082 -4.80274,0.30664 0.0859,-7.91797 c 7.97026,-1.57301 14.05052,-8.46444 14.70703,-16.64063 l 9.08203,0 0,-10.94726 -8.65039,0 c -2.57997,-8.74085 -7.65215,-10.73976 -15.13867,-13.13672 l 0,-6.36914 -10.40039,0 z"
           style="fill:#000000" />
        <path
           id="path4334"
           d="m 224.75586,286.46484 c -1.4604,0.006 -3.34117,0.61494 -6.24219,2.04102 -2.10199,-2.81183 -6.72546,-1.57228 -8.22851,1.42969 -1.07115,2.12614 2.09051,3.76705 6.15625,2.11914 0.99629,1.46929 2.91835,1.94757 6.85742,-1.15235 l 5.09765,1.53321 c 1.61248,0.80668 3.93883,1.539 9.94532,0.49609 l 2.98828,-2.21289 c -2.17684,-3.41107 -6.27181,-5.38165 -9.08789,-2.42578 l -5.18164,-1.23242 c -0.70402,-0.38461 -1.42845,-0.59905 -2.30469,-0.59571 z"
           style="fill:#000000" />
        <path
           id="path4332"
           d="m 133.28906,287.20508 c 0.49398,1.89596 0.9965,3.79615 1.51172,5.70312 1.14487,-0.0275 2.59878,-1.07969 1.96094,-2.48828 -0.69213,-1.51045 -2.15561,-2.59339 -3.47266,-3.21484 z"
           style="fill:#000000" />
        <path
           id="path4330"
           d="m 145.42578,297.07031 c -1.95027,-0.0683 -4.25993,0.66398 -6.82226,2.35547 l -2.34961,-1.20117 c 0.48101,1.72093 0.97761,3.44805 1.47656,5.17578 1.64362,0.48883 4.36444,0.12087 10.00195,-0.92187 0.979,2.16073 4.19765,0.66805 3.21289,-1.52149 -1.09814,-2.38868 -3.01204,-3.79897 -5.51953,-3.88672 z"
           style="fill:#000000" />
        <path
           id="path4328"
           d="m 156.20312,306.32617 c -1.89488,0.0169 -4.12156,0.34351 -6.71484,0.98633 -1.84284,-1.02563 -3.87029,-0.84628 -8.52344,1.42969 -0.41396,-0.56248 -1.29788,-0.78767 -1.96093,-1.00586 0.45485,1.53284 0.90378,3.06484 1.37304,4.60156 0.11047,0.36194 0.22999,0.72569 0.3418,1.08789 1.1631,-0.0764 3.03923,-0.72273 5.02148,-2.28711 l 5.11329,1.52735 c 1.67008,0.85853 3.60533,0.73119 10.19921,-0.4961 0.97325,2.16072 4.221,0.66249 3.23047,-1.50976 -1.34613,-2.90762 -3.91132,-4.37124 -8.08008,-4.33399 z"
           style="fill:#000000" />
        <path
           id="path4326"
           d="m 142.56641,316.95508 c -0.24138,0.014 -0.47391,0.0597 -0.70703,0.10351 0.488,1.52498 0.99196,3.05126 1.50195,4.58008 l 2.24023,0.63867 c 1.0078,2.18377 4.2325,0.67401 3.23047,-1.50976 -1.2144,-2.65193 -3.89414,-3.94999 -6.26562,-3.8125 z"
           style="fill:#000000" />
        <path
           id="path4324"
           d="m 152.73438,325.20117 c -1.35155,0.051 -2.71183,0.65357 -3.86719,1.88086 l -3.94141,-0.8418 c 0.62687,1.80933 1.2678,3.62055 1.92188,5.4336 1.50597,-0.006 4.1157,-0.3668 8.35351,-0.95508 0.97325,2.17225 4.20352,0.65681 3.21875,-1.50391 -1.20576,-2.65049 -3.43297,-4.09871 -5.68554,-4.01367 z"
           style="fill:#000000" />
        <path
           id="path4322"
           d="m 182.23242,325.25 c -1.4521,0.0104 -3.32359,0.62471 -6.22461,2.05078 -2.1135,-2.82334 -6.73161,-1.5838 -8.25195,1.42969 -1.08266,2.13192 2.0907,3.72652 6.16797,2.10742 2.22292,3.19211 5.0548,0.91775 6.85156,-1.17383 l 5.4082,1.84375 4.89453,-3.60156 c -2.1846,-0.68826 -4.36856,-1.37862 -6.55273,-2.06836 -0.70186,-0.38245 -1.42171,-0.59416 -2.29297,-0.58789 z"
           style="fill:#000000" />
        <path
           id="path4320"
           d="m 170.9707,335.78516 c -1.45478,0.008 -3.32462,0.61689 -6.21484,2.04296 -2.13653,-2.82332 -6.73943,-1.58566 -8.25977,1.4336 -1.0769,2.12039 2.09625,3.75172 6.15625,2.12109 2.22867,3.18635 5.05706,0.91013 6.8711,-1.16992 l 3.74804,0.83008 3.95704,-2.91602 -3.95704,-1.75586 c -0.70402,-0.38028 -1.42791,-0.591 -2.30078,-0.58593 z"
           style="fill:#000000" />
        <path
           id="path4318"
           d="m 148.38086,335.87109 c 0.73883,1.99019 1.48844,3.98159 2.25976,5.97461 1.37833,1.00306 4.03487,-0.25387 3.20704,-2.09961 -1.09925,-2.38853 -3.41802,-3.68595 -5.4668,-3.875 z"
           style="fill:#000000" />
        <path
           id="path4312"
           d="m 157.76562,345.15625 c -1.34924,0.0248 -3.03909,0.52669 -5.22656,1.49219 0.99701,2.49442 2.01537,4.99015 3.0625,7.48633 l 9.44141,-7.00782 -5.125,-1.48047 c -0.61764,-0.34139 -1.32181,-0.5055 -2.15235,-0.49023 z"
           style="fill:#000000" />
      </g>
      <g
         id="g4375">
        <path
           id="path4214"
           d="M 96.316406 94.201172 L 96.644531 99.998047 C 96.696361 100.9603 97.987332 123.76116 98.828125 133.66016 C 98.937543 134.99693 99.069322 136.86387 99.236328 139.20898 C 100.95246 163.40334 106.1591 237.0292 130.15625 315.55859 C 134.7115 330.45319 140.30955 345.56008 146.74219 360.66211 C 146.93224 361.11154 147.1166 361.55633 147.30664 362 C 148.18774 364.04548 149.08034 366.08928 149.99023 368.13477 C 171.7299 416.97867 202.43603 465.43695 238.1582 506.4043 C 267.75295 540.36514 301.98845 572.69491 302.33398 573.01758 L 306.04883 576.51562 L 309.80273 573.06445 C 310.15402 572.73602 345.30615 540.38818 374.92969 506.4043 C 412.16068 463.7199 443.93822 412.91235 465.79883 361.99414 C 472.47334 346.44845 478.26151 330.891 482.94922 315.55273 C 506.88302 237.1962 512.12966 163.55764 513.85156 139.36328 C 514.02433 136.94327 514.15641 135.02555 514.27734 133.64844 C 515.02023 124.74626 516.14319 105.48415 516.40234 100.9668 C 516.43114 100.45975 516.45298 100.09019 516.45898 99.992188 L 516.5918 97.625 L 516.78711 94.201172 L 96.316406 94.201172 z M 107.93164 105.16602 L 504.9082 105.16602 C 504.8412 106.30257 504.73364 107.97552 504.64844 109.375 L 504.9082 109.46484 C 504.44749 117.08788 503.80837 127.13163 503.34766 132.7207 C 503.22672 134.13238 503.08868 136.09669 502.91016 138.58008 C 502.1669 149.03151 500.75627 168.82643 497.43164 194.25 C 496.48175 201.51388 495.37554 209.23564 494.08398 217.33203 C 492.46969 227.45252 490.56492 238.15662 488.31445 249.27344 C 487.41422 253.72017 486.46006 258.23253 485.44531 262.80078 C 483.92325 269.65316 482.26699 276.63039 480.4668 283.69531 C 479.26664 288.40526 478.00278 293.15429 476.66992 297.93164 C 475.33708 302.70899 473.93572 307.51479 472.46289 312.33789 C 470.17663 319.82841 467.60162 327.37609 464.80859 334.94727 C 461.49148 343.94165 457.8408 352.97096 453.86719 361.99414 C 444.95248 382.22429 434.45429 402.40778 422.66016 422.01562 C 408.51641 445.53008 392.5235 468.20977 375.18359 489.16016 C 372.37903 492.54818 369.53968 495.89558 366.66602 499.19141 C 356.63858 510.69196 346.03519 521.91173 336.32812 531.82617 C 334.59793 533.61937 332.836 535.45525 331.17969 537.15039 C 323.14176 545.37411 316.07865 552.35616 311.0332 557.27539 C 309.35139 558.91513 307.89418 560.32561 306.69922 561.47656 C 306.62205 561.40396 306.49922 561.28759 306.41992 561.21289 C 306.34059 561.28759 306.21783 561.40396 306.14062 561.47656 C 301.36077 556.87277 292.37739 548.11535 281.66016 537.15039 C 280.00385 535.45525 278.24192 533.61937 276.51172 531.82617 C 266.80467 521.91173 256.20127 510.69196 246.17383 499.19141 C 243.30017 495.89558 240.46081 492.54818 237.65625 489.16016 C 220.31634 468.20977 204.32344 445.53008 190.17969 422.01562 C 178.38556 402.40778 167.88737 382.22429 158.97266 361.99414 C 154.99905 352.97096 151.34836 343.94165 148.03125 334.94727 C 145.23822 327.37609 142.66321 319.82841 140.37695 312.33789 C 138.90413 307.51479 137.50276 302.70899 136.16992 297.93164 C 134.83707 293.15429 133.5732 288.40526 132.37305 283.69531 C 130.57285 276.63039 128.91659 269.65316 127.39453 262.80078 C 126.37978 258.23253 125.42563 253.72017 124.52539 249.27344 C 122.27493 238.15662 120.37015 227.45252 118.75586 217.33203 C 117.4643 209.23564 116.3581 201.51388 115.4082 194.25 C 112.08357 168.82643 110.67294 149.03151 109.92969 138.58008 C 109.75117 136.09669 109.61313 134.13238 109.49219 132.7207 C 109.03148 127.13163 108.39235 117.08788 107.93164 109.46484 L 108.19141 109.375 C 108.10624 107.97552 107.99864 106.30257 107.93164 105.16602 z " />
        <path
           id="path4372"
           d="M 493.50586 102.60742 L 154.00391 354.59375 C 155.08524 357.16785 156.18676 359.74236 157.32031 362.31641 C 157.99711 363.85227 158.6998 365.38677 159.39453 366.92188 L 507.01172 108.91211 C 507.05013 108.28354 507.09838 107.5571 507.13477 106.95508 L 506.87109 106.86328 C 506.95719 105.44811 507.06702 103.75671 507.13477 102.60742 L 493.50586 102.60742 z "
           style="fill:#000000" />
      </g>
    </g>
  </g>
</svg>
