<?xml version="1.0" encoding="UTF-8" standalone="no"?>
<!-- Generator: Adobe Illustrator 15.0.2, SVG Export Plug-In . SVG Version: 6.00 Build 0)  -->

<svg
   xmlns:dc="http://purl.org/dc/elements/1.1/"
   xmlns:cc="http://creativecommons.org/ns#"
   xmlns:rdf="http://www.w3.org/1999/02/22-rdf-syntax-ns#"
   xmlns:svg="http://www.w3.org/2000/svg"
   xmlns="http://www.w3.org/2000/svg"
   xmlns:sodipodi="http://sodipodi.sourceforge.net/DTD/sodipodi-0.dtd"
   xmlns:inkscape="http://www.inkscape.org/namespaces/inkscape"
   version="1.1"
   id="Capa_1"
   x="0px"
   y="0px"
   width="396"
   height="700"
   viewBox="0 0 76.687796 1539.2709"
   enable-background="new 0 0 841 595"
   xml:space="preserve"
   inkscape:version="0.91 r13725"
   sodipodi:docname="Logo RC Celta Vigo.svg"><metadata
     id="metadata137"><rdf:RDF><cc:Work
         rdf:about=""><dc:format>image/svg+xml</dc:format><dc:type
           rdf:resource="http://purl.org/dc/dcmitype/StillImage" /><dc:title></dc:title></cc:Work></rdf:RDF></metadata><defs
     id="defs135" /><sodipodi:namedview
     pagecolor="#ffffff"
     bordercolor="#666666"
     borderopacity="1"
     objecttolerance="10"
     gridtolerance="10"
     guidetolerance="10"
     inkscape:pageopacity="0"
     inkscape:pageshadow="2"
     inkscape:window-width="1440"
     inkscape:window-height="788"
     id="namedview133"
     showgrid="false"
     fit-margin-top="0"
     fit-margin-left="0"
     fit-margin-right="0"
     fit-margin-bottom="0"
     inkscape:zoom="1.0450928"
     inkscape:cx="213.94043"
     inkscape:cy="454.46702"
     inkscape:window-x="0"
     inkscape:window-y="1"
     inkscape:window-maximized="1"
     inkscape:current-layer="Capa_1" /><g
     id="g4538"><g
       id="g4382"><path
         style="fill:#e5254e"
         inkscape:connector-curvature="0"
         id="path26"
         d="m 13.159619,759.85133 c -7.3106,-1.22927 -14.74076,-0.62316 -22.10259,-0.38723 9.82149004,27.05245 5.72207,58.54075 -11.03423,81.90742 -13.40845,19.2626 -34.84489,31.41228 -57.16954,38.13199 16.50008,95.72341 33.2564,191.38129 49.85895,287.08849 21.72682,124.2099 42.92412,248.5341 64.99256,372.679 1.7935,-7.5341 3.02329,-15.1732 4.32144,-22.7949 36.86044,-211.8049 73.891701,-423.5751 110.666711,-635.39746 -20.39449,-6.50708 -40.0887,-17.23734 -53.531301,-34.10674 -16.85879,-20.54809 -23.3495,-48.5716 -18.24235,-74.29209 -7.90842,-2.95148 -16.22679,-4.92879 -24.71594,-4.73432 -5.03887,0.28541 -10.0606,0.87439 -15.11652,1.04185 -9.73611,-1.71751 -18.17404,-7.48567 -27.92719,-9.13592 z" /><path
         style="fill:#e5254e"
         inkscape:connector-curvature="0"
         id="path5"
         d="m 36.641389,318.85635 34.67735,-0.003 c 0.0636,-62.54818 2.42172,-139.7741 14.49212,-144.8841 14.590771,-6.17909 29.716171,2.38318 18.982331,23.72046 -11.815821,23.485 -5.301691,40.09727 18.01173,42.42955 18.98551,1.89636 44.86067,-1.99182 57.92076,-47.17364 C 196.36024,138.86425 160.49272,125.60561 102.08506,70.366058 50.430219,21.499708 36.641389,2.0819675e-4 36.641389,2.0819675e-4 c 0,0 -13.78884,21.49949980325 -65.44369,70.35948980325 -58.40764,55.249092 -94.271999,68.507732 -78.640609,122.585922 13.063279,45.18182 38.935249,49.07318 57.914399,47.17682 23.31977,-2.32909 29.83072,-18.94773 18.0149,-42.43591 -10.73384,-21.33091 4.39156,-29.89955 18.98233,-23.7141 12.07359004,5.10682 14.42212,82.33274 14.49531,144.89047 l 34.67736,-0.006 z" /><path
         style="fill:#e5254e"
         inkscape:connector-curvature="0"
         id="path7"
         d="m 426.64307,511.78273 c 8.18802,-6.72954 13.26058,-16.625 19.47558,-23.26864 7.2588,-7.75727 16.33467,-14.12091 27.61905,-14.25773 -11.28438,-0.13681 -20.35707,-6.49727 -27.62223,-14.25454 -6.21182,-6.64046 -11.28438,-16.53909 -19.4724,-23.26864 -5.12666,-4.65182 -11.87311,-7.48364 -19.26873,-7.47727 -12.21997,0.003 -22.6706,7.71272 -26.95714,18.62636 -5.99542,-0.0223 -24.80272,-0.12727 -35.37109,-0.80182 -12.6814,-0.80181 -22.20279,-0.80181 -7.13786,-12.02409 l 7.26516,-5.50454 c 9.97646,-6.18228 17.93535,-15.42546 22.62604,-26.45046 0.66191,-1.49864 1.27291,-3.05773 1.83936,-4.69636 0.77966,-2.25591 1.35247,-4.57864 1.72798,-6.94273 0.71283,-3.67818 1.09153,-7.48364 1.09471,-11.37182 -0.003,-30.88909 -23.72394,-56.11773 -53.57058,-57.715 -3.75828,-0.34682 -7.60248,-0.21319 -11.4785,0.47727 -1.36202,0.24182 -2.69221,0.52818 -4.00332,0.84954 -5.81721,1.45091 -11.19846,3.70682 -17.57893,7.38182 l -1.57842,1.04364 c -28.3987,18.10773 -41.67837,54.03682 -41.67837,54.03682 0,0 6.85782,-3.67182 36.66309,-9.66 22.14234,-4.445 35.94391,5.985 32.50385,27.26818 -5.16802,32.01864 -47.57514,40.10364 -47.57514,40.10364 l -74.31908,0 0,60.75683 74.31908,0 c 0,0 42.40394,8.08181 47.57196,40.10045 3.44006,21.28 -10.36469,31.71955 -32.50385,27.26819 -29.80846,-5.985 -36.66627,-9.66 -36.66627,-9.66 0,0 13.27648,35.92909 41.67837,54.03682 l 1.57523,1.03727 c 6.38684,3.68136 11.7649,5.93727 17.58212,7.38182 1.31111,0.33091 2.64448,0.61091 4.00013,0.85273 3.87921,0.68727 7.72341,0.82091 11.48168,0.47727 29.84983,-1.60046 53.57059,-26.82591 53.57059,-57.71819 0,-3.89136 -0.3787,-7.69682 -1.09471,-11.37182 -0.3787,-2.36409 -0.94832,-4.69 -1.72481,-6.94591 -0.5728,-1.64181 -1.18062,-3.19772 -1.83936,-4.69318 -4.69704,-11.02818 -12.64957,-20.26818 -22.62604,-26.45045 l -7.26833,-5.50137 c -15.06176,-11.235 -5.54673,-11.22864 7.13468,-12.03045 10.56519,-0.67137 29.37566,-0.78591 35.37745,-0.805 4.28018,10.92 14.73398,18.62954 26.95077,18.63273 7.40199,0.0159 14.15798,-2.80955 19.27828,-7.46137 z" /><path
         style="fill:#e5254e"
         inkscape:connector-curvature="0"
         id="path9"
         d="m -349.95208,511.78591 c -8.18802,-6.72954 -13.26057,-16.63136 -19.47558,-23.27182 -7.26198,-7.75091 -16.33467,-14.11773 -27.62223,-14.25773 11.28756,-0.14 20.35707,-6.50045 27.62223,-14.25454 6.21182,-6.63409 11.28756,-16.53909 19.47558,-23.26864 5.12666,-4.65182 11.87311,-7.47727 19.26873,-7.47409 12.21998,-0.006 22.67378,7.70954 26.95396,18.62636 5.9986,-0.0223 24.81226,-0.13363 35.37109,-0.80181 12.68777,-0.80182 22.20279,-0.79864 7.13786,-12.03364 l -7.26516,-5.50137 c -9.97964,-6.17909 -17.93535,-15.41909 -22.62285,-26.45045 -0.66192,-1.49227 -1.26974,-3.04818 -1.84255,-4.69318 -0.77648,-2.25273 -1.35247,-4.57228 -1.72162,-6.94273 -0.72237,-3.67182 -1.09789,-7.47727 -1.09789,-11.36864 0.003,-30.89546 23.72076,-56.12409 53.57058,-57.72137 3.76146,-0.34045 7.5993,-0.20363 11.48487,0.48046 1.35565,0.245 2.68584,0.525 4.00331,0.84954 5.81722,1.44773 11.19846,3.70364 17.57576,7.38182 l 1.57205,1.04364 c 28.40507,18.10136 41.68474,54.03046 41.68474,54.03046 0,0 -6.85464,-3.66864 -36.66628,-9.66319 -22.14234,-4.44181 -35.94391,5.99137 -32.51022,27.27455 5.17439,32.01228 47.57515,40.09728 47.57515,40.09728 l 74.32226,0 -0.003,60.75364 -74.31908,0.01 c 0,0 -42.40712,8.08182 -47.57515,40.10046 -3.43369,21.28 10.36788,31.71 32.50704,27.265 29.80845,-5.99136 36.66309,-9.66 36.66309,-9.66 0,0 -13.27649,35.9291 -41.68156,54.03364 l -1.57204,1.04364 c -6.38366,3.67818 -11.76491,5.93727 -17.58212,7.38818 -1.31111,0.31818 -2.64448,0.60773 -4.00332,0.84955 -3.87602,0.68727 -7.72022,0.82727 -11.48168,0.47409 -29.84664,-1.59728 -53.5674,-26.81955 -53.57058,-57.71501 0.006,-3.89454 0.38188,-7.7 1.09789,-11.37182 0.37869,-2.36409 0.9515,-4.68681 1.72798,-6.94272 0.56645,-1.64182 1.17745,-3.19773 1.83617,-4.69319 4.69388,-11.02818 12.64959,-20.27136 22.62287,-26.45045 l 7.26833,-5.50455 c 15.06176,-11.22545 5.5499,-11.22864 -7.13786,-12.02409 -10.562,-0.67136 -29.37248,-0.77955 -35.37427,-0.805 -4.28336,10.92 -14.73398,18.62955 -26.95395,18.62637 -7.38926,0.0223 -14.13889,-2.80955 -19.26237,-7.45819 z" /></g><g
       id="g4404"><path
         style="fill:#ffffff"
         inkscape:connector-curvature="0"
         id="path11"
         d="m -71.263521,754.28184 c 29.1911,35.86227 66.18834,58.95273 104.66852,79.66 l 4.58567,2.47228 4.58885,-2.46909 C 80.569639,813.49866 118.58839,789.7273 147.41671,754.27866 216.98145,668.74501 253.15994,542.14682 251.85838,430.185 l 0,-35.74024 -427.91513,0 0,35.74024 c -1.77253,111.2141 36.60961,240.32592 104.793229,324.09684 z"
         sodipodi:nodetypes="cccccccccc" /><path
         style="fill:#8ac3ee"
         inkscape:connector-curvature="0"
         id="path13"
         d="m -165.04544,404.84818 c -8.69719,114.24955 29.58251,254.82229 101.355759,343.00957 27.90863,34.28091 63.47385004,56.62682 101.68353,77.19091 37.72599,-20.30636 74.312711,-43.33318 101.852201,-77.19409 73.13844,-89.92774 108.81504,-227.24229 101.19346,-343.00321 l -406.08495,-0.003 z" /><path
         style="fill:#ffffff"
         inkscape:connector-curvature="0"
         id="path15"
         d="m 170.73012,477.51137 c -3.12182,37.92091 -11.0107,86.59 -32.52931,137.43228 -31.87376,75.34546 -67.464431,111.12819 -112.640141,147.20683 7.96526,8.01181 15.34816,15.39681 18.8423,19.11636 C 87.277889,745.85957 123.57821,705.90229 156.59441,633.91047 193.39435,553.69682 197.18127,487.83 197.50269,450.74591 l -308.49385,0 0,26.77182 281.72128,-0.006 z" /><path
         style="fill:#ffffff"
         inkscape:connector-curvature="0"
         id="path17"
         d="m -110.98798,509.72091 242.1273,-0.006 c -4.43928,29.53682 -12.15314,61.93728 -25.95471,94.49682 C 73.314029,679.21356 53.217899,697.29901 0.81522904,736.73447 -4.607391,731.03265 -11.493851,724.01992 -16.127261,719.39674 c 54.04474,-39.44182 69.39608,-54.60637 98.96905,-128.61546 7.22378,-18.28909 15.76822,-53.86819 15.76822,-53.86819 l -209.597989,0 0,-27.19182 z" /></g><g
       id="g4477"><g
         id="g4471"><path
           d="m -73.755241,372.07863 c 59.1682,-23.71727 66.99663,-28.95773 111.4595,-28.96409 53.31918,0.003 58.24854,5.46318 111.453161,28.96409 5.04709,-3.07364 12.0704,-9.02045 16.17873,-14.56636 0.33095,-4.21591 -0.82103,-9.21455 -3.6469,-14.65864 C 153.183,326.48635 132.71774,312.2859 115.79753,310.91135 96.808839,295.65453 65.635169,287.03181 42.951849,291.35272 c -1.86163,0.35 -3.60871,0.78591 -5.24759,1.28545 -1.64205,-0.50273 -3.38913,-0.93545 -5.25077,-1.28864 -22.68014,-4.31772 -53.8538,4.31137 -72.84249,19.56182 -16.92656,1.37455 -37.38547,15.57819 -45.89172,31.94228 -2.83223,5.44409 -3.9874,10.44591 -3.6469,14.66182 4.10833,5.53954 11.12845,11.48636 16.17238,14.56318 z"
           id="path19"
           inkscape:connector-curvature="0"
           style="fill:#b19221;fill-opacity:1" /><path
           d="m 37.704259,252.16226 c -56.96925,-25.99864 -84.74423,-4.67727 -90.55508,24.73864 -69.937059,-17.29 -63.588399,89.31046 -20.79623,105.69364 l 6.00815,12.76227 c 35.55885,-6.74863 60.51115,-10.64318 105.34316,-10.64318 32.3702,-0.003 80.129931,2.02682 108.153121,5.69546 l 2.91816,-7.70955 C 191.8223,366.67272 198.34599,259.57271 128.26253,276.89771 122.44532,247.48499 94.670349,226.16362 37.704259,252.16226 Z M 144.4349,355.71454 c -27.93727,1.35863 -26.19338,-18.57546 -22.90289,-34.60228 2.28805,-11.15227 7.89206,-15.44772 7.89206,-32.97636 17.93535,-15.12319 38.53428,13.32863 40.14451,32.90636 2.8768,34.84728 -23.35796,34.58001 -25.13368,34.67228 z M 46.318709,259.0668 c 93.953761,-42.88773 74.831421,97.58637 8.36941,64.31728 -3.91103,-1.96 -3.74237,-6.20454 -3.04227,-10.16273 2.89589,-16.44045 0.53781,-38.53182 -5.32714,-54.15455 z m -17.22889,0.006 c -5.86177,15.61954 -8.22302,37.71091 -5.32714,54.14818 0.7001,3.955 0.86876,8.20273 -3.04227,10.15955 -66.46519,33.27227 -85.58435,-107.20501 8.36941,-64.30773 z m -98.12256,96.635 c -1.76935,-0.0795 -28.00728,0.18455 -25.1305,-34.67227 1.61023,-19.56818 22.20916,-48.02955 40.15089,-32.89682 0,17.52546 5.604,21.82727 7.88887,32.97318 3.28731,16.02682 5.03438,35.96091 -22.90926,34.59591 z m 106.71155,-103.48546 0.13684,0.245 -0.13684,-0.245 z"
           id="path21"
           inkscape:connector-curvature="0"
           style="fill:#b19221;fill-opacity:1" /><path
           d="m -75.963761,386.84545 15.7555,26.63182 c -0.3596,0.39455 -0.51235,0.89091 -0.51553,1.39045 l 0,0.58228 c 0,0.58863 0.38505,1.16772 0.95469,1.75318 0.38187,0.58545 0.94831,0.97682 1.52431,0.97682 l 0.57281,-0.003 c 0.76374,0 1.71525,-0.38819 2.47263,-0.97364 5.52445,-2.72364 10.85796,-5.25 16.19783,-7.39455 7.61839,-2.91772 14.85172,-5.45363 21.71273,-7.20045 7.80932,-2.14137 15.23996,-3.69409 21.90685,-4.66773 8.1912,-1.16773 15.24314,-1.75318 21.52497,-1.75318 4.19425,-0.20046 7.81887,-0.19727 11.05207,0 3.04863,-0.19409 6.66688,-0.20046 10.85796,0 6.28183,0.003 13.71883,0.58545 21.71273,1.75636 6.85781,0.97046 14.10069,2.52318 21.91002,4.67091 6.85464,1.75318 14.094341,4.27955 21.712731,7.39137 5.33987,2.14136 10.67338,4.47681 16.19465,7.20045 0.95468,0.58546 1.71206,0.97364 2.47263,0.97364 l 0.38506,0 c 0.75738,0.003 1.32701,-0.38818 1.70889,-0.97046 1.39383,-1.26318 1.40338,-2.78727 0.44233,-3.72591 l 15.74913,-26.635 c -60.173821,-42.48046 -166.118441,-42.47409 -226.304991,-0.003 z"
           id="path23"
           inkscape:connector-curvature="0"
           style="fill:#b19221;fill-opacity:1" /><path
           d="m 46.500099,212.66317 c 0.003,-0.20046 0.003,-0.20046 0.003,-0.20046 l -16.95202,0 2.8545,10.12136 -8.38531,-2.9209 0,17.31863 8.38213,-2.91772 -2.85451,13.61818 16.95203,-0.003 -2.85769,-13.615 8.38532,2.91772 0,-17.31863 -8.38214,2.91772 2.85451,-9.91772 z"
           id="path25"
           inkscape:connector-curvature="0"
           style="fill:#b19221;fill-opacity:1" /></g><g
         id="g4262"><path
           d="m 5.700029,331.57726 c 1.3302,-1.365 2.09394,-3.30909 2.09394,-5.25 0,-2.14136 -0.76374,-3.89454 -2.09394,-5.45363 -0.57599,-0.58546 -1.14244,-1.16455 -1.90937,-1.75 -0.57281,-0.19409 -1.33338,-0.57909 -2.09712,-0.77318 -0.56646,-0.19728 -1.13925996,-0.19728 -1.89982996,-0.19728 -0.76693,0 -1.33656004,0.003 -2.09713004,0.19728 -0.5728,0.19409 -1.33337,0.38818 -1.903,0.77636 -0.76693,0.58545 -1.52431,1.16454 -2.1003,1.75 -1.13926,1.365 -1.71526,2.92091 -1.90301,4.865 l 0,0.58227 -0.003,0.58864 c 0.19411,1.94409 0.75738,3.50636 1.90937,4.86182 0.56962,0.58545 1.33337,1.16772 2.09712,1.55591 0.57281,0.38818 1.32701,0.77954 1.90619,0.77636 0.40415,0.14318 0.7192,0.27682 1.07243,0.35 -0.86877,10.65909 -14.7658,19.71773 -26.59754,13.85364 -2.31033,-1.17728 -4.62385,-3.03228 -6.76554,-5.635 0.85604,-0.82409 1.48613,-1.87728 1.79482,-3.05137 l 0.77966,0.32773 c 0.37869,0.19091 0.76056,0.19091 1.14244,0.38182 l 1.14243,0.58863 c 0.75739,0.19728 1.52432,0.58546 2.46946,1.16773 0.19731,0 0.38505,0.19727 0.57599,0.38818 0.76693,0.38819 1.14244,0.77637 1.71843,1.16455 0.57282,0.38818 1.33339,0.58545 2.28489,1.36182 0.38187,0.20045 0.57281,0.385 0.95468,0.58545 0.38187,0.20046 0.76057,0.77318 1.52432,1.16773 0.38187,0.19409 0.9515,0.39136 1.33656,0.58227 0.56962,0 0.76056,0 0.94831,-0.19409 1.71526,-0.38818 2.85451,-2.33545 2.09395,-4.08864 -0.76057,-1.36181 -0.57281,-1.94409 -1.52431,-3.115 -0.38188,-0.19409 -0.56964,-0.58227 -0.57282,-0.97363 -0.19093,-0.38818 0,-0.58546 0,-0.97364 0,-0.77318 0.38188,-1.365 0.576,-1.94409 0.56962,-2.91454 -0.006,-4.66773 -0.56963,-6.03273 -0.38188,-0.77954 -0.76694,-1.36182 -0.95786,-1.75 -0.57282,-0.77954 -0.95469,-1.17091 -1.33657,-1.55591 -0.95468,-0.77954 -1.71207,-1.17091 -2.47263,-1.56227 -0.57282,-0.19091 -0.95469,-0.58545 -0.95469,-1.16454 0,-3.50319 -0.57281,-4.47364 -1.33338,-5.06228 -0.19094,-0.19409 -0.38187,-0.19409 -0.57281,-0.385 -0.19093,-0.19091 -0.95468,-0.19727 -1.71206,0.19728 -0.95787,0.39136 -2.10031,1.55909 -2.29125,4.27954 0,0.38818 0.003,0.97364 -0.18776,1.36182 -0.003,1.94727 -0.38187,3.50954 -0.95469,4.865 -0.38186,0.58545 -0.76374,1.16455 -1.33337,1.94091 -0.61736,0.88773 -1.31746,1.94409 -1.78844,3.05136 -1.15199,-1.60045 -3.00726,-2.65682 -5.06939,-2.66 l 0.75421,-0.77954 c 2.29124,-1.75637 3.05181,-3.10864 3.81555,-5.05909 0.7574,-1.94728 1.13927,-2.52955 1.70889,-4.86182 0.19412,-0.39137 1.33338,-1.75 1.71526,-2.72682 0.38187,-0.97364 0,-2.33227 -0.57282,-2.72364 -0.95468,-0.38818 -2.09712,-0.58227 -4.0033,0.58864 -1.13926,0.77636 -0.7574,0.77636 -1.90619,2.14136 -0.95151,1.16455 -1.90301,0.19409 -2.66676,-0.19409 -0.9515,-0.39136 -2.09394,-0.58545 -3.42733,-0.58545 -1.52431,-0.19409 -1.90618,0.19727 -1.90618,0.19727 0,0 -2.09394,0.38818 -3.23957,1.55273 -0.95468,1.16772 -0.95468,1.95045 -1.33974,2.92727 -0.37869,0.96727 -0.56963,2.52955 -2.28488,2.52636 -1.52431,-0.20045 -1.52431,-0.20045 -2.85769,-0.003 -2.09395,0.58546 -3.61826,1.36182 -4.00013,2.33546 -0.37869,0.58545 0.57281,2.135 1.52432,2.72681 0.76056,0.385 0.76056,0.385 3.04862,0.1941 2.28807,-0.19728 2.66676,0.77636 4.57612,1.55272 1.71526,0.78273 3.61826,2.14455 6.47277,1.56228 l 0.90378,-0.13046 c -1.57842,1.17091 -2.61585,3.07682 -2.61903,5.18637 -2.09395,-0.385 -2.85133,-1.16773 -4.7607,-2.33228 -1.71525,-1.16772 -2.66675,-2.91454 -4.75751,-3.69409 -0.56963,-0.19727 -2.29125,-0.58545 -3.23957,-0.58545 -2.28806,-0.003 -3.04544,2.13818 -2.09712,4.08545 0.76693,1.16773 0.76057,0.77318 2.09712,1.75 1.14244,1.16455 0.3787,2.72046 0.19412,3.69727 -0.57281,4.47682 0.76057,5.83864 1.71207,7.20364 1.90619,2.72364 4.57294,3.50318 4.38519,5.06227 -0.57281,3.89137 1.33338,6.03273 2.28806,6.42091 0.56963,0.1941 3.61508,-0.19727 3.61826,-4.865 0,-2.13818 0,-5.06227 0.76375,-7.00636 0.76056,-1.94409 1.90619,-1.94409 2.09394,-4.66773 1.09471,0.79546 2.49173,1.35864 3.99695,1.36182 0.35005,13.68182 -11.00434,19.53955 -21.52179,17.90091 -2.72722,-0.48682 -5.32078,-1.39682 -7.66612,-2.835 0.74784,-1.00227 1.18381,-2.24954 1.19017,-3.58909 -0.003,-3.30273 -2.66994,-6.03273 -6.10044,-6.02955 -3.23956,-0.003 -5.90313,2.71728 -5.90632,6.03273 0,3.30591 2.66994,6.03273 5.90632,6.03273 0.54417,-0.003 1.07244,-0.07 1.56887,-0.20046 1.48295,11.86501 -8.15938,20.20773 -19.221,13.33182 0.62692,-0.77 1.02151,-1.74045 1.06925,-2.8 1.73753,0.63637 6.9342,2.51682 8.20074,2.51364 1.52113,0 1.90301,-1.16773 1.90301,-1.94409 0.003,-0.77955 -0.75738,-1.55909 -1.52113,-2.33864 -0.76374,-0.77 -0.38506,-3.5 -1.14562,-5.25 -0.76057,-1.55273 -1.14245,-1.55273 -2.66994,-2.32909 -1.52113,-0.78591 -1.52113,-0.39136 -2.28488,-1.17409 -0.57281,-0.385 -1.13925,-1.55273 -1.14562,-2.33227 0.006,-0.77955 -0.75738,-1.16455 -0.75738,-1.16455 0,0 -1.14563,-0.39454 -1.90301,0.385 -0.76374,0.78273 -0.76374,1.94409 -0.76374,2.72364 0.003,1.26 -0.20049,4.67409 -0.30869,6.45909 -0.69056,-0.40409 -1.49568,-0.62046 -2.35808,-0.62046 l -0.52189,0.0223 c -0.21639,-1.53046 -0.62372,-4.55955 -0.62054,-6.24909 0.003,-2.33546 0.38505,-1.95364 -0.3787,-2.73319 -0.76374,-0.77 -1.90301,-0.38818 -2.66675,0.39773 -0.75738,0.77637 -2.666759,4.27955 -4.191069,4.28273 -2.28806,-0.006 -1.90619,-0.38818 -3.4305,0.38818 -1.52432,0.77636 -4.56976,4.08546 -4.56976,5.63818 0,1.55591 -0.003,0.77955 0.76057,1.55909 0.76056,0.77955 4.57612,-0.38818 7.61838,0.39455 1.25064,0.31818 2.367619,0.56636 3.252299,0.75409 -0.0159,0.40727 1.5084,1.38091 3.22365,2.73955 1.90937,1.55909 2.47582,2.33227 2.47582,2.33227 0.21958,-0.0382 0.43916,-0.0986 0.64282,-0.17182 2.53946,3.21046 6.7178,5.64455 11.73945,6.00727 l 1.71207,0.01 c 2.09075,-0.20046 4.382,-0.59182 6.66688,-1.55909 6.67007,-2.72682 5.52445,-13.62455 5.52445,-15.37773 1.52432,1.55909 4.00013,2.53273 6.67007,3.115 4.57294,0.97364 10.09739,0.58227 15.43089,-1.365 8.38214,-3.30909 9.90327,-14.98318 9.90327,-18.09818 0.38506,1.17091 3.24276,3.69727 7.23652,5.63818 4.38518,2.14454 10.28514,3.70364 15.4309,2.14454 8.38532,-2.33227 11.05525,-8.17409 14.86127,-13.62136 0.5728,0.77955 1.33019,1.75318 2.47263,2.72364 3.62144,2.91772 9.71551,6.41772 16.00052,5.83545 8.7672,-0.77954 15.04903,-9.73 16.57652,-12.06227 1.52432,2.33227 7.6184,11.28591 16.37922,12.05909 6.47595,0.58545 12.57321,-2.92091 16.19147,-6.03273 1.14562,-0.78591 1.90937,-1.75636 2.48218,-2.53273 3.80919,5.45046 6.47594,11.2891 15.04902,13.62137 5.14575,1.55591 10.85478,-0.003 15.243141,-2.14136 3.99696,-1.9441 6.85465,-4.47682 7.23334,-5.63819 0.003,3.11182 1.52749,14.78591 9.90645,18.09182 5.33351,1.95046 10.86113,2.33864 15.43408,1.36818 2.66993,-0.58863 5.14258,-1.55909 6.85783,-3.115 -0.003,1.74682 -1.14245,12.64773 5.33669,15.37137 2.28169,0.97682 4.56976,1.365 6.66687,1.55591 l 1.71208,0 c 5.02164,-0.36591 9.19998,-2.80318 11.73626,-6.01364 0.20685,0.0732 0.42961,0.13364 0.64283,0.17818 0,0 0.5728,-0.77954 2.47581,-2.33863 1.71207,-1.36182 3.23957,-2.33228 3.23957,-2.33228 0.87194,-0.59818 1.99211,-0.84954 3.23956,-1.16136 3.05182,-0.78273 6.85782,0.385 7.62476,-0.39136 0.75738,-0.77319 0.75738,0.003 0.75738,-1.55591 0,-1.55909 -3.04545,-4.865 -4.56976,-5.64455 -1.52432,-0.77954 -1.14562,-0.385 -3.42732,-0.38818 -1.52432,-0.003 -3.42732,-3.50318 -4.18789,-4.28273 -0.76056,-0.77 -1.90301,-1.15818 -2.66675,-0.38818 -0.76375,0.77318 -0.37869,0.38818 -0.38187,2.72364 0,1.69591 -0.40097,4.72182 -0.61736,6.25863 l -0.5219,-0.0318 c -0.86241,0.003 -1.66115,0.2259 -2.35808,0.61727 -0.10501,-1.78818 -0.30868,-5.18955 -0.30868,-6.45273 0,-0.78273 -0.003,-1.94409 -0.76056,-2.72045 -0.76375,-0.77955 -1.90619,-0.39137 -1.90619,-0.39137 0,0 -0.76375,0.38818 -0.76375,1.16455 0,0.78273 -0.576,1.94727 -1.14244,2.33545 -0.75738,0.77637 -0.76375,0.38818 -2.28807,1.17091 -1.52113,0.77955 -1.90619,0.77318 -2.66675,2.32909 -0.76375,1.75637 -0.37869,4.47682 -1.14243,5.25319 -0.76376,0.77954 -1.52432,1.5559 -1.52114,2.33227 -0.003,0.78273 0.37551,1.94409 1.903,1.95045 1.26338,-0.006 6.46005,-1.87727 8.19757,-2.51682 0.0477,1.05955 0.44871,2.03319 1.06925,2.8 -11.05208,6.87591 -20.54483,-1.47318 -19.18917,-13.33818 0.49325,0.13682 1.00878,0.21318 1.53703,0.21318 3.23957,0.003 5.90315,-2.72045 5.90633,-6.03591 0,-3.30591 -2.66676,-6.02954 -5.90314,-6.03272 -3.24275,0.003 -5.90314,2.72681 -5.90632,6.03272 0.003,1.34273 0.43915,2.58682 1.17108,3.59864 -2.38671,1.43182 -5.11075,2.33227 -7.83797,2.82864 -10.52381,1.82318 -21.70954,-4.19682 -21.69363,-17.90091 1.75662,-0.003 3.22366,-0.62682 4.33427,-1.64819 0.0223,3.01001 1.16472,3.00364 1.92528,4.95728 0.76375,1.93773 0.76375,4.865 0.76375,7.00318 0.003,4.67091 3.04863,5.06227 3.61507,4.865 0.95787,-0.39136 2.86088,-2.53273 2.29125,-6.42091 -0.19412,-1.55909 2.47582,-2.33545 4.38201,-5.06227 0.95468,-1.36182 2.28488,-2.72046 1.70888,-7.20046 -0.18775,-0.97682 -0.94514,-2.53272 0.19731,-3.70045 1.3302,-0.97046 1.33656,-0.58227 2.09712,-1.75 1.13926,-1.94409 0.19094,-4.08227 -2.09712,-4.08546 -0.95151,0 -2.66676,0.38819 -3.04545,0.58228 -2.28488,0.78272 -3.23957,2.53591 -4.95482,3.69727 -1.90937,1.17409 -2.66675,1.94727 -4.382,2.52954 -0.38188,-2.31 -1.42248,-4.20318 -3.00089,-5.38363 l 0.90376,0.13045 c 2.8577,0.58546 4.7607,-0.77636 6.66689,-1.54954 1.71525,-0.77955 2.09712,-1.75 4.37882,-1.55591 2.28806,0.19409 2.28806,0.19409 3.23956,-0.19728 0.76375,-0.58863 1.71526,-2.14136 1.33657,-2.72363 -0.3787,-0.97682 -1.71525,-1.75318 -3.80602,-2.33546 -1.52431,-0.19727 -1.52431,-0.19727 -3.04863,0.003 -1.71207,-0.003 -1.90619,-1.5591 -2.28487,-2.53273 -0.38506,-0.96727 -0.38188,-1.74364 -1.33657,-2.91773 -1.13607,-1.16773 -3.23956,-1.55273 -3.23956,-1.55273 0,0 -0.37869,-0.39454 -1.90301,-0.19409 -1.33656,0.003 -2.47581,0.19409 -3.23956,0.58228 -0.9515,0.38818 -1.71207,1.35863 -2.85133,0.19409 -0.95468,-1.365 -0.576,-1.36182 -1.90937,-2.14137 -1.71525,-1.16773 -3.04545,-0.97363 -4.00331,-0.58227 -0.56963,0.38818 -0.94833,1.75 -0.56963,2.72045 0.37869,0.97682 1.52431,2.33228 1.71207,2.72046 0.56962,2.33864 0.95468,2.92091 1.71207,4.86818 0.76056,1.95046 1.52431,3.30909 3.80919,5.05591 l 1.16154,0.79227 c -2.46945,-0.01 -4.3311,1.05637 -5.48945,2.67273 -0.82739,-1.95682 -2.32625,-3.66227 -2.91178,-5.01773 -0.95469,-1.94409 -1.14245,-3.88818 -1.33657,-6.22363 -0.37868,-4.67728 -3.23956,-4.865 -4.00331,-4.47682 -0.757381,0.39136 -1.903001,1.16773 -1.903001,5.44727 0,1.55591 -2.8577,1.36818 -4.57613,4.28909 -0.94832,1.36182 -2.66357,3.30591 -1.52114,7.77955 0.19094,0.97045 1.14245,2.72045 -0.003,3.89454 -1.13607,1.16455 -0.94831,1.75 -1.52431,3.115 -1.14244,1.9441 0.57281,4.47364 2.85769,4.27319 1.13926,-0.19728 2.2817,-1.35864 2.8577,-1.75319 2.66357,-1.75 3.23638,-1.94727 4.951631,-3.11181 1.71525,-1.365 2.47582,-1.365 4.19107,-2.14137 0.77647,-0.26409 1.40975,-0.48682 1.9221,-0.72863 0.31186,1.20272 0.96741,2.27818 1.84572,3.10863 -2.10667,2.58682 -4.51566,4.42273 -6.81645,5.59682 -11.838101,5.87046 -25.588751,-3.21364 -26.559351,-13.88545 4.03196,-0.51546 6.93739,-3.98046 6.93739,-8.10091 0.003,-4.47046 -3.42733,-8.17091 -8.00028,-8.1741 -4.37882,0.003 -8.00026,3.69728 -8.00344,8.17728 0,3.28363 1.95393,6.15363 4.72888,7.44227 -0.54099,1.015 -1.20927,2.01727 -1.87437,2.86682 -3.42413,4.67091 -9.33364,7.78273 -18.10083,6.42091 -8.78629,-1.28227 -11.88583,-9.42773 -12.70368,-12.25955 2.67948,-0.60773 4.90708,-2.55818 5.95723,-5.10363 0.1814,1.23454 0.63009,3.09272 1.79481,4.51818 1.14244,1.36182 2.66994,3.885 3.42733,5.44409 0.76693,1.55273 1.52431,3.115 2.29124,3.89773 0.76056,0.77 1.52431,0.77636 2.28807,0.77636 0.76056,-0.003 2.28487,-1.55591 2.28805,-3.115 -0.003,-1.55273 0.3787,-4.86182 0.76057,-5.44409 0.76056,-1.55909 4.18789,-2.72682 4.18789,-7.39455 -0.003,-4.67727 -2.66675,-5.45045 -3.42733,-7.00954 -0.38187,-0.77955 0.76058,-4.86182 0.75738,-6.42091 0,-1.55591 -1.13925,-3.115 -1.90617,-3.115 -1.52114,-0.003 -3.8092,1.365 -4.18472,2.33227 -0.76056,1.55591 -1.71843,2.52955 -3.0518,3.50636 -2.28489,1.75 -2.66675,2.32591 -3.80601,3.69091 -0.5569,0.68091 -0.91014,1.54955 -1.14245,2.45 -0.87513,-2.91136 -3.16955,-5.16091 -6.01133,-5.89272 l 1.06289,-0.25455 c 3.04225,-0.77318 4.57294,-2.33227 6.09725,-3.88818 1.52113,-1.55273 1.52431,-2.72364 3.80601,-3.50318 2.28488,-0.77955 2.28488,-0.77955 3.04863,-1.55591 0.75738,-0.77637 0.56963,-2.52955 -0.003,-3.115 -0.75738,-0.77637 -2.28487,-1.55591 -4.57294,-1.17091 -1.52431,0.39136 -1.52431,0.39136 -3.04544,1.17091 -1.52432,0.77636 -1.90619,0.39136 -2.66993,-0.38819 -0.76058,-0.77954 -1.71207,-2.72045 -3.04864,-3.50636 -1.52431,-0.77954 -2.66675,-0.77636 -2.66675,-0.77636 0,0 -1.14244,0.003 -2.66675,0.77954 -1.52432,0.77955 -2.47264,2.72046 -3.04545,3.50318 -0.95469,0.77637 -1.33656,1.16773 -2.8577,0.38819 -1.52431,-0.77637 -1.52431,-0.77637 -3.04862,-1.16773 -2.28489,-0.38818 -3.80601,0.39136 -4.56976,1.16773 -0.57282,0.58545 -0.76375,2.33545 -0.003,3.115 0.76374,0.77954 0.76056,0.77636 3.04862,1.55272 2.28489,0.78273 2.28807,1.9441 3.8092,3.50955 1.52432,1.55591 3.04863,3.115 6.29137,3.88818 l 1.01833,0.24182 c -2.88951,0.70955 -5.1903,2.88909 -6.11316,5.74 -0.25777,-0.83682 -0.63328,-1.63545 -1.19336,-2.28136 -0.19412,-0.385 -0.38505,-0.58228 -0.57599,-0.77955 -0.57282,-0.58545 -1.13926,-1.16454 -2.09077,-1.94727 -0.38186,-0.38818 -0.5728,-0.58546 -1.14562,-0.97046 -0.37869,-0.20045 -0.76057,-0.39136 -0.9515,-0.77954 -0.95787,-0.58227 -1.52432,-1.55591 -2.09712,-2.72046 -0.56964,-0.78272 -1.33338,-1.35863 -2.29125,-1.75318 -0.56963,-0.38818 -1.33019,-0.58863 -1.90301,-0.58227 -0.95468,0.385 -1.90301,1.75318 -1.90301,3.115 0,1.55273 1.13926,5.64454 0.76058,6.42409 -0.19094,0.39136 -0.76058,0.97682 -1.14244,1.365 -0.95469,0.97364 -1.90619,2.33227 -2.09713,5.05591 l 0,1.16773 c 0.18775,2.33545 1.14244,3.69409 2.09394,4.67091 0.76375,0.77636 1.52431,1.36182 1.90937,2.14136 0.38187,1.55273 0.76057,4.08546 0.76057,5.44727 0,1.16773 0.76056,2.33228 1.52431,2.72364 0.19094,0.20045 0.57282,0.39136 0.76056,0.39455 0.76376,0 1.14245,0 1.33657,-0.19728 0.37869,0.003 0.76374,-0.19727 0.9515,-0.58227 0.38187,-0.38818 0.95469,-0.97364 1.33975,-1.75636 0.37868,-0.58546 0.56962,-1.36182 0.94831,-2.135 0.38188,-0.59182 0.76376,-1.365 1.14244,-1.94409 0.76375,-1.17091 1.52431,-2.33864 2.10031,-3.31546 1.35566,-1.61955 1.80435,-3.47773 1.98257,-4.71227 1.06288,2.56772 3.34458,4.52772 6.1418,5.12273 -0.83057,2.84454 -3.95876,10.96772 -12.89143,12.24681 -8.38214,1.36182 -14.28527,-1.75 -17.90353,-6.42727 -0.67783,-0.86227 -1.35566,-1.88364 -1.90301,-2.92091 0.27686,-0.105 0.53144,-0.23227 0.75738,-0.385 0.78921,-0.40091 1.36202,-0.98318 1.93165,-1.76273 z"
           id="path27"
           inkscape:connector-curvature="0"
           style="fill:#ffffff" /><path
           d="m 37.516509,380.20818 0,0 z"
           id="path29"
           inkscape:connector-curvature="0"
           style="fill:#ffffff" /><path
           d="m 130.66835,311.5159 c 0,-5.63818 -4.38201,-10.30909 -9.90327,-10.31227 -5.52445,0.003 -9.90645,4.67091 -9.90964,10.31545 0,5.45046 4.38519,10.11818 9.90327,10.12137 5.53081,0 9.91282,-4.6741 9.90964,-10.12455 z"
           id="path31"
           inkscape:connector-curvature="0"
           style="fill:#ffffff" /><path
           d="m 126.28634,255.47771 c -0.003,-5.25636 -4.38201,-9.73318 -9.71552,-9.73 -5.33351,-0.003 -9.52139,4.47364 -9.52775,9.73 0,5.44728 4.19106,9.9241 9.53093,9.92091 5.33033,0 9.71234,-4.47363 9.71234,-9.92091 z"
           id="path33"
           inkscape:connector-curvature="0"
           style="fill:#ffffff" /><path
           d="m 110.66451,244.96817 c 0,-4.08546 -3.4305,-7.59182 -7.42746,-7.59182 -4.194251,0 -7.433821,3.50636 -7.433821,7.59182 0.003,4.27954 3.23957,7.58545 7.433821,7.58545 4.00332,0.003 7.42746,-3.30591 7.42746,-7.58545 z"
           id="path35"
           inkscape:connector-curvature="0"
           style="fill:#ffffff" /><path
           d="m 96.566979,240.68544 c 0.003,-3.89455 -3.23638,-7.20046 -7.04558,-7.20046 -4.00331,0 -7.23969,3.3091 -7.23969,7.20046 0,4.08227 3.23638,7.20045 7.23969,7.19091 3.80602,0.01 7.04558,-3.10227 7.04558,-7.19091 z"
           id="path37"
           inkscape:connector-curvature="0"
           style="fill:#ffffff" /><path
           d="m 81.903019,240.29726 c -0.003,-3.30591 -2.66995,-6.03273 -5.90314,-6.03273 -3.24275,0.003 -5.90632,2.72682 -5.90632,6.03273 0,3.31227 2.66994,6.03273 5.90314,6.03273 3.23637,0.003 5.90632,-2.72364 5.90632,-6.03273 z"
           id="path39"
           inkscape:connector-curvature="0"
           style="fill:#ffffff" /><path
           d="m 70.090379,241.4618 c 0,-3.30272 -2.66994,-6.02954 -5.90314,-6.03272 -3.24276,0.003 -5.90633,2.72681 -5.90633,6.03272 -0.003,3.30909 2.66677,6.03273 5.90315,6.03591 3.23638,0.003 5.90314,-2.72682 5.90632,-6.03591 z"
           id="path41"
           inkscape:connector-curvature="0"
           style="fill:#ffffff" /><path
           d="m 58.659609,244.57362 c -0.003,-2.52318 -1.90619,-4.46727 -4.382,-4.47045 -2.479,0 -4.38519,1.94727 -4.38519,4.47682 0.003,2.52636 1.90937,4.6709 4.38519,4.66772 2.47263,0 4.382,-2.14136 4.382,-4.67409 z"
           id="path43"
           inkscape:connector-curvature="0"
           style="fill:#ffffff" /><path
           d="m 50.274289,248.07999 c 0,-1.94091 -1.71207,-3.69728 -3.61826,-3.6941 -2.09713,0 -3.81238,1.75319 -3.80601,3.69728 0,2.13818 1.71526,3.88818 3.80919,3.88818 1.89983,0 3.61508,-1.75 3.61508,-3.89136 z"
           id="path45"
           inkscape:connector-curvature="0"
           style="fill:#ffffff" /><path
           d="m 43.419649,251.97453 c 0,-3.31227 -2.67312,-6.03273 -5.90632,-6.03273 -3.4305,0 -5.90314,2.72046 -5.90314,6.03273 0,3.5 2.47264,6.03273 5.90314,6.03273 3.23639,-0.006 5.90632,-2.53273 5.90632,-6.03273 z"
           id="path47"
           inkscape:connector-curvature="0"
           style="fill:#ffffff" /><path
           d="m 44.371149,265.01044 c 0.003,-3.89454 -3.04863,-7.00636 -6.85782,-7.00318 -3.81238,0.003 -7.04558,3.11182 -7.04558,7.00318 0.003,3.89455 3.23957,7.00637 7.05194,7.00637 3.80601,0.003 6.85465,-3.11182 6.85146,-7.00637 z"
           id="path49"
           inkscape:connector-curvature="0"
           style="fill:#ffffff" /><path
           d="m 45.895469,280.38181 c -0.003,-4.66773 -3.81238,-8.55591 -8.38533,-8.5591 -4.76069,0 -8.57306,3.89455 -8.56988,8.56228 -0.003,4.865 3.806,8.56545 8.57307,8.56227 4.57612,-0.003 8.37895,-3.69727 8.38214,-8.56545 z"
           id="path51"
           inkscape:connector-curvature="0"
           style="fill:#ffffff" /><path
           d="m 48.180349,299.64772 c 0,-6.02955 -4.7607,-10.89773 -10.67021,-10.89455 -5.90313,0 -10.85477,4.86182 -10.85477,10.90091 -0.003,6.02955 4.94846,10.89455 10.85477,10.89455 5.90633,-0.006 10.67021,-4.865 10.67021,-10.90091 z"
           id="path53"
           inkscape:connector-curvature="0"
           style="fill:#ffffff" /><path
           d="m 180.19742,359.38636 c -0.003,-4.86182 -4.00332,-8.95046 -8.95177,-8.95046 -4.958,0.003 -8.76401,4.08546 -8.76401,8.95046 -0.003,5.05909 3.80919,9.14772 8.75765,9.14772 4.958,0 8.95813,-4.08545 8.95813,-9.14772 z"
           id="path55"
           inkscape:connector-curvature="0"
           style="fill:#ffffff" /><path
           d="m 189.34012,342.64999 c 0,-5.63818 -4.57294,-10.11818 -10.09421,-10.115 -5.33987,-0.003 -9.90645,4.47364 -9.90327,10.12137 0.003,5.64136 4.57295,10.12136 9.90009,10.11818 5.52763,0 10.09739,-4.48 10.09739,-10.12455 z"
           id="path57"
           inkscape:connector-curvature="0"
           style="fill:#ffffff" /><path
           d="m 192.38875,324.36408 c -0.006,-5.25636 -4.19107,-9.34818 -9.34,-9.345 -4.94846,0 -9.14271,4.08546 -9.13953,9.33864 -0.006,5.06545 4.18789,9.345 9.14271,9.34182 5.14257,0.003 9.33682,-4.28273 9.33682,-9.33546 z"
           id="path59"
           inkscape:connector-curvature="0"
           style="fill:#ffffff" /><path
           d="m 188.76731,306.65408 c 0.003,-4.67409 -3.61825,-8.55909 -8.38532,-8.55909 -4.56976,-0.003 -8.38214,3.89136 -8.37896,8.55909 -0.003,4.865 3.81238,8.75636 8.38533,8.75 4.7607,0.01 8.38532,-3.88818 8.37895,-8.75 z"
           id="path61"
           inkscape:connector-curvature="0"
           style="fill:#ffffff" /><path
           d="m 181.52762,292.64135 c -0.003,-4.28273 -3.43051,-7.78591 -7.62476,-7.78273 -4.19106,-0.003 -7.61839,3.50637 -7.61839,7.78273 0,4.28273 3.42413,7.78591 7.61839,7.77955 4.19425,0.01 7.62476,-3.5 7.62476,-7.77955 z"
           id="path63"
           inkscape:connector-curvature="0"
           style="fill:#ffffff" /><path
           d="m 170.66966,282.13499 c 0.003,-3.69727 -3.04545,-6.80909 -6.66689,-6.81228 -3.62144,0.003 -6.66689,3.11501 -6.67007,6.81546 0.006,3.69409 3.05182,6.81227 6.67326,6.80909 3.61825,-0.003 6.66688,-3.11182 6.6637,-6.81227 z"
           id="path65"
           inkscape:connector-curvature="0"
           style="fill:#ffffff" /><path
           d="m 158.48151,276.29953 c 0,-3.30909 -2.66994,-6.03272 -5.90632,-6.03272 -3.23957,-0.003 -5.90314,2.72045 -5.90314,6.03272 0,3.31228 2.66675,6.03273 5.90314,6.03591 3.23956,-0.006 5.90314,-2.73 5.90632,-6.03591 z"
           id="path67"
           inkscape:connector-curvature="0"
           style="fill:#ffffff" /><path
           d="m 146.66569,273.9609 c 0,-2.91773 -2.28488,-5.25637 -5.14257,-5.25319 -2.85769,-0.003 -5.33988,2.33228 -5.33351,5.25319 0.003,2.92091 2.47582,5.25318 5.33351,5.25318 2.86087,0.003 5.14575,-2.33546 5.14257,-5.25318 z"
           id="path69"
           inkscape:connector-curvature="0"
           style="fill:#ffffff" /><path
           d="m -35.828781,311.5159 c 0.003,-5.63818 -4.38201,-10.30909 -9.90327,-10.31227 -5.52763,0.003 -9.90645,4.67091 -9.90963,10.31545 0.003,5.45046 4.38836,10.12137 9.90645,10.115 5.52763,0.006 9.90963,-4.66773 9.90645,-10.11818 z"
           id="path71"
           inkscape:connector-curvature="0"
           style="fill:#ffffff" /><path
           d="m -31.828651,255.4809 c 0,-5.25 -4.37882,-9.73319 -9.71552,-9.73319 -5.33351,0 -9.52457,4.47682 -9.52775,9.73319 0.003,5.45045 4.19106,9.92409 9.52775,9.92091 5.33988,0 9.71552,-4.47364 9.71552,-9.92091 z"
           id="path73"
           inkscape:connector-curvature="0"
           style="fill:#ffffff" /><path
           d="m -20.779751,244.97135 c 0,-4.08546 -3.23957,-7.59818 -7.43064,-7.595 -3.99695,0 -7.43064,3.50636 -7.43382,7.59182 0.003,4.28272 3.43687,7.58863 7.437,7.58863 4.19107,0.003 7.42746,-3.30591 7.42746,-7.58545 z"
           id="path75"
           inkscape:connector-curvature="0"
           style="fill:#ffffff" /><path
           d="m -7.248681,240.68544 c -0.006,-3.89136 -3.24275,-7.20364 -7.05195,-7.20046 -4.00013,-0.003 -7.23652,3.30591 -7.23332,7.19728 -0.003,4.08545 3.23637,7.20363 7.23651,7.20363 3.80919,0 7.04558,-3.115 7.04876,-7.20045 z"
           id="path77"
           inkscape:connector-curvature="0"
           style="fill:#ffffff" /><path
           d="m 4.939459,240.29408 c -0.003,-3.30591 -2.66993,-6.03273 -5.90312996,-6.03273 -3.24275004,0 -5.90633004,2.72364 -5.90633004,6.03273 0,3.31227 2.66358,6.03591 5.90315004,6.03272 3.23637996,0.006 5.90630996,-2.72045 5.90630996,-6.03272 z"
           id="path79"
           inkscape:connector-curvature="0"
           style="fill:#ffffff" /><path
           d="m 16.561159,241.46817 c 0.003,-3.31228 -2.47581,-6.03273 -5.71537,-6.03591 -3.23957,0.003 -5.90315,2.72682 -5.90315,6.03591 -0.003,3.31227 2.66994,6.02954 5.90315,6.03272 3.23638,0 5.71537,-2.72681 5.71537,-6.03272 z"
           id="path81"
           inkscape:connector-curvature="0"
           style="fill:#ffffff" /><path
           d="m 25.131059,244.5768 c 0,-2.52954 -2.09713,-4.47363 -4.57294,-4.47681 -2.47264,0.003 -4.38519,1.94727 -4.38519,4.48 0.003,2.53272 1.91255,4.6709 4.38519,4.66772 2.47899,0 4.57294,-2.13818 4.57294,-4.67091 z"
           id="path83"
           inkscape:connector-curvature="0"
           style="fill:#ffffff" /><path
           d="m 31.988879,248.07999 c 0,-1.94091 -1.71525,-3.69728 -3.81237,-3.69728 -1.90301,0 -3.61826,1.75637 -3.61826,3.70046 0,2.14136 1.71207,3.89136 3.61826,3.89136 2.09712,0 3.80919,-1.75318 3.81237,-3.89454 z"
           id="path85"
           inkscape:connector-curvature="0"
           style="fill:#ffffff" /><path
           d="m -94.306441,342.65317 c 0,-5.63818 -4.38838,-10.11818 -9.906449,-10.12136 -5.52126,0.003 -9.90327,4.47682 -9.90327,10.12136 -0.003,5.64773 4.38201,10.12773 9.90645,10.12137 5.514889,0 9.900089,-4.47682 9.903269,-10.12137 z"
           id="path87"
           inkscape:connector-curvature="0"
           style="fill:#ffffff" /><path
           d="m -99.261261,324.36408 c 0,-5.06227 -4.006489,-9.15091 -8.764009,-9.14773 -4.95482,0.006 -8.95494,4.09182 -8.95176,9.14455 0,4.865 3.99694,8.95046 8.95176,8.95364 4.7607,0.003 8.760829,-4.08546 8.764009,-8.95046 z"
           id="path89"
           inkscape:connector-curvature="0"
           style="fill:#ffffff" /><path
           d="m -97.167311,306.65408 c -0.003,-4.47364 -3.812379,-8.16773 -8.191199,-8.16773 -4.57295,-0.003 -8.1912,3.69409 -8.1912,8.17091 0,4.67091 3.62144,8.365 8.18802,8.365 4.382,0 8.194379,-3.69727 8.194379,-8.36818 z"
           id="path91"
           inkscape:connector-curvature="0"
           style="fill:#ffffff" /><path
           d="m -91.451931,292.64772 c -0.003,-4.08546 -3.43051,-7.595 -7.43381,-7.595 -4.000139,0.003 -7.430639,3.50954 -7.430639,7.59181 0,4.27955 3.43368,7.58546 7.433819,7.58546 4.0033,0.003 7.43063,-3.30273 7.43063,-7.58227 z"
           id="path93"
           inkscape:connector-curvature="0"
           style="fill:#ffffff" /><path
           d="m -82.309231,282.13817 c 0,-3.69727 -3.04544,-6.80909 -6.66688,-6.81227 -3.61508,0 -6.66689,3.115 -6.66371,6.81227 0,3.69727 3.04863,6.81227 6.66371,6.80909 3.61826,0 6.66688,-3.11182 6.66688,-6.80909 z"
           id="path95"
           inkscape:connector-curvature="0"
           style="fill:#ffffff" /><path
           d="m -71.635841,276.29953 c -0.003,-3.30591 -2.47901,-6.03272 -5.90633,-6.03272 -3.23956,0.003 -5.90631,2.72681 -5.90313,6.03272 -0.003,3.30909 2.66357,6.03273 5.90313,6.03273 3.42096,-0.006 5.90314,-2.72364 5.90633,-6.03273 z"
           id="path97"
           inkscape:connector-curvature="0"
           style="fill:#ffffff" /><path
           d="m -61.162951,273.95771 c 0,-2.91772 -2.28806,-5.24681 -5.14257,-5.25 -2.85769,0 -5.33669,2.33228 -5.33351,5.25 -0.003,2.9241 2.47264,5.26273 5.33351,5.25637 2.85133,0.006 5.14257,-2.32909 5.14257,-5.25637 z"
           id="path99"
           inkscape:connector-curvature="0"
           style="fill:#ffffff" /><path
           d="m 136.57466,271.62544 c 0,-5.64136 -4.57612,-10.12136 -10.10057,-10.11818 -5.52445,0.003 -9.90327,4.47682 -9.90327,10.12136 0.003,5.64137 4.382,10.12137 9.90327,10.11819 5.52126,-0.003 10.10057,-4.48 10.10057,-10.12137 z"
           id="path101"
           inkscape:connector-curvature="0"
           style="fill:#ffffff" /><path
           d="m 136.57466,271.62544 c 0,-5.64136 -4.57612,-10.12136 -10.10057,-10.11818 -5.52445,0.003 -9.90327,4.47682 -9.90327,10.12136 0.003,5.64137 4.382,10.12137 9.90327,10.11819 5.52126,-0.003 10.10057,-4.48 10.10057,-10.12137 z"
           id="path103"
           inkscape:connector-curvature="0"
           style="fill:#ffffff" /><path
           d="m 140.38386,292.25317 c 0,-6.42091 -5.14575,-11.67727 -11.61852,-11.67409 -6.28501,-0.003 -11.43714,5.25318 -11.43396,11.67727 0.003,6.42091 5.14577,11.67091 11.43396,11.67728 6.47595,-0.006 11.61534,-5.25637 11.61852,-11.68046 z"
           id="path105"
           inkscape:connector-curvature="0"
           style="fill:#ffffff" /><path
           d="m -41.919671,271.63181 c 0,-5.45046 -4.19107,-9.92728 -9.52777,-9.92728 -5.33351,-0.003 -9.71869,4.47682 -9.71551,9.92728 0,5.45045 4.37882,9.73318 9.71869,9.73 5.33352,-0.006 9.5214,-4.28273 9.52459,-9.73 z"
           id="path107"
           inkscape:connector-curvature="0"
           style="fill:#ffffff" /><path
           d="m -42.304731,292.64135 c 0,-6.42409 -5.14257,-11.67727 -11.43076,-11.67091 -6.2882,-0.003 -11.43077,5.25318 -11.42758,11.67091 0,6.42091 5.14256,11.67728 11.42758,11.67728 6.28819,0.003 11.43076,-5.25319 11.43076,-11.67728 z"
           id="path109"
           inkscape:connector-curvature="0"
           style="fill:#ffffff" /><path
           d="m 38.025679,387.62181 22.86153,-14.39772 -22.86153,-14.59501 -22.85835,14.59182 c 7.60883,4.77909 15.40226,9.36728 22.85835,14.40091 z"
           id="path111"
           inkscape:connector-curvature="0"
           style="fill:#ffffff" /><path
           d="m 38.022499,362.51408 c -5.61992,3.41091 -10.94069,7.46137 -16.76428,10.51591 l 16.76746,10.69728 16.57334,-10.70364 -16.57652,-10.50955 z"
           id="path113"
           inkscape:connector-curvature="0"
           style="fill:#ffffff" /><polygon
           transform="matrix(-3.1822845,0,0,3.1818184,1593.3576,-332.26139)"
           points="501.659,220.081 499.88,225.883 511.193,229.826 512.975,224.024 "
           id="polygon115"
           style="fill:#ffffff" /><polygon
           transform="matrix(-3.1822845,0,0,3.1818184,1593.3576,-332.26139)"
           points="502.162,221.361 500.995,225.145 510.692,228.545 511.859,224.764 "
           id="polygon117"
           style="fill:#ffffff" /><polygon
           transform="matrix(-3.1822845,0,0,3.1818184,1593.3576,-332.26139)"
           points="523.522,231.313 520.3,232.799 517.651,227.862 523.704,227.489 "
           id="polygon119"
           style="fill:#ffffff" /><path
           d="m -74.538091,392.58545 20.25206,0.42 -9.67097,15.88046 c -0.88467,1.55909 1.24109,3.29318 1.89983,2.61863 l 10.4188,-20.35409 c -0.14957,0.0764 -2.3167,-0.42955 -23.7303,-1.77864 -0.90694,-0.0827 -0.93559,3.16909 0.83058,3.21364 z"
           id="path121"
           inkscape:connector-curvature="0"
           style="fill:#ffffff" /><polygon
           transform="matrix(-3.1822845,0,0,3.1818184,1593.3576,-332.26139)"
           points="475.835,220.082 477.615,225.883 466.303,229.827 464.521,224.025 "
           id="polygon123"
           style="fill:#ffffff" /><polygon
           transform="matrix(-3.1822845,0,0,3.1818184,1593.3576,-332.26139)"
           points="475.332,221.361 476.5,225.145 466.805,228.546 465.638,224.765 "
           id="polygon125"
           style="fill:#ffffff" /><polygon
           transform="matrix(-3.1822845,0,0,3.1818184,1593.3576,-332.26139)"
           points="454.511,231.313 457.733,232.799 460.383,227.861 454.329,227.49 "
           id="polygon127"
           style="fill:#ffffff" /><path
           d="m 148.87737,392.58227 -20.25842,0.42318 9.67414,15.87727 c 0.88786,1.55909 -1.2379,3.29637 -1.90299,2.61864 l -10.41563,-20.35091 c 0.15275,0.0795 2.31989,-0.42 23.72711,-1.77545 0.91332,-0.0891 0.9356,3.1659 -0.82421,3.20727 z"
           id="path129"
           inkscape:connector-curvature="0"
           style="fill:#ffffff" /><path
           d="m -87.579091,359.39272 c 0,-4.86818 -4.00013,-8.95364 -8.95495,-8.95045 -4.951629,-0.003 -8.951769,4.08227 -8.951769,8.95045 -0.003,5.06546 4.00014,9.15091 8.951769,9.14773 4.95482,-0.003 8.95176,-4.08864 8.95495,-9.14773 z"
           id="path131"
           inkscape:connector-curvature="0"
           style="fill:#ffffff" /></g></g></g></svg>