<?xml version="1.0" encoding="UTF-8" standalone="no"?>
<svg
   xmlns:dc="http://purl.org/dc/elements/1.1/"
   xmlns:cc="http://creativecommons.org/ns#"
   xmlns:rdf="http://www.w3.org/1999/02/22-rdf-syntax-ns#"
   xmlns:svg="http://www.w3.org/2000/svg"
   xmlns="http://www.w3.org/2000/svg"
   viewBox="0 0 503 699.99997"
   height="700"
   width="503"
   xml:space="preserve"
   version="1.1"
   id="svg2"><metadata
     id="metadata8"><rdf:RDF><cc:Work
         rdf:about=""><dc:format>image/svg+xml</dc:format><dc:type
           rdf:resource="http://purl.org/dc/dcmitype/StillImage" /><dc:title></dc:title></cc:Work></rdf:RDF></metadata><defs
     id="defs6"><clipPath
       id="clipPath160"
       clipPathUnits="userSpaceOnUse"><path
         id="path162"
         d="m 286.387,146.705 c 0,-5.803 5.037,-10.507 11.251,-10.507 l 0,0 c 6.214,0 11.25,4.704 11.25,10.507 l 0,0 c 0,5.804 -5.036,10.507 -11.25,10.507 l 0,0 c -6.214,0 -11.251,-4.703 -11.251,-10.507" /></clipPath><clipPath
       id="clipPath166"
       clipPathUnits="userSpaceOnUse"><path
         id="path168"
         d="m 0,0 595.276,0 0,841.89 L 0,841.89 0,0 Z" /></clipPath></defs><g
     transform="matrix(1.25,0,0,-1.25,0,699.99995)"
     id="g10"><g
       transform="matrix(1.0006937,0,0,1,-280.78985,-130.40674)"
       id="g4606"><g
         id="g4596"><path
           id="path44"
           style="fill:#f04b41;fill-opacity:1;fill-rule:nonzero;stroke:none"
           d="m 280.5952,322.64852 c 0,106.17836 90.01565,192.25361 201.06642,192.25361 111.03897,0 201.05462,-86.07525 201.05462,-192.25361 0,-106.17836 -90.01565,-192.24182 -201.05462,-192.24182 -111.05077,0 -201.06642,86.06346 -201.06642,192.24182" /><path
           id="path154"
           style="fill:#ffffff;fill-opacity:1;fill-rule:nonzero;stroke:none"
           d="m 348.93159,322.69217 c 0,68.46144 59.42449,123.95733 132.72295,123.95733 73.31026,0 132.73475,-55.49589 132.73475,-123.95733 0,-68.46145 -59.42449,-123.95734 -132.73475,-123.95734 -73.29846,0 -132.72295,55.49589 -132.72295,123.95734" /><g
           transform="matrix(11.797595,0,0,11.797595,-3029.7534,-1408.0788)"
           id="g156"><g
             clip-path="url(#clipPath160)"
             id="g158"><g
               clip-path="url(#clipPath166)"
               id="g164"><path
                 id="path170"
                 style="fill:#0095da;fill-opacity:1;fill-rule:nonzero;stroke:none"
                 d="m 310.3068,153.2079 3.031,-3.034 -19.358,-19.358 -3.031,3.034 19.358,19.358 z" /><path
                 id="path172"
                 style="fill:#0095da;fill-opacity:1;fill-rule:nonzero;stroke:none"
                 d="m 305.8021,157.8906 3.031,-3.034 -19.358,-19.359 -3.031,3.035 19.358,19.358 z" /><path
                 id="path174"
                 style="fill:#0095da;fill-opacity:1;fill-rule:nonzero;stroke:none"
                 d="m 302.415,163.6923 3.031,-3.034 -19.358,-19.359 -3.032,3.035 19.359,19.358 z" /></g></g></g></g><g
         id="g4534"><g
           id="g4502"><path
             d="m 605.96344,434.20068 1.16796,0.27134 4.62466,12.7886 -0.84942,0.4601 -4.9432,-13.52004 z"
             style="fill:#100c0f;fill-opacity:1;fill-rule:nonzero;stroke:none"
             id="path46" /><path
             d="m 573.36669,453.77997 0.84942,1.42751 0.21236,19.1239 -0.57808,0.40112 -0.4837,-20.95253 z"
             style="fill:#100c0f;fill-opacity:1;fill-rule:nonzero;stroke:none"
             id="path48" /><path
             d="m 307.50552,324.38512 c 0,3.68085 3.73983,6.66564 8.3409,6.66564 4.60106,0 8.3291,-2.98479 8.3291,-6.66564 0,-3.68085 -3.72804,-6.65384 -8.3291,-6.65384 -4.60107,0 -8.3409,2.97299 -8.3409,6.65384"
             style="fill:#100c0f;fill-opacity:1;fill-rule:nonzero;stroke:none"
             id="path50" /><path
             d="m 324.29585,264.06992 c 9.10775,2.58367 15.06553,11.7622 12.7768,20.94073 l -2.9376,11.80939 -35.07425,-8.74202 2.9376,-11.80939 c 2.38311,-9.53246 12.83578,-14.87677 22.29745,-12.19871 m -2.13536,8.52966 c -4.97859,-1.42751 -11.06615,0.58988 -12.32849,5.62745 l -0.83763,3.38591 19.40705,4.83702 0.83763,-3.39771 c 1.17975,-4.73084 -2.38312,-9.09595 -7.07856,-10.45267"
             style="fill:#100c0f;fill-opacity:1;fill-rule:nonzero;stroke:none"
             id="path52" /><path
             d="m 326.62824,222.7453 7.04316,3.905 -6.26452,11.33749 6.00497,3.32692 5.10836,-9.21392 7.05497,3.90501 -5.10836,9.21392 4.4241,2.4657 5.99317,-10.8066 7.05497,3.9168 -10.19313,18.38065 -31.60575,-17.50763 10.48806,-18.92334 z"
             style="fill:#100c0f;fill-opacity:1;fill-rule:nonzero;stroke:none"
             id="path54" /><path
             d="m 383.40652,183.39678 c 2.59548,3.31512 2.21795,7.43248 -0.0708,10.97176 3.53928,-0.76684 6.77182,0.059 9.00156,2.91401 3.89321,4.97858 0.28315,11.31389 -5.16734,15.58462 l -7.69203,6.01678 -22.25027,-28.4794 8.39989,-6.57126 c 5.887,-4.60106 13.54364,-5.85161 17.77897,-0.43651 m 0.89662,17.79077 c -1.09717,-1.42751 -2.73704,-1.36852 -5.4033,0.70786 l -1.04998,0.81403 3.49209,4.47129 0.99099,-0.77864 c 2.66626,-2.07638 3.09097,-3.79883 1.9702,-5.21454 m -7.22013,-11.70321 c -1.56908,-1.99379 -4.07017,-1.17976 -6.96058,1.07358 l -1.09717,0.86122 4.23533,5.4151 1.09718,-0.86122 c 3.07917,-2.40671 4.23534,-4.54208 2.72524,-6.48868"
             style="fill:#100c0f;fill-opacity:1;fill-rule:nonzero;stroke:none"
             id="path56" /><path
             d="m 423.88054,154.26262 2.57187,37.62253 -6.70103,2.98479 -26.24965,-27.07548 7.14934,-5.29712 4.99038,5.75723 10.45267,-4.66005 -0.92021,-7.56226 8.70663,-1.76964 z m -6.74823,17.70819 -5.94599,2.65446 7.33811,8.47067 -1.39212,-11.12513 z"
             style="fill:#100c0f;fill-opacity:1;fill-rule:nonzero;stroke:none"
             id="path58" /><path
             d="m 468.74325,147.73147 -7.77461,12.94196 c 4.12915,1.4747 6.93698,4.88421 7.56225,8.8128 1.12078,7.13755 -5.01397,13.04815 -12.15152,14.16892 l -9.93357,1.58087 -5.65105,-35.69952 8.56505,-1.35672 1.86402,11.774 1.30954,-0.20056 8.05775,-14.57003 8.15214,2.54828 z m -8.90718,23.12329 c -0.40112,-2.56008 -3.42131,-3.53928 -5.98138,-3.13816 l -1.36853,0.22415 1.26235,7.96338 1.35672,-0.21236 c 3.98759,-0.63707 5.13196,-2.27694 4.73084,-4.83701"
             style="fill:#100c0f;fill-opacity:1;fill-rule:nonzero;stroke:none"
             id="path60" /><path
             d="m 511.1792,151.56687 -5.66284,5.75722 c -1.4983,-2.70165 -3.98759,-4.07017 -7.12575,-4.11736 -5.13196,0 -7.3617,5.71004 -7.70383,10.8184 -0.36573,5.09656 1.04998,10.87738 6.11115,11.774 3.04378,0.51909 5.52128,-0.28314 7.60945,-2.48929 l 4.83702,5.89879 c -3.76344,3.65726 -7.71563,4.89601 -13.00095,4.51848 -9.07235,-0.62527 -14.99475,-10.7594 -14.33408,-20.31546 0.67246,-9.55605 7.46788,-18.80536 17.02393,-18.1329 5.29712,0.36572 9.02516,2.13536 12.2459,6.28812"
             style="fill:#100c0f;fill-opacity:1;fill-rule:nonzero;stroke:none"
             id="path62" /><path
             d="m 550.60795,157.49634 -2.35952,7.71563 -12.38748,-3.78703 -2.00559,6.57126 10.07515,3.07917 -2.35952,7.72743 -10.07515,-3.09097 -1.4747,4.84881 11.7976,3.61006 -2.35952,7.71563 -20.1031,-6.15835 10.57064,-34.55515 20.68119,6.32351 z"
             style="fill:#100c0f;fill-opacity:1;fill-rule:nonzero;stroke:none"
             id="path64" /><path
             d="m 588.87345,177.03198 -3.9286,7.05496 -11.04255,-6.13475 -13.62622,24.5508 -7.58586,-4.19995 17.53123,-31.61755 18.652,10.34649 z"
             style="fill:#100c0f;fill-opacity:1;fill-rule:nonzero;stroke:none"
             id="path66" /><path
             d="m 610.59636,219.47619 c -6.73643,6.97237 -17.94414,9.46167 -24.91652,2.73704 -6.97238,-6.73643 -4.87241,-18.02673 1.87581,-24.99911 6.73643,-6.97238 17.94415,-9.46167 24.91653,-2.72524 6.97238,6.72463 4.86061,18.01493 -1.87582,24.98731 m -6.32351,-6.11116 c 4.18814,-4.32972 6.39429,-9.55605 2.66625,-13.16612 -3.71624,-3.59826 -8.87179,-1.21515 -13.07173,3.12637 -4.17635,4.32972 -6.3825,9.56785 -2.66626,13.16611 3.72804,3.59827 8.88359,1.20336 13.07174,-3.12636"
             style="fill:#100c0f;fill-opacity:1;fill-rule:nonzero;stroke:none"
             id="path68" /><path
             d="m 652.1758,250.76695 -31.60575,17.51943 -4.19995,-7.58586 17.90875,-9.92177 -23.93732,-0.93201 -4.21174,-7.58586 31.62935,-17.50763 4.19995,7.58585 -17.90875,9.92178 23.91372,0.92021 4.21174,7.58586 z"
             style="fill:#100c0f;fill-opacity:1;fill-rule:nonzero;stroke:none"
             id="path70" /><path
             d="m 665.27467,300.90437 -37.33939,-5.30892 -1.53368,-7.18473 31.95968,-20.03232 3.69265,8.08135 -6.66564,3.69265 2.37132,11.20771 7.59765,0.66067 -0.0826,8.88359 z m -15.92675,-10.2875 -1.34493,-6.35891 -9.81559,5.4033 11.16052,0.95561 z"
             style="fill:#100c0f;fill-opacity:1;fill-rule:nonzero;stroke:none"
             id="path72" /><path
             d="m 641.17573,320.52731 c 0,3.68085 3.73983,6.66564 8.3409,6.66564 4.60106,0 8.3291,-2.98479 8.3291,-6.66564 0,-3.68085 -3.72804,-6.66564 -8.3291,-6.66564 -4.60107,0 -8.3409,2.98479 -8.3409,6.66564"
             style="fill:#100c0f;fill-opacity:1;fill-rule:nonzero;stroke:none"
             id="path74" /><path
             d="m 628.54876,342.22899 7.82181,1.9584 -3.04378,12.2695 27.22885,6.79541 -2.09998,8.41169 -35.06245,-8.74202 5.15555,-20.69298 z"
             style="fill:#100c0f;fill-opacity:1;fill-rule:nonzero;stroke:none"
             id="path76" /><path
             d="m 637.11499,382.3762 c 8.39989,4.84881 13.53185,15.11272 8.68303,23.51261 -4.83701,8.39989 -16.29248,9.09595 -24.70416,4.24714 -8.38809,-4.84882 -13.50825,-15.11272 -8.67123,-23.51261 4.84881,-8.39989 16.30427,-9.09595 24.69236,-4.24714 m -4.3887,7.62125 c -5.21454,-3.02018 -10.83019,-3.89321 -13.41387,0.58988 -2.59547,4.49488 0.9674,8.90718 6.19374,11.92737 5.20274,3.02018 10.81839,3.88141 13.41387,-0.60168 2.59547,-4.48309 -0.9792,-8.90718 -6.19374,-11.91557"
             style="fill:#100c0f;fill-opacity:1;fill-rule:nonzero;stroke:none"
             id="path78" /><path
             d="m 625.63593,427.95149 -3.77523,8.10495 -16.78798,-4.8724 6.02858,16.42225 -7.82181,4.31792 -7.11395,-23.01711 -9.99256,-9.3201 5.99318,-6.45329 10.00436,9.3319 23.46541,5.48588 z"
             style="fill:#100c0f;fill-opacity:1;fill-rule:nonzero;stroke:none"
             id="path80" /><path
             d="m 572.58569,432.87699 19.14749,30.65015 -7.3617,4.58927 -10.83019,-17.36606 0.31854,23.94912 -7.34991,4.60106 -19.14749,-30.65015 7.3381,-4.60107 10.85379,17.37786 -0.31854,-23.94912 7.34991,-4.60106 z"
             style="fill:#100c0f;fill-opacity:1;fill-rule:nonzero;stroke:none"
             id="path82" /><path
             d="m 540.52336,453.1547 -3.99938,37.49276 -7.12575,1.78143 -21.14129,-31.22823 7.95158,-3.97579 3.9286,6.53587 11.11333,-2.77244 0.38932,-7.59765 8.88359,-0.23595 z m -9.72122,16.26888 -6.31171,1.56908 5.74543,9.62684 0.56628,-11.19592 z"
             style="fill:#100c0f;fill-opacity:1;fill-rule:nonzero;stroke:none"
             id="path84" /><path
             d="m 502.86072,484.69203 c 0,7.70383 -7.40889,12.95376 -15.12452,12.95376 l -10.06335,0 0,-36.14783 8.67123,0 0,10.24031 1.39212,0 c 7.71563,0 15.12452,5.24993 15.12452,12.95376 m -8.78921,0 c 0,-3.06738 -3.25614,-4.87241 -6.33531,-4.87241 l -1.39212,0 0,9.74482 1.39212,0 c 3.07917,0 6.33531,-1.79324 6.33531,-4.87241"
             style="fill:#100c0f;fill-opacity:1;fill-rule:nonzero;stroke:none"
             id="path86" /><path
             d="m 463.38124,471.29586 c -1.07358,5.30892 -5.34431,7.72742 -10.64143,9.19033 l -2.48929,0.70785 c -2.67805,0.71966 -4.9196,1.10898 -4.76623,3.29153 0.0944,1.30953 0.93201,2.53648 2.22975,2.81963 1.99379,0.4837 4.07017,0.60167 5.41509,-0.82584 l 3.90501,6.80722 c -3.36232,2.48929 -6.81901,2.79603 -10.99536,1.89941 -5.24993,-1.10897 -10.15773,-6.64205 -9.03696,-12.50545 1.10897,-5.79262 6.27632,-7.78641 11.99816,-9.52066 l 2.11177,-0.66067 c 1.78143,-0.54269 3.45669,-1.16796 3.78702,-3.00838 0.30674,-1.78144 -0.79044,-3.55108 -2.52468,-4.10557 -2.4775,-0.76684 -5.30892,-0.21235 -6.41789,2.08818 l -4.14096,-7.10215 c 3.51568,-3.25614 8.30551,-3.71625 12.23411,-2.87862 6.31171,1.33313 10.54705,7.46788 9.33189,13.80319"
             style="fill:#100c0f;fill-opacity:1;fill-rule:nonzero;stroke:none"
             id="path88" /><path
             d="m 431.77785,454.06901 -3.27974,7.3735 -11.84478,-5.26173 -2.78423,6.27632 9.62683,4.28253 -3.27973,7.3735 -9.63863,-4.28253 -2.05278,4.61286 11.29029,5.02577 -3.29153,7.3735 -19.20648,-8.55326 14.6998,-33.00967 19.76098,8.78921 z"
             style="fill:#100c0f;fill-opacity:1;fill-rule:nonzero;stroke:none"
             id="path90" /><path
             d="m 376.13213,446.85478 c -7.00777,6.35891 -17.95594,6.55946 -24.539,-0.24775 l -8.44708,-8.75381 26.0137,-25.10529 8.44708,8.75382 c 6.81901,7.05496 5.80441,18.75818 -1.4747,25.35303 m -6.09936,-6.32351 c 3.85781,-3.46849 5.36791,-9.69762 1.76964,-13.42566 l -2.4303,-2.51289 -14.38127,13.89757 2.4303,2.50109 c 3.38591,3.51568 8.97797,2.80782 12.61163,-0.46011"
             style="fill:#100c0f;fill-opacity:1;fill-rule:nonzero;stroke:none"
             id="path92" /><path
             d="m 357.02592,407.33166 -7.91618,-1.59268 c 1.4511,-2.73704 1.25054,-5.58026 -0.42472,-8.23472 -2.80783,-4.30612 -8.78921,-3.05558 -13.2605,-0.57808 -4.48308,2.48929 -8.55325,6.80721 -6.54766,11.54984 1.21515,2.83143 3.22074,4.47129 6.21733,5.01398 l -2.30053,7.27912 c -5.13195,-1.15617 -8.30551,-3.79883 -10.87738,-8.43528 -4.4123,-7.96338 0.86122,-18.45144 9.23752,-23.0879 8.37629,-4.64825 19.85535,-3.97579 24.4918,4.40051 2.56008,4.63645 3.11457,8.73022 1.38032,13.68521"
             style="fill:#100c0f;fill-opacity:1;fill-rule:nonzero;stroke:none"
             id="path94" /><path
             d="m 340.18485,376.94931 -13.46105,-6.8544 c -1.17976,4.23533 -4.37691,7.25552 -8.24652,8.15213 -7.04317,1.62807 -13.36668,-4.08196 -14.99474,-11.12513 l -2.26514,-9.8038 35.22762,-8.12854 1.9584,8.45887 -11.63243,2.67806 0.29494,1.28594 15.08912,7.01956 -1.9702,8.31731 z m -23.68957,-7.26732 c 2.52469,-0.58988 3.29153,-3.66905 2.72525,-6.19374 l -0.31854,-1.35672 -7.86899,1.81683 0.31853,1.35672 c 0.90842,3.9404 2.61907,4.95499 5.14375,4.37691"
             style="fill:#100c0f;fill-opacity:1;fill-rule:nonzero;stroke:none"
             id="path96" /><path
             d="m 323.67766,369.85659 0.40112,-1.29773 16.09192,8.3291 -0.31854,1.13257 -16.1745,-8.16394 z"
             style="fill:#100c0f;fill-opacity:1;fill-rule:nonzero;stroke:none"
             id="path144" /><path
             d="m 460.69021,160.9082 7.98697,-13.15432 1.03819,0.25955 -7.91618,13.48465 -1.10898,-0.58988 z"
             style="fill:#100c0f;fill-opacity:1;fill-rule:nonzero;stroke:none"
             id="path148" /><path
             d="m 505.46563,157.23443 5.69824,-5.66284 0.30673,0.4719 -5.72183,5.73363 -0.28314,-0.54269 z"
             style="fill:#100c0f;fill-opacity:1;fill-rule:nonzero;stroke:none"
             id="path150" /><path
             d="m 348.97996,406.13774 0.17697,-0.4837 7.86899,1.65166 -0.17696,0.61348 -7.869,-1.78144 z"
             style="fill:#100c0f;fill-opacity:1;fill-rule:nonzero;stroke:none"
             id="path152" /></g><g
           id="g4476"><path
             d="m 305.15189,322.48807 c 0,3.68085 3.72804,6.66564 8.32911,6.66564 4.61286,0 8.3409,-2.98479 8.3409,-6.66564 0,-3.68085 -3.72804,-6.66564 -8.3409,-6.66564 -4.60107,0 -8.32911,2.98479 -8.32911,6.66564"
             style="fill:#fec02d;fill-opacity:1;fill-rule:nonzero;stroke:none"
             id="path98" /><path
             d="m 638.95306,322.48807 c 0,3.68085 3.72804,6.66564 8.3409,6.66564 4.58926,0 8.3291,-2.98479 8.3291,-6.66564 0,-3.68085 -3.73984,-6.66564 -8.3291,-6.66564 -4.61286,0 -8.3409,2.98479 -8.3409,6.66564"
             style="fill:#fec02d;fill-opacity:1;fill-rule:nonzero;stroke:none"
             id="path100" /><path
             d="m 354.55551,406.59077 -7.91619,-1.60448 c 1.4511,-2.73704 1.25054,-5.59206 -0.41292,-8.23472 -2.80782,-4.30612 -8.78921,-3.04378 -13.27229,-0.56628 -4.48309,2.47749 -8.55326,6.80721 -6.54767,11.53805 1.21516,2.83142 3.23254,4.47129 6.21734,5.02577 l -2.30054,7.26732 c -5.12015,-1.15616 -8.3055,-3.79882 -10.87738,-8.43528 -4.4005,-7.95158 0.86123,-18.45144 9.24932,-23.08789 8.37629,-4.63646 19.84355,-3.97579 24.48001,4.4123 2.56007,4.63645 3.12636,8.73022 1.38032,13.68521"
             style="fill:#fec02d;fill-opacity:1;fill-rule:nonzero;stroke:none"
             id="path102" /><path
             d="m 372.99515,446.73091 c -7.00777,6.3471 -17.95594,6.54766 -24.5272,-0.25955 l -8.45888,-8.75382 26.0137,-25.09348 8.43528,8.74202 c 6.83081,7.06676 5.81621,18.75817 -1.4629,25.36483 m -6.09936,-6.32351 c 3.84602,-3.4685 5.35611,-9.70943 1.76964,-13.43747 l -2.43031,-2.50109 -14.39306,13.87398 2.4303,2.51288 c 3.39771,3.51569 8.97797,2.80783 12.62343,-0.4483"
             style="fill:#fec02d;fill-opacity:1;fill-rule:nonzero;stroke:none"
             id="path104" /><path
             d="m 571.73508,435.74617 19.1475,30.65015 -7.34991,4.60106 -10.84199,-17.36606 0.31854,23.94912 -7.3617,4.60106 -19.1475,-30.65015 7.3499,-4.60106 10.86559,17.36606 -0.33033,-23.94912 7.3499,-4.60106 z"
             style="fill:#fec02d;fill-opacity:1;fill-rule:nonzero;stroke:none"
             id="path106" /><path
             d="m 538.23463,455.24641 -3.99939,37.49276 -7.12574,1.79323 -21.1295,-31.24003 7.93978,-3.97579 3.9286,6.54767 11.10154,-2.78424 0.40112,-7.59765 8.88359,-0.23595 z m -9.73302,16.26888 -6.31171,1.58088 5.76902,9.61504 0.54269,-11.19592 z"
             style="fill:#fec02d;fill-opacity:1;fill-rule:nonzero;stroke:none"
             id="path108" /><path
             d="m 500.56491,486.78374 c 0,7.70383 -7.40889,12.95376 -15.11272,12.95376 l -10.05156,0 0,-36.14783 8.65944,0 0,10.25211 1.39212,0 c 7.70383,0 15.11272,5.23813 15.11272,12.94196 m -8.78921,0 c 0,-3.06737 -3.25614,-4.8724 -6.32351,-4.8724 l -1.39212,0 0,9.75661 1.39212,0 c 3.06737,0 6.32351,-1.80503 6.32351,-4.88421"
             style="fill:#fec02d;fill-opacity:1;fill-rule:nonzero;stroke:none"
             id="path110" /><path
             d="m 461.55026,473.25662 c -1.08538,5.32072 -5.34431,7.72742 -10.64143,9.19033 l -2.4893,0.70785 c -2.68985,0.71966 -4.91959,1.10898 -4.76622,3.29153 0.0944,1.30953 0.93201,2.53648 2.24154,2.81963 1.9702,0.4837 4.04657,0.61347 5.3915,-0.82583 l 3.9168,6.80721 c -3.36231,2.48929 -6.81901,2.80783 -10.99536,1.91121 -5.24993,-1.10898 -10.16952,-6.65385 -9.03696,-12.50545 1.10898,-5.80442 6.27632,-7.78642 11.99816,-9.53246 l 2.11177,-0.66067 c 1.76964,-0.54268 3.4449,-1.16796 3.78703,-3.00838 0.30673,-1.78144 -0.79044,-3.55108 -2.51289,-4.10557 -2.48929,-0.77864 -5.32072,-0.21235 -6.42969,2.08818 l -4.15275,-7.10215 c 3.52748,-3.25614 8.3055,-3.71625 12.2577,-2.87862 6.29991,1.33313 10.53525,7.47968 9.3201,13.80319"
             style="fill:#fec02d;fill-opacity:1;fill-rule:nonzero;stroke:none"
             id="path112" /><path
             d="m 428.90041,454.9845 -3.27973,7.3853 -11.83299,-5.27353 -2.79603,6.27632 9.62684,4.28253 -3.27973,7.3735 -9.63864,-4.28253 -2.05278,4.61286 11.2785,5.02578 -3.27973,7.37349 -19.20648,-8.55325 14.7116,-33.00967 19.74917,8.7892 z"
             style="fill:#fec02d;fill-opacity:1;fill-rule:nonzero;stroke:none"
             id="path114" /><path
             d="m 625.70082,431.02477 -3.77523,8.10495 -16.77618,-4.86061 6.01677,16.41045 -7.8218,4.31792 -7.11395,-23.01711 -9.99257,-9.3319 6.00498,-6.42968 9.99256,9.33189 23.46542,5.47409 z"
             style="fill:#fec02d;fill-opacity:1;fill-rule:nonzero;stroke:none"
             id="path116" /><path
             d="m 636.92623,385.28195 c 8.39989,4.84881 13.53184,15.11272 8.68303,23.51261 -4.84881,8.39989 -16.29248,9.09594 -24.71596,4.24713 -8.37629,-4.84881 -13.50825,-15.11272 -8.67123,-23.5126 4.86061,-8.39989 16.31607,-9.09595 24.70416,-4.24714 m -4.4005,7.62125 c -5.20274,-3.02019 -10.83019,-3.88141 -13.40207,0.60167 -2.59547,4.48309 0.95561,8.90719 6.18194,11.92737 5.21454,3.00839 10.83019,3.88141 13.42566,-0.60167 2.58368,-4.49489 -0.9792,-8.91899 -6.20553,-11.92737"
             style="fill:#fec02d;fill-opacity:1;fill-rule:nonzero;stroke:none"
             id="path118" /><path
             d="m 630.04587,344.91648 7.83361,1.9584 -3.05558,12.2695 27.22885,6.79541 -2.09997,8.41169 -35.06245,-8.74202 5.15554,-20.69298 z"
             style="fill:#fec02d;fill-opacity:1;fill-rule:nonzero;stroke:none"
             id="path120" /><path
             d="m 325.73398,266.81522 c 9.09595,2.58367 15.06553,11.7622 12.7768,20.94073 l -2.93761,11.80939 -35.07425,-8.74202 2.9494,-11.80939 c 2.37132,-9.52066 12.82399,-14.86497 22.28566,-12.19871 m -2.12357,8.52966 c -4.99038,-1.42751 -11.08974,0.58988 -12.32848,5.62745 l -0.84943,3.38591 19.40704,4.83702 0.83763,-3.38591 c 1.17976,-4.74264 -2.38311,-9.10775 -7.06676,-10.46447"
             style="fill:#fec02d;fill-opacity:1;fill-rule:nonzero;stroke:none"
             id="path122" /><path
             d="m 327.47884,225.82565 7.05497,3.90501 -6.27632,11.32569 6.00497,3.32692 5.09656,-9.21392 7.06676,3.905 -5.10836,9.22572 4.4241,2.4539 5.99318,-10.8066 7.05496,3.9168 -10.18132,18.39246 -31.61756,-17.51943 10.48806,-18.91155 z"
             style="fill:#fec02d;fill-opacity:1;fill-rule:nonzero;stroke:none"
             id="path124" /><path
             d="m 383.01249,186.53494 c 2.59547,3.32692 2.21794,7.44428 -0.0708,10.98356 3.53928,-0.77864 6.77182,0.0472 9.01336,2.90221 3.88141,4.97858 0.27135,11.32569 -5.17914,15.58462 l -7.68024,6.01678 -22.26206,-28.4794 8.39989,-6.55946 c 5.887,-4.61286 13.55544,-5.86341 17.77898,-0.44831 m 0.89661,17.79077 c -1.09717,-1.42751 -2.73704,-1.36852 -5.4033,0.71966 l -1.03818,0.81403 3.48029,4.45949 1.00279,-0.77864 c 2.65446,-2.07638 3.07917,-3.78703 1.9584,-5.21454 m -7.22013,-11.69141 c -1.55728,-2.00559 -4.07017,-1.19156 -6.96058,1.07358 l -1.09717,0.84942 4.23533,5.4151 1.09718,-0.84943 c 3.07917,-2.4185 4.24713,-4.55387 2.72524,-6.48867"
             style="fill:#fec02d;fill-opacity:1;fill-rule:nonzero;stroke:none"
             id="path126" /><path
             d="m 421.9186,156.74719 2.58367,37.62253 -6.72463,2.99659 -26.22606,-27.08728 7.13755,-5.29712 5.00218,5.75723 10.45267,-4.66005 -0.93201,-7.56226 8.70663,-1.76964 z m -6.73643,17.70819 -5.95779,2.65446 7.33811,8.47067 -1.38032,-11.12513 z"
             style="fill:#fec02d;fill-opacity:1;fill-rule:nonzero;stroke:none"
             id="path128" /><path
             d="m 466.83912,150.15823 -7.76282,12.94197 c 4.14096,1.4747 6.92519,4.8724 7.55046,8.801 1.13257,7.13755 -5.01398,13.05994 -12.15152,14.18071 l -9.93358,1.56908 -5.63925,-35.68772 8.56506,-1.35673 1.85222,11.774 1.30953,-0.20056 8.06956,-14.58182 8.14034,2.56007 z m -8.89539,23.12329 c -0.40112,-2.56008 -3.4331,-3.53928 -5.99318,-3.13816 l -1.36852,0.21236 1.27414,7.97517 1.35673,-0.21235 c 3.98758,-0.63707 5.12015,-2.28874 4.73083,-4.83702"
             style="fill:#fec02d;fill-opacity:1;fill-rule:nonzero;stroke:none"
             id="path130" /><path
             d="m 508.89165,153.13713 -5.66285,5.75722 c -1.49829,-2.68985 -3.98758,-4.08196 -7.13754,-4.11736 -5.13196,0.0118 -7.3499,5.71004 -7.70383,10.8184 -0.36573,5.09656 1.04998,10.87738 6.12295,11.774 3.04378,0.51909 5.52127,-0.28314 7.59765,-2.48929 l 4.84881,5.89879 c -3.76343,3.66906 -7.71562,4.89601 -13.00095,4.53028 -9.07235,-0.63707 -15.00654,-10.7712 -14.33408,-20.32726 0.66067,-9.55605 7.46788,-18.79357 17.02393,-18.1329 5.29712,0.36572 9.03696,2.13536 12.24591,6.28812"
             style="fill:#fec02d;fill-opacity:1;fill-rule:nonzero;stroke:none"
             id="path132" /><path
             d="m 547.79658,158.80351 -2.35952,7.71563 -12.38748,-3.78703 -2.00559,6.57126 10.07515,3.09097 -2.35952,7.71563 -10.07515,-3.09097 -1.48649,4.84881 11.80939,3.61007 -2.37132,7.71562 -20.0913,-6.14654 10.57064,-34.56696 20.68119,6.32351 z"
             style="fill:#fec02d;fill-opacity:1;fill-rule:nonzero;stroke:none"
             id="path134" /><path
             d="m 607.79915,220.12977 c -6.73643,6.97238 -17.94414,9.47347 -24.91652,2.73704 -6.97238,-6.73642 -4.87241,-18.02672 1.87582,-24.9991 6.72462,-6.97238 17.92054,-9.46167 24.90472,-2.72524 6.98418,6.72462 4.87241,18.01492 -1.86402,24.9873 m -6.33531,-6.11115 c 4.18815,-4.32972 6.40609,-9.55605 2.67805,-13.16612 -3.72804,-3.59826 -8.88359,-1.20335 -13.07173,3.13816 -4.17635,4.32972 -6.3943,9.55605 -2.66626,13.15432 3.72804,3.59827 8.87179,1.21515 13.05994,-3.12636"
             style="fill:#fec02d;fill-opacity:1;fill-rule:nonzero;stroke:none"
             id="path136" /><path
             d="m 585.93113,177.81652 -3.90501,7.05496 -11.07794,-6.13475 -13.60263,24.5508 -7.58585,-4.19995 17.51943,-31.60576 18.652,10.3347 z"
             style="fill:#fec02d;fill-opacity:1;fill-rule:nonzero;stroke:none"
             id="path138" /><path
             d="m 663.30566,298.41154 -37.33939,-5.30892 -1.52189,-7.18474 31.94788,-20.02052 3.69265,8.08136 -6.66564,3.69264 2.38311,11.19592 7.58586,0.66067 -0.0826,8.88359 z m -15.91496,-10.27571 -1.35672,-6.3707 -9.8156,5.4151 11.17232,0.9556 z"
             style="fill:#fec02d;fill-opacity:1;fill-rule:nonzero;stroke:none"
             id="path140" /><path
             d="m 649.29837,249.85145 -31.61756,17.51943 -4.19994,-7.58585 17.90875,-9.92178 -23.92552,-0.93201 -4.19995,-7.58585 31.61756,-17.51943 4.19994,7.59765 -17.92054,9.92178 23.93732,0.93201 4.19994,7.57405 z"
             style="fill:#fec02d;fill-opacity:1;fill-rule:nonzero;stroke:none"
             id="path142" /><path
             d="m 337.67197,375.25635 -13.44926,-6.8544 c -1.19156,4.23534 -4.38871,7.25552 -8.25832,8.15214 -7.04316,1.62807 -13.37847,-4.08197 -14.99474,-11.12513 l -2.26514,-9.8038 35.22762,-8.12855 1.9466,8.45888 -11.62063,2.67805 0.29494,1.29774 15.08912,7.00777 -1.97019,8.3173 z m -23.68958,-7.26731 c 2.51289,-0.58988 3.29153,-3.66906 2.72525,-6.19374 l -0.31854,-1.35673 -7.86899,1.82863 0.31853,1.34493 c 0.90842,3.94039 2.63087,4.95499 5.14375,4.37691"
             style="fill:#fec02d;fill-opacity:1;fill-rule:nonzero;stroke:none"
             id="path146" /></g></g><g
         id="g4468"><path
           id="path42"
           style="fill:#fec02d;fill-opacity:1;fill-rule:nonzero;stroke:none"
           d="m 476.40815,690.4067 7.71563,0 0,-7.56226 7.17293,0 0,-7.55046 -7.17293,0 0,-7.26732 c 6.57126,-1.84042 12.02175,-6.8426 13.14252,-14.44026 0.33033,-2.21794 0.0354,-4.36511 -0.0944,-6.28811 3.18535,0.44831 6.22913,1.40391 9.74481,1.67525 11.17232,0.88482 21.43623,-3.24433 27.58278,-7.95157 1.92301,-1.4747 4.44769,-3.69265 5.98138,-5.59206 0.27134,-0.36573 2.06458,-2.78424 2.28873,-2.85502 0.4837,-0.14157 6.04037,2.00559 7.17294,2.26514 4.56567,1.01459 10.87738,1.22695 15.80878,0.37752 11.31389,-1.91121 19.93794,-7.63305 25.64797,-15.60822 2.09997,-2.91401 4.14096,-5.55667 5.52128,-9.3201 1.38031,-3.77523 3.04378,-7.78641 3.3977,-12.765 0.83763,-11.97456 -2.01739,-21.73117 -4.96678,-30.04847 -3.19715,-9.02516 -7.52687,-17.51943 -12.41107,-24.84574 -2.30054,-3.4567 -3.52749,-5.93419 -7.07856,-8.15214 0.68426,-1.4629 1.82863,-2.52468 2.39491,-4.11736 2.14716,-6.07576 -0.17696,-11.65602 -3.58647,-14.7234 -3.39771,-3.06737 -8.10495,-5.35611 -13.79139,-5.8988 -11.57344,-1.09717 -23.34744,5.36791 -23.34744,16.39866 -2.04098,-1.69885 -4.18815,-3.57467 -6.80721,-4.61286 -12.67062,-5.03757 -26.94571,-0.62527 -30.88611,10.70042 -1.22695,-1.85222 -2.37131,-3.72804 -4.03477,-5.10836 -7.76282,-6.39429 -22.84015,-6.40609 -30.61476,0 -1.63987,1.35673 -2.79603,3.24434 -4.03478,5.00218 -0.60168,-1.68705 -1.13257,-3.25613 -2.04099,-4.60106 -7.12574,-10.62963 -26.4738,-11.03075 -35.38098,-1.9702 -0.73146,-6.91339 -3.31513,-10.22851 -8.09315,-13.05994 -10.73582,-6.3471 -28.36142,-3.48029 -32.17205,7.76282 -1.03819,3.03198 -1.09717,7.07856 0.17697,10.00436 0.55448,1.28594 1.48649,2.34772 2.21794,3.4449 -4.896,3.04378 -8.17573,9.54426 -11.03075,14.82958 -6.46508,11.92737 -12.19871,23.74856 -13.42566,41.33877 -0.27135,3.89321 0,7.95158 0.63707,11.18412 3.30333,16.85877 15.65541,29.39961 31.44059,32.99788 0.86123,0.20056 1.63987,0.22415 2.57188,0.38932 2.13536,0.40112 4.84881,0.87302 7.44428,0.58988 l 0.18876,0 c 2.06458,-0.24775 4.15275,-0.31854 6.33531,-0.68426 2.09997,-0.35393 4.24713,-1.07358 6.15834,-1.76964 0.47191,-0.16517 1.4983,-0.90842 2.02919,-0.77864 l 0.0944,0.18876 c 2.52469,2.38311 4.61286,5.28532 7.26732,7.56226 6.06396,5.20274 15.08913,8.95437 25.82494,8.93078 4.3887,0 8.11674,-0.95561 11.95096,-1.56908 -2.02919,8.18753 2.79603,15.6672 7.26732,18.55761 1.72245,1.12077 3.69265,1.76964 5.69824,2.65446 l 0,7.17294 -7.3617,0 0,7.55046 7.3617,0 c 0,2.48929 0,5.24993 0.0944,7.56226" /><g
           id="g4462"><path
             d="m 402.03367,610.57701 c -6.55946,-0.47191 -10.99536,-3.50389 -13.79139,-8.04596 -4.96678,-8.08136 -1.39211,-22.89913 1.38032,-30.73274 1.4747,-4.18814 3.71625,-8.06955 5.78082,-11.7858 1.38032,-2.4539 3.12637,-4.77802 4.70724,-7.06675 2.17076,-3.16176 4.9196,-6.13475 4.31792,-11.98636 2.66626,-0.41292 4.63646,-0.66067 6.70104,-1.27414 3.65725,-1.07358 6.13475,-3.36232 8.8246,-5.4033 0,4.17635 1.42751,6.70103 3.20895,8.94258 0.9674,1.20335 1.98199,2.24154 3.23254,3.13816 0.55448,0.40112 1.02639,0.73145 1.65166,1.08538 -0.66067,0.56628 -1.34493,1.29773 -1.92301,1.9584 -2.4421,2.74884 -3.83422,7.00777 -5.42689,10.60603 -4.75443,10.73582 -8.93078,21.84915 -10.67683,35.93548 -0.51909,4.29432 -0.79043,9.17853 -0.17696,13.64982 -2.17076,0.68426 -5.48588,1.15616 -7.81001,0.9792"
             style="fill:#f04b41;fill-opacity:1;fill-rule:nonzero;stroke:none"
             id="path184" /><path
             d="m 505.54223,624.42502 c -5.00218,-0.40111 -9.17853,-1.89941 -12.87117,-3.72804 l 0,-43.01403 0,-13.15432 c 0,-2.18255 0.10617,-4.47128 -0.17697,-6.38249 -0.35393,-2.26514 -1.27414,-4.22354 -2.30053,-5.79262 5.79262,-2.91401 8.08135,-4.9078 10.85379,-11.08974 2.37131,4.896 7.13754,7.68023 12.68241,9.22572 -0.31853,1.62806 -0.88482,3.16175 -0.74325,5.20274 0.28315,4.02298 2.12357,6.63024 3.39771,9.52065 1.27414,2.89042 2.54828,5.74543 3.77523,8.64764 3.59827,8.55326 10.13414,28.18446 5.60386,39.66352 -1.07358,2.72524 -2.85502,4.64825 -4.87241,6.39429 -3.50388,3.00839 -8.58865,5.04937 -15.34867,4.50668"
             style="fill:#f04b41;fill-opacity:1;fill-rule:nonzero;stroke:none"
             id="path186" /><path
             d="m 452.96271,623.93778 c -27.11087,-2.17075 -19.643,-30.55577 -12.69421,-49.29035 1.22695,-3.31512 2.79603,-6.53587 4.23533,-9.72122 2.18256,-4.8724 4.37691,-7.96337 2.66626,-14.92395 4.57747,-0.95561 8.8482,-3.50389 11.3021,-6.78362 0.61347,-0.81404 1.02639,-1.65167 1.74604,-2.34772 0.14157,0.54269 0.22416,0.92021 0.37752,1.36852 1.61628,5.00218 5.86341,7.66843 10.19313,9.8156 -0.87303,1.48649 -1.84043,3.11456 -2.20615,5.10836 -0.80224,4.34151 -0.17697,10.73581 -0.17697,15.51383 l 0,33.09226 c 0,4.74263 0.37753,9.96896 -0.0944,14.52284 -4.29432,1.71065 -9.23752,4.12915 -15.34867,3.64545"
             style="fill:#f04b41;fill-opacity:1;fill-rule:nonzero;stroke:none"
             id="path188" /><path
             d="m 557.47996,611.26717 c -2.19435,-0.17697 -4.30612,-0.42472 -6.07576,-0.9792 0.66067,-4.71904 0.27135,-10.03976 -0.25954,-14.44026 -1.65167,-13.35488 -5.66285,-24.5154 -10.39369,-34.66133 -1.78143,-3.81063 -3.3977,-8.95438 -6.15834,-11.67962 -1.56908,-1.54549 -2.00559,-0.9792 0,-2.4539 1.03819,-0.77864 1.87582,-1.53369 2.76064,-2.4539 1.66346,-1.75784 2.9494,-3.71625 3.58647,-6.58306 0.14157,-0.67246 0.27134,-1.59268 0.36572,-2.34772 0,-0.0944 -0.0944,-0.37753 -0.0944,-0.30674 0.0118,-0.059 0.0708,-0.38932 0.0944,-0.38932 0.0944,-0.0236 0.29494,0.059 0.36573,0.0944 0.99099,0.66067 1.81683,1.85222 2.84322,2.56008 3.07917,2.11177 7.55046,3.83422 12.41107,3.83422 -0.23595,6.3353 2.26514,9.2847 4.8724,12.76499 1.56908,2.07638 3.09097,4.38871 4.4123,6.66565 0.47191,0.81403 0.83763,1.59267 1.28594,2.37131 0.38932,0.66067 0.77864,1.38032 1.10898,2.05278 0.33033,0.69606 0.69605,1.30954 1.01459,1.9584 0.29494,0.62528 0.55449,1.19156 0.82583,1.76964 0.25955,0.58988 0.40112,1.06179 0.63707,1.66346 0.18876,0.46011 0.46011,0.90842 0.64887,1.38032 0.18876,0.5191 0.25955,0.92022 0.44831,1.4747 0.14157,0.38932 0.30673,0.80224 0.4719,1.27414 0.0944,0.31854 0.24775,0.62528 0.36573,0.9792 1.16796,3.63366 2.20615,7.72743 2.57187,12.08074 0.0236,0.36573 0.18876,2.35952 0.0944,2.35952 0.17697,4.76623 0.059,8.71842 -1.75784,12.2695 -0.41291,0.84942 -1.17976,1.54548 -1.74604,2.26514 -2.92581,3.71624 -7.92799,7.01957 -14.69981,6.47688"
             style="fill:#f04b41;fill-opacity:1;fill-rule:nonzero;stroke:none"
             id="path190" /></g></g></g></g></svg>