<?xml version="1.0" encoding="UTF-8" standalone="no"?>
<svg
   xmlns:dc="http://purl.org/dc/elements/1.1/"
   xmlns:cc="http://creativecommons.org/ns#"
   xmlns:rdf="http://www.w3.org/1999/02/22-rdf-syntax-ns#"
   xmlns:svg="http://www.w3.org/2000/svg"
   xmlns="http://www.w3.org/2000/svg"
   xmlns:sodipodi="http://sodipodi.sourceforge.net/DTD/sodipodi-0.dtd"
   xmlns:inkscape="http://www.inkscape.org/namespaces/inkscape"
   enable-background="new 0 0 70 70"
   version="1.1"
   viewBox="0 0 533 700"
   xml:space="preserve"
   id="svg2"
   inkscape:version="0.91 r13725"
   sodipodi:docname="logo_valencia_centenario 2.svg"
   width="533"
   height="700"><metadata
     id="metadata18"><rdf:RDF><cc:Work
         rdf:about=""><dc:format>image/svg+xml</dc:format><dc:type
           rdf:resource="http://purl.org/dc/dcmitype/StillImage" /><dc:title></dc:title></cc:Work></rdf:RDF></metadata><defs
     id="defs16" /><sodipodi:namedview
     pagecolor="#ffffff"
     bordercolor="#666666"
     borderopacity="1"
     objecttolerance="10"
     gridtolerance="10"
     guidetolerance="10"
     inkscape:pageopacity="0"
     inkscape:pageshadow="2"
     inkscape:window-width="1440"
     inkscape:window-height="788"
     id="namedview14"
     showgrid="false"
     inkscape:zoom="0.51608538"
     inkscape:cx="173.85473"
     inkscape:cy="333.24526"
     inkscape:window-x="0"
     inkscape:window-y="1"
     inkscape:window-maximized="1"
     inkscape:current-layer="svg2" /><style
     type="text/css"
     id="style4">
	.st0{fill:#877851;}
	.st1{fill-rule:evenodd;clip-rule:evenodd;fill:#232020;}
	.st2{fill-rule:evenodd;clip-rule:evenodd;}
</style><style
     id="style4522"
     type="text/css">
	.st0{fill:#877851;}
	.st1{fill-rule:evenodd;clip-rule:evenodd;fill:#232020;}
	.st2{fill-rule:evenodd;clip-rule:evenodd;}
</style><path
     inkscape:connector-curvature="0"
     style="clip-rule:evenodd;fill:#d18816;fill-opacity:1;fill-rule:evenodd"
     d="m 266.18299,338 c 0,0 -1.02509,0 0,0 -1.02509,0 -1.02509,0 0,0 -1.02509,0 0,0 0,0 z"
     id="path4676" /><path
     inkscape:connector-curvature="0"
     style="clip-rule:evenodd;fill:#d18816;fill-opacity:1;fill-rule:evenodd"
     d="M 186.22615,410 Z"
     id="path4656" /><path
     inkscape:connector-curvature="0"
     style="clip-rule:evenodd;fill:#d18816;fill-opacity:1;fill-rule:evenodd"
     d="m 191.35159,412 0,-1 0,-1 0,1 0,1 z"
     id="path4654" /><g
     id="g4984"><g
       id="g4942"><path
         style="fill:#ffffff"
         inkscape:connector-curvature="0"
         class="st0"
         d="M 453.98574,91 C 414.98696,46 367.98844,16 349.98901,16 c -7.99975,0 -12.9996,5 -17.99944,10 -5.99981,6 -11.99962,12 -20.99934,12 -2.9999,0 -5.99981,-1 -8.99972,-3 1.99994,-5 4.99985,-11 4.99985,-18 0,-9 -5.99981,-17 -18.99941,-17 -6.99978,0 -11.99962,3 -15.99949,6 -3.99988,-1 -6.99978,-1 -10.99966,0 -1.99994,-3 -7.99975,-6 -14.99953,-6 -12.99959,0 -18.9994,8 -18.9994,17 0,7 2.99991,14 4.99984,18 -1.99993,2 -4.99984,3 -8.99971,3 -8.99972,0 -14.99953,-6 -20.99935,-12 C 196.99381,21 191.99397,16 183.99422,16 165.99479,16 118.99626,46 79.997487,91 42.998649,133 -3.9e-7,201 -3.9e-7,291 0.9999682,490 185.99416,700 266.99161,700 348.98904,700 532.98326,490 532.98326,291 533.98323,201 489.98461,132 453.98574,91 Z"
         id="path4524" /><path
         style="clip-rule:evenodd;fill:#000000;fill-opacity:1;fill-rule:evenodd"
         d="M 246.49023 11 C 239.49045 11 238.49023 15 238.49023 17 C 238.49023 25 244.49023 35 244.49023 39 C 243.49026 40 236.49178 49 223.49219 49 C 201.49288 49 192.49194 27 184.49219 27 C 160.49294 27 11.498047 129 11.498047 292 C 11.498047 488 195.4925 690 267.49023 690 C 340.48794 690 521.48242 488 521.48242 292 C 523.48236 129 374.48752 27 350.48828 27 C 342.48853 27 333.48759 49 311.48828 49 C 298.48869 49 291.4902 40 290.49023 39 C 290.49023 35 296.48828 26 296.48828 17 C 296.48828 15 295.49001 11 288.49023 11 C 281.49045 11 277.4902 17 276.49023 18 C 275.49026 19 273.49004 17 267.49023 17 C 261.49042 17 258.49023 19 258.49023 18 C 257.49026 17 253.49001 11 246.49023 11 z M 165.00391 146 C 202.00275 146 222.00195 182 222.00195 195 C 222.00195 202 220.00195 200 220.00195 204 C 220.00195 206 223.00201 209 225.00195 209 C 228.00186 209 237.00198 200 238.00195 197 C 251.00154 197 263.49036 211 267.49023 222 C 271.4901 211 283.97893 197 296.97852 197 C 297.97849 200 306.97665 209 309.97656 209 C 311.9765 209 314.97656 206 314.97656 204 C 314.97656 200 312.97656 202 312.97656 195 C 312.97656 182 332.97772 146 369.97656 146 C 389.97593 146 403.97461 158 403.97461 158 C 403.97461 158 408.9747 157 411.97461 157 C 434.97388 157 468.97139 191 490.9707 232 L 267.49023 232 L 44.009766 232 C 66.009075 191 100.00659 157 123.00586 157 C 126.00577 157 131.00586 158 131.00586 158 C 131.00586 158 145.00454 146 165.00391 146 z "
         id="path4696" /><g
         id="g4937"><path
           inkscape:connector-curvature="0"
           id="path4692"
           d="m 180.99431,38 c 0.99997,0 0.99997,0 0,0 0.99997,4 -44.99858,44 -50.99839,101 -2.99991,-44 46.99852,-101 50.99839,-101 z"
           style="clip-rule:evenodd;fill:#ffffff;fill-rule:evenodd" /><g
           transform="matrix(-1,0,0,1,534.98,0)"
           id="g4823"><path
             id="path4825"
             d="m 180.99431,38 c 0.99997,0 0.99997,0 0,0 0.99997,4 -44.99858,44 -50.99839,101 -2.99991,-44 46.99852,-101 50.99839,-101 z"
             style="clip-rule:evenodd;fill:#ffffff;fill-rule:evenodd"
             inkscape:connector-curvature="0" /></g></g></g><g
       id="g4950"><path
         style="clip-rule:evenodd;fill:#ee3524;fill-opacity:1;fill-rule:evenodd"
         d="M 25.066406 285 C 24.097571 291.48442 24.509766 296 24.509766 302 C 24.509766 363 46.508817 429 78.507812 488 L 131.50586 571 C 149.5053 595 168.50448 615 186.50391 632 C 205.16986 651.07847 223.836 659.8103 242.50195 671 C 251.50166 675 260.49045 677 267.49023 677 C 274.49001 677 283.47881 675 292.47852 671 C 311.14447 659.8103 329.81061 651.07847 348.47656 632 C 366.47599 615 385.47517 595 403.47461 571 L 456.47266 488 C 488.47165 429 510.4707 363 510.4707 302 C 510.4707 296 510.88095 291.48442 509.91211 285 L 267.49023 285 L 25.066406 285 z "
         id="path4901" /><path
         style="clip-rule:evenodd;fill:#0097d7;fill-opacity:1;fill-rule:evenodd"
         d="m 44.009766,232 c -8.251095,15.36381 -16.519967,34.01475 -18.94336,53 l 484.845704,0 C 507.48872,266.01475 499.2218,247.36381 490.9707,232 Z"
         id="path4804"
         inkscape:connector-curvature="0"
         sodipodi:nodetypes="ccccc" /><g
         id="g4885"><path
           style="clip-rule:evenodd;fill:#ffdf1c;fill-opacity:1;fill-rule:evenodd"
           d="m 242.50195,285 0,386 c 8.99971,4 17.9885,6 24.98828,6 6.99978,0 15.98858,-2 24.98829,-6 l 0,-386 z"
           id="path4678"
           inkscape:connector-curvature="0"
           sodipodi:nodetypes="ccsccc" /><path
           id="path4660"
           d="m 25.067,285 53.440506,0 0,203 C 46.508511,429 24.509202,363 24.509202,302 c 0,-6 -0.411037,-10.51558 0.557798,-17 z"
           style="clip-rule:evenodd;fill:#ffdf1c;fill-opacity:1;fill-rule:evenodd"
           inkscape:connector-curvature="0"
           sodipodi:nodetypes="cccsc" /><path
           id="path4658"
           d="m 186.50411,632 c -17.99943,-17 -36.99883,-37 -54.99827,-61 l 0,-286 54.99827,0 0,347 z"
           style="clip-rule:evenodd;fill:#ffdf1c;fill-opacity:1;fill-rule:evenodd"
           inkscape:connector-curvature="0" /><path
           sodipodi:nodetypes="cccsc"
           inkscape:connector-curvature="0"
           style="clip-rule:evenodd;fill:#ffdf1c;fill-opacity:1;fill-rule:evenodd"
           d="m 509.913,285 -53.44051,0 0,203 c 31.999,-59 53.99831,-125 53.99831,-186 0,-6 0.41103,-10.51558 -0.5578,-17 z"
           id="path4833" /><path
           inkscape:connector-curvature="0"
           style="clip-rule:evenodd;fill:#ffdf1c;fill-opacity:1;fill-rule:evenodd"
           d="m 348.47589,632 c 17.99943,-17 36.99883,-37 54.99827,-61 l 0,-286 -54.99827,0 0,347 z"
           id="path4835" /></g><g
         id="g4700"
         style="fill:#ffffff"
         transform="translate(-0.0023385,0)"><path
           id="path4684"
           d="m 197.99378,256 0,7 -17.99943,0 0,9 20.99934,0 0,8 -29.99906,0 0,-38 29.99906,0 0,8 -20.99934,0 0,7 17.99943,0 z"
           style="clip-rule:evenodd;fill:#ffffff;fill-rule:evenodd"
           inkscape:connector-curvature="0" /><path
           id="path4680"
           d="m 272.99142,273 c 6.99978,0 7.99975,-6 7.99975,-8 l 9.99969,0 c 0,6 -4.99984,14 -18.9994,14 -10.99966,0 -17.99944,-7 -17.99944,-18 0,-9 5.99981,-20 18.9994,-20 8.99972,0 17.99944,6 17.99944,14 l -9.99969,0 c 0,-4 -1.99993,-7 -7.99975,-7 -6.99978,0 -9.99968,7 -9.99968,13 0,6 3.99987,12 9.99968,12 z"
           style="clip-rule:evenodd;fill:#ffffff;fill-rule:evenodd"
           inkscape:connector-curvature="0" /><path
           id="path4674"
           d="m 244.9923,279 -8.99971,0 -15.9995,-25 0,25 -7.99975,0 0,-38 8.99972,0 15.9995,26 0,-26 8.99971,0 0,38 z"
           style="clip-rule:evenodd;fill:#ffffff;fill-rule:evenodd"
           inkscape:connector-curvature="0" /><path
           id="path4668"
           d="m 300.99055,279 0,-38 8.99971,0 0,38 -8.99971,0 z"
           style="clip-rule:evenodd;fill:#ffffff;fill-rule:evenodd"
           inkscape:connector-curvature="0" /><path
           id="path4666"
           d="m 162.99488,271 0,8 -29.99906,0 0,-38 8.99972,0 0,30 20.99934,0 z"
           style="clip-rule:evenodd;fill:#ffffff;fill-rule:evenodd"
           inkscape:connector-curvature="0" /><path
           id="path4664"
           d="m 104.99609,240 -14.998043,38 8.998047,0 2.999996,-8 14,0 3,9 0,-1 10,0 -15,-38 -9,0 z m 4,11 4,13 -9,0 5,-13 z"
           style="clip-rule:evenodd;fill:#ffffff;fill-rule:evenodd"
           inkscape:connector-curvature="0" /><path
           id="path4662"
           d="m 76.997581,279 -8.999717,0 -13.999561,-38 9.999686,0 c 0,0 7.999749,28 8.999718,28 l 8.999717,-28 9.999686,0 -14.999529,38 z"
           style="clip-rule:evenodd;fill:#ffffff;fill-rule:evenodd"
           inkscape:connector-curvature="0" /><path
           id="path4644"
           d="m 331.99023,240 -15,38 9,0 3,-8 13.99805,0 3,8 10,0 -14.99805,-38 -9,0 z m 4,11 4,13 -9,0 5,-13 z"
           style="clip-rule:evenodd;fill:#ffffff;fill-rule:evenodd"
           inkscape:connector-curvature="0" /><path
           id="path4640"
           d="m 395.98756,273 c 6.99978,0 7.99975,-6 7.99975,-8 l 9.99969,0 c 0,6 -4.99985,14 -18.99941,14 -10.99965,0 -17.99943,-7 -17.99943,-18 0,-9 5.99981,-20 18.9994,-20 8.99972,0 17.99944,6 17.99944,14 l -9.99969,0 c 0,-4 -1.99994,-7 -7.99975,-7 -6.99978,0 -9.99968,7 -9.99968,13 0,6 2.9999,12 9.99968,12 z"
           style="clip-rule:evenodd;fill:#ffffff;fill-rule:evenodd"
           inkscape:connector-curvature="0" /><path
           id="path4638"
           d="m 431.98643,279 -9.99969,0 0,-9 9.99969,0 0,9 z"
           style="clip-rule:evenodd;fill:#ffffff;fill-rule:evenodd"
           inkscape:connector-curvature="0" /><path
           id="path4636"
           d="m 441.98612,279 0,-38 29.99905,0 0,8 -20.99934,0 0,7 17.99944,0 0,7 -17.99944,0 0,17 -8.99971,0 z"
           style="clip-rule:evenodd;fill:#ffffff;fill-rule:evenodd"
           inkscape:connector-curvature="0" /><path
           id="path4634"
           d="m 480.98489,270 0,9 -9.99968,0 0,-9 9.99968,0 z"
           style="clip-rule:evenodd;fill:#ffffff;fill-rule:evenodd"
           inkscape:connector-curvature="0" /></g><g
         id="g4925"><circle
           r="79"
           cy="409.12985"
           cx="267.48999"
           id="path4736"
           style="opacity:1;fill:#b23428;fill-opacity:1;fill-rule:evenodd;stroke:none;stroke-width:0.2;stroke-linecap:round;stroke-linejoin:round;stroke-miterlimit:4;stroke-dasharray:none;stroke-dashoffset:0;stroke-opacity:1" /><g
           transform="matrix(0.99504422,0,0,1.0270421,3.6461382,-12.470935)"
           id="g4749"><path
             inkscape:connector-curvature="0"
             style="clip-rule:evenodd;fill:#d18816;fill-opacity:1;fill-rule:evenodd"
             d="m 281.55931,478 c -7.17562,-4 -12.30105,-11 -12.30105,-13 17.42648,-6 21.52684,-18 21.52684,-28 0,-6 -2.05018,-15 -4.10036,-19 2.05018,-3 2.05018,-9 2.05018,-16 0,-15 -10.25088,-24 -14.35123,-27 l 0,-1 c 2.05018,-4 8.20071,-13 15.37632,-13 13.32614,0 27.67737,19 27.67737,53 l 0,2 c 1.02509,13 1.02509,46 -35.87807,62 z"
             id="path4688" /><path
             inkscape:connector-curvature="0"
             style="clip-rule:evenodd;fill:#d18816;fill-opacity:1;fill-rule:evenodd"
             d="m 234.40528,464 c 1.02508,-1 6.15052,-5 13.32614,-5 6.15052,0 15.37631,3 18.45157,5 0,4 7.17562,12 15.37632,17 -5.12544,1 -10.25088,2 -15.37632,2 -7.17561,0 -14.35123,-1 -21.52684,-3 -6.15052,-4 -10.25087,-14 -10.25087,-16 z"
             id="path4686" /><path
             inkscape:connector-curvature="0"
             style="clip-rule:evenodd;fill:#d18816;fill-opacity:1;fill-rule:evenodd"
             d="m 203.65265,370 0,0 0,0 c 4.10034,5 13.32613,12 23.57702,12 5.12543,0 11.27596,-3 14.35122,-5 3.07526,5 10.25087,5 13.32614,5 8.2007,0 13.32614,-1 16.4014,-4 3.07526,3 12.30106,11 12.30106,24 0,8 0,14 -2.05018,15 -3.07527,1 -20.50175,4 -32.8028,4 -31.77773,0 -55.35474,-11 -58.43,-13 1.02508,-14 6.15052,-27 13.32614,-38 z"
             id="path4682" /><path
             inkscape:connector-curvature="0"
             style="clip-rule:evenodd;fill:#d18816;fill-opacity:1;fill-rule:evenodd"
             d="m 265.1579,338 c -14.35122,8 -24.6021,25 -24.6021,34 l 0,2 c -3.07526,2 -9.22579,4 -13.32613,4 -10.25089,0 -19.47668,-8 -21.52686,-11 13.32615,-18 34.85299,-29 59.45509,-29 z"
             id="path4672" /><path
             inkscape:connector-curvature="0"
             style="clip-rule:evenodd;fill:#d18816;fill-opacity:1;fill-rule:evenodd"
             d="m 295.91054,359 c -2.05018,-1 -4.10035,-1 -6.15053,-1 -10.25088,0 -15.37632,10 -18.45158,15 0,1 -1.02508,1 -1.02508,2 -2.05018,2 -7.17562,4 -14.35123,4 -8.2007,0 -11.27597,-2 -11.27597,-7 0,-8 11.27597,-28 27.67737,-34 13.32614,1 25.62719,6 35.87807,13 -4.10035,1 -7.17562,3 -10.25088,4 0,1 -2.05017,3 -2.05017,4 z"
             id="path4670" /><path
             inkscape:connector-curvature="0"
             style="clip-rule:evenodd;fill:#d18816;fill-opacity:1;fill-rule:evenodd"
             d="m 191.35159,412 c 7.17561,4 30.75263,13 58.43,13 10.25088,0 28.70245,-2 33.8279,-4 1.02509,3 4.10034,10 4.10034,16 0,9 -3.07525,20 -19.47666,25 -4.10036,-2 -13.32614,-6 -20.50175,-6 -5.12545,0 -10.25088,2 -14.35123,4 -3.07527,-3 -13.32614,-11 -21.52684,-11 -3.07527,0 -6.15054,1 -8.2007,1 -8.20071,-11 -12.30106,-24 -12.30106,-38 z"
             id="path4652" /><path
             inkscape:connector-curvature="0"
             style="clip-rule:evenodd;fill:#d18816;fill-opacity:1;fill-rule:evenodd"
             d="m 205.70281,454 c 2.05018,0 4.10036,-1 6.15054,-1 6.15052,0 15.37632,7 18.45157,10 l 0,1 c 0,3 3.07527,9 7.17562,14 -12.30105,-5 -23.57702,-14 -31.77773,-24 z"
             id="path4650" /><path
             inkscape:connector-curvature="0"
             style="clip-rule:evenodd;fill:#d18816;fill-opacity:1;fill-rule:evenodd"
             d="m 285.65966,480 c 35.87807,-17 35.87807,-51 35.87807,-64 l 0,-1 c 0,-30 -10.25088,-49 -22.55193,-55 1.02509,-1 1.02509,-2 2.05017,-2 3.07527,-2 7.17562,-4 11.27597,-4 16.40141,13 27.67737,34 27.67737,56 0,34 -22.55193,62 -54.32965,70 z"
             id="path4646" /></g></g></g></g></svg>