<?xml version="1.0" encoding="UTF-8" standalone="no"?>
<!-- Created with Inkscape (http://www.inkscape.org/) -->

<svg
   xmlns:dc="http://purl.org/dc/elements/1.1/"
   xmlns:cc="http://creativecommons.org/ns#"
   xmlns:rdf="http://www.w3.org/1999/02/22-rdf-syntax-ns#"
   xmlns:svg="http://www.w3.org/2000/svg"
   xmlns="http://www.w3.org/2000/svg"
   xmlns:sodipodi="http://sodipodi.sourceforge.net/DTD/sodipodi-0.dtd"
   xmlns:inkscape="http://www.inkscape.org/namespaces/inkscape"
   id="svg3341"
   version="1.1"
   inkscape:version="0.91 r13725"
   width="684"
   height="700"
   viewBox="0 0 712.17118 729.48668"
   xml:space="preserve"
   sodipodi:docname="Logo Everton FC 2014.svg"><metadata
     id="metadata3347"><rdf:RDF><cc:Work
         rdf:about=""><dc:format>image/svg+xml</dc:format><dc:type
           rdf:resource="http://purl.org/dc/dcmitype/StillImage" /><dc:title></dc:title></cc:Work></rdf:RDF></metadata><defs
     id="defs3345" /><sodipodi:namedview
     pagecolor="#ffffff"
     bordercolor="#666666"
     borderopacity="1"
     objecttolerance="10"
     gridtolerance="10"
     guidetolerance="10"
     inkscape:pageopacity="0"
     inkscape:pageshadow="2"
     inkscape:window-width="1440"
     inkscape:window-height="788"
     id="namedview3343"
     showgrid="false"
     fit-margin-top="1"
     fit-margin-left="1"
     fit-margin-right="1"
     fit-margin-bottom="1"
     inkscape:zoom="0.67872371"
     inkscape:cx="635.01922"
     inkscape:cy="291.36364"
     inkscape:window-x="0"
     inkscape:window-y="1"
     inkscape:window-maximized="1"
     inkscape:current-layer="g3349"
     showguides="false" /><g
     id="g3349"
     inkscape:groupmode="layer"
     inkscape:label="Logo"
     transform="matrix(1.25,0,0,-1.25,63.319562,870.87543)"><g
       id="g5078"
       transform="matrix(1.0001268,0,0,1.0001892,-0.00459526,-0.09869078)"><g
         id="g5047"><path
           inkscape:connector-curvature="0"
           id="path5809"
           style="fill:#274488;fill-opacity:1;fill-rule:nonzero;stroke:none"
           d="m 519.19391,328.98497 c -0.11038,0.33115 -0.33115,0.55191 -0.66229,0.55191 l -35.54299,13.68736 c 0.6623,2.53878 1.98688,5.96063 4.41528,9.49285 l 18.3234,-8.05788 c 0.66229,-0.33115 1.2142,-0.44153 1.8765,-0.44153 1.65573,0 3.20107,0.88305 4.08413,2.31802 0.44153,0.77267 1.87649,3.09069 3.09069,6.07101 1.76611,4.74642 2.20764,9.05131 1.10382,12.58354 -1.10382,3.75298 -3.75298,6.62291 -7.72673,8.38902 l -48.8992,22.40754 c 0,0 -0.22077,0.11038 -0.33115,0.22076 l 0,0 c -1.87649,0.77268 -5.40871,1.76611 -9.71361,0.33115 0,1.54534 0,3.09069 0,4.63604 0,3.75298 -0.11038,7.72673 -0.33115,11.70048 -0.22076,4.08414 -0.55191,8.27865 -0.99343,12.58355 -2.86993,24.72555 -8.60979,42.93857 -10.92782,49.56149 l -0.88305,2.20764 c -9.60323,26.71242 -17.1092,47.90576 -16.88844,73.18322 0.11038,19.09608 23.95288,45.80851 33.11458,54.52868 l 8.6098,8.16826 -90.40281,82.45531 -7.17483,-4.74642 c -16.55729,-10.92781 -37.97139,-16.88844 -60.37892,-16.88844 -23.40097,0 -45.69812,6.51254 -62.47618,18.3234 l -6.29177,4.41528 -6.29177,-4.41528 c -16.88844,-11.81086 -39.07521,-18.3234 -62.47618,-18.3234 -22.40753,0 -43.82163,5.96063 -60.37892,16.88844 l -7.174825,4.74642 -81.682636,-74.50781 -8.7201728,-7.9475 8.4994098,-8.16826 c 9.161701,-8.72017 33.0042,-35.4326 33.224963,-54.52868 0.110382,-25.27746 -7.39559,-46.4708 -16.998818,-73.18322 l -0.772674,-2.20764 c -2.318021,-6.62292 -8.168263,-24.83594 -10.927812,-49.56149 -0.441528,-4.3049 -0.772674,-8.49941 -0.993437,-12.58355 -0.220764,-3.97375 -0.441528,-7.9475 -0.441528,-11.70048 0,-1.54535 0,-3.0907 0.110382,-4.63604 -4.304896,1.43496 -7.837118,0.44153 -9.603229,-0.33115 l -0.1103819,0 c -0.110382,-0.11038 -0.2207639,-0.22076 -0.3311458,-0.22076 L -39.780234,373.57927 c -3.97375,-1.76611 -6.622917,-4.63604 -7.726736,-8.38902 -1.103819,-3.53223 -0.662292,-7.83712 1.103819,-12.58354 1.214202,-2.98032 2.649167,-5.29834 3.201077,-6.07101 0.772673,-1.43497 2.31802,-2.31802 3.97375,-2.31802 0.662291,0 1.214201,0.11038 1.876493,0.44153 l 18.323402,8.05788 c 2.428402,-3.53222 3.642604,-6.95407 4.415277,-9.49285 l -35.542985,-13.68736 c -0.331145,0 -0.551909,-0.22076 -0.662291,-0.55191 -0.110382,-0.33115 -0.110382,-0.55191 0,-0.88306 l 2.097257,-5.40871 c 22.18677,-55.41173 59.937393,-102.98635 109.057356,-137.20475 45.698125,-31.79 99.233365,-50.44455 154.755485,-53.86639 l 18.3234,-18.10264 c 0.22076,-0.22076 0.44153,-0.33114 0.77267,-0.33114 0.22076,0 0.55191,0.11038 0.77267,0.33114 l 18.32341,18.10264 c 55.52211,3.42184 109.05735,22.07639 154.64509,53.86639 49.23035,34.2184 86.98097,81.79302 109.16774,137.20475 l 2.09726,5.40871 c 0.11038,0.33115 0.11038,0.55191 0,0.88306" /><path
           style="fill:#ffffff;fill-opacity:1;fill-rule:nonzero;stroke:none"
           d="m 22.90566,412.68759 c 0.220764,4.08413 0.55191,8.16826 1.10382,12.36278 2.649166,24.50479 8.389027,42.27628 10.707048,48.78881 l 0.772673,2.20764 c 9.713611,27.04358 17.329965,48.45767 17.109201,74.39743 -0.110382,20.19989 -24.725554,48.01614 -34.218401,57.06746 l -5.850243,5.5191 5.960625,5.40871 79.69576,72.7417 4.856807,-3.20107 c 17.21958,-11.25896 39.29597,-17.55073 62.36579,-17.55073 24.06327,0 47.02271,6.84368 64.46306,18.98569 l 4.30489,2.98031 4.3049,-2.98031 c 17.44035,-12.14201 40.28941,-18.98569 64.46305,-18.98569 22.95945,0 45.14622,6.29177 62.25542,17.55073 l 4.8568,3.20107 85.76677,-78.15041 -5.85024,-5.62948 c -9.49285,-8.94094 -34.10802,-36.75719 -34.21841,-56.95708 -0.22076,-25.93976 7.39559,-47.35385 17.10921,-74.39743 l 0.77267,-2.20764 c 2.31802,-6.51253 8.05788,-24.28402 10.70705,-48.78881 0.44152,-4.19452 0.88305,-8.27865 1.10382,-12.36278 0.11038,-3.86337 0.33114,-7.83712 0.33114,-11.59011 0.11038,-28.25777 -5.40871,-52.87295 -16.44691,-72.96246 -1.87649,-3.42184 -3.97375,-6.84368 -6.18139,-9.93437 -0.22076,-0.44153 -0.5519,-0.88306 -0.99343,-1.54535 l -0.22077,-0.22076 C 383.08193,258.15287 325.90409,221.83721 260.77874,214.22086 l -0.55191,0 -26.05014,-26.05014 -26.05013,26.05014 -0.55191,0 C 142.4493,221.83721 85.161074,258.15287 46.306632,316.43454 l -0.110382,0.22076 c -0.441528,0.66229 -0.772674,1.10382 -0.993438,1.43497 -2.207639,3.20107 -4.304895,6.62291 -6.181388,10.04475 -11.038194,20.08951 -16.557291,44.70469 -16.44691,72.96246 0,3.75299 0.110382,7.72674 0.331146,11.59011"
           id="path4884"
           inkscape:connector-curvature="0" /><path
           style="fill:#ffffff;fill-opacity:1;fill-rule:nonzero;stroke:none"
           d="M 514.87797,323.60936 C 492.91196,268.52877 455.49248,221.39569 406.70367,187.39805 361.22631,155.71843 308.02221,137.17427 252.72086,133.86281 c -0.33115,0 -0.55191,-0.11038 -0.77267,-0.33115 l -17.7715,-17.66111 -17.77149,17.66111 c -0.22076,0.22077 -0.44153,0.33115 -0.77267,0.33115 -55.19097,3.31146 -108.50545,21.85562 -153.982809,53.53524 -48.678435,33.99764 -86.208295,81.13072 -108.174301,136.21131 l -1.766111,4.3049 67.332983,25.82937 c 1.766111,0.77268 3.642604,0.11038 4.636042,-1.43496 l 0.110382,-0.11039 c 0.441528,-0.66229 1.324583,-1.98687 2.649166,-3.20107 0.55191,-1.76611 1.10382,-3.53222 1.766111,-5.18795 -3.532222,1.32458 -6.071006,4.63604 -7.064444,6.071 l -0.220764,0.44153 c -0.110382,0.11038 -0.331145,0.22077 -0.551909,0.22077 0,0 -0.110382,0 -0.220764,0 l -4.746424,-1.8765 -2.097256,-0.88305 0.331145,-0.88306 c 0.220764,-0.44153 0.331146,-0.88305 0.441528,-1.10382 1.986875,-4.96719 4.194514,-9.71361 6.402153,-14.46003 0.441527,-0.66229 0.772673,-1.43497 1.103819,-2.09726 l 2.097257,0.77267 8.830555,3.20108 c 0.55191,-1.10382 1.103819,-2.09726 1.545347,-3.09069 l -8.720173,-3.20108 -2.207639,-0.77267 c 0.331146,-0.66229 0.662292,-1.32459 1.10382,-1.98688 17.771492,-33.55611 43.159338,-62.36579 74.618191,-84.44218 35.763745,-24.83594 77.156975,-39.07521 120.647465,-41.83476 l 3.75298,-3.6426 C 177.66114,196.2286 134.06027,210.9094 96.86156,236.95954 57.896735,264.1135 27.98323,301.64336 10.432501,345.57537 l -0.4415277,0.99344 -53.6456233,-20.64143 0.441528,-0.99343 C -21.46788,270.40527 15.51007,223.82409 63.746978,190.1576 109.11396,158.58836 162.31805,140.26496 217.6194,137.28465 l 15.78462,-15.67424 0.77267,-0.77267 16.55729,16.44691 c 55.30136,2.98031 108.50545,21.30371 153.87243,52.87295 48.23691,33.66649 85.32524,80.24767 107.07048,134.77635 l 0.33115,0.99343 -53.64563,20.64143 -0.33114,-0.99344 C 440.37016,301.64336 410.45665,264.1135 371.49183,236.95954 334.18273,210.9094 290.69225,196.2286 245.10451,194.24173 l 3.75298,3.6426 c 43.49049,2.75955 84.88371,16.99882 120.64746,41.83476 31.45885,22.07639 56.95708,50.88607 74.61819,84.44218 0.44153,0.66229 0.77268,1.32459 1.10382,1.98688 l -2.20764,0.77267 -8.72017,3.20108 c 0.44153,0.99343 0.99344,1.98687 1.43497,3.09069 l 8.94093,-3.20108 2.09726,-0.77267 c 0.33115,0.66229 0.77267,1.43497 1.10382,2.09726 2.20764,4.74642 4.41528,9.49284 6.40215,14.46003 0.11038,0.22077 0.33115,0.66229 0.44153,1.10382 l 0.44153,0.88306 -2.20764,0.88305 -4.74642,1.8765 c -0.11039,0 -0.11039,0 -0.33115,0 -0.11038,0 -0.33115,-0.11039 -0.44153,-0.22077 l -0.22076,-0.44153 c -0.99344,-1.43496 -3.53222,-4.74642 -7.06445,-6.18138 0.55191,1.76611 1.2142,3.53222 1.76611,5.29833 1.21421,1.10382 2.20764,2.53878 2.64917,3.20107 l 0.11038,0.11039 c 0.99344,1.54534 2.86993,2.20764 4.63604,1.43496 l 67.33299,-25.82937 -1.76611,-4.3049 z"
           id="path4894"
           inkscape:connector-curvature="0" /><path
           style="fill:#ffffff;fill-opacity:1;fill-rule:nonzero;stroke:none"
           d="m -17.714894,354.73707 -0.551909,0.88305 -19.979131,-8.94093 c -1.214202,-0.44153 -2.428403,0 -2.980313,1.10382 -0.441528,0.55191 -1.876493,2.75955 -2.980312,5.62948 -1.10382,2.98031 -2.207639,7.2852 -1.10382,11.14857 0.883056,3.0907 3.090695,5.5191 6.402153,6.95406 l 49.009581,22.40754 c 0.110382,0 0.220764,0.11038 0.331146,0.11038 0.883056,0.44153 2.538785,0.99344 4.415278,0.99344 1.324583,0 2.759548,-0.33115 4.304895,-0.88306 0.110382,-1.43496 0.110382,-2.64916 0.220764,-3.97375 -1.545347,0.88306 -3.090694,1.43497 -4.636041,1.43497 -0.993438,0 -1.986875,-0.22077 -2.869931,-0.66229 l -0.331146,-0.11039 c -2.2076383,-1.10382 -3.7529855,-3.6426 -4.4152771,-7.06444 -0.6622917,-3.86337 0,-8.38903 1.9868749,-12.80431 l 0.3311458,-0.88305 c 0.4415278,-1.10382 -0.1103819,-2.31802 -1.2142013,-2.86993 l -23.2905893,-10.26552 0.772674,-1.10382 c 2.759548,-3.86337 4.194513,-7.61636 5.0775688,-10.48629 l -3.3114578,-1.32458 c -0.772674,2.86993 -2.318021,6.84368 -5.187952,10.70705"
           id="path4892"
           inkscape:connector-curvature="0" /><path
           style="fill:#ffffff;fill-opacity:1;fill-rule:nonzero;stroke:none"
           d="m 217.06749,200.31274 c -42.1659,3.09069 -82.23454,17.21958 -116.89447,41.39322 -31.017327,21.63486 -56.184409,50.1134 -73.84552,83.22799 l 8.830556,3.09069 c 0.220764,-0.55191 0.551909,-0.99344 0.772673,-1.54535 1.986875,-3.53222 4.084132,-7.06444 6.402153,-10.3759 0.220764,-0.33115 0.551909,-0.77267 0.993437,-1.32458 l 0.110382,-0.33115 C 82.843054,255.50371 140.68319,218.74652 206.58121,210.9094 l 10.48628,-10.59666 z"
           id="path4890"
           inkscape:connector-curvature="0" /><g
           id="g4935"
           style="fill:#ffffff"><path
             id="path4904"
             transform="matrix(0.83369911,0,0,-0.83369906,-50.912262,696.70034)"
             d="m 172.68359,570.14844 c -0.331,0.0331 -0.66314,0.16468 -0.99414,0.36328 l -26.87695,19.72851 -0.39648,0.39649 c -0.1324,0.3972 -0.13353,0.79575 0.26367,1.06055 l 4.63476,3.04492 c 0.7944,0.52959 1.45673,0.26439 1.98633,-0.13281 l 4.76563,-3.83985 1.45703,0.92774 7.14844,4.63281 1.45703,1.06054 -1.45703,5.69336 c -0.13241,0.7944 -0.13147,1.45519 0.92773,2.11719 l 4.50195,3.04492 c 0.662,0.39721 1.05788,0.13311 1.45508,-0.39648 0.1324,-0.1324 0.13323,-0.26492 0.26563,-0.66211 l 7.01757,-32.17383 c 0.1324,-0.662 -9.3e-4,-1.32391 -0.92773,-1.85351 l -4.23633,-2.7793 c -0.331,-0.1986 -0.66119,-0.26552 -0.99219,-0.23242 z m -1.60351,8.67968 c -0.2648,0.7944 -0.52817,1.72051 -0.79297,2.91211 l -2.64844,9.53321 -6.75195,-4.36914 7.81055,-6.22266 c 0.7944,-0.662 1.58841,-1.32391 2.38281,-1.85352 z"
             style="fill:#ffffff;fill-opacity:1;fill-rule:nonzero;stroke:none"
             inkscape:connector-curvature="0" /><path
             id="path4918"
             transform="matrix(0.83369911,0,0,-0.83369906,-50.912262,696.70034)"
             d="m 444.37305,603.23047 c -1.64883,0.0221 -3.39733,0.31631 -5.23438,0.91211 -9.13562,3.04521 -12.44631,11.78246 -9.0039,21.58008 3.30999,9.93001 10.72416,14.69754 19.99218,11.65234 8.73842,-2.9128 12.71152,-11.38763 9.13672,-21.71484 -2.47422,-7.53026 -7.7457,-12.5255 -14.89062,-12.42969 z m -0.89063,6.7168 c 3.29659,-0.045 6.01873,2.4836 7.95508,8.50781 2.51561,7.1496 0.92863,11.25412 -3.17578,12.57812 -4.3692,1.4564 -7.94492,-0.79415 -10.32813,-8.07617 -2.38319,-6.7524 -0.79427,-11.25412 3.17774,-12.57812 0.81922,-0.27308 1.61034,-0.42127 2.37109,-0.43164 z"
             style="fill:#ffffff;fill-opacity:1;fill-rule:nonzero;stroke:none"
             inkscape:connector-curvature="0" /><path
             id="path4930"
             transform="matrix(0.83369911,0,0,-0.83369906,-50.912262,696.70034)"
             d="m 476.85352,591.03125 c -2.44631,0.0802 -5.17777,0.89721 -8.32227,2.38672 l -7.01758,3.17773 c -0.92681,0.52961 -1.19171,0.92714 -0.66211,1.98633 l 13.10742,27.80274 c 0.3972,0.92679 1.05912,1.0593 1.85352,0.66211 l 4.36914,-1.98633 c 1.0592,-0.52961 1.19213,-1.05912 0.79492,-1.85352 l -4.23633,-9.00195 c 0.52961,-0.1324 1.98603,-0.79574 2.51563,-1.06055 6.7524,-3.0452 10.4604,-9.00232 7.15039,-16.01953 -1.05921,-2.3832 -3.04648,-4.36853 -5.42969,-5.42773 -1.2909,-0.49651 -2.65526,-0.71412 -4.12304,-0.66602 z m -1.44336,6.5 c 1.72353,0.0698 3.13004,1.08287 4.12304,3.23437 1.4564,3.17761 0.39832,5.56118 -2.77929,7.01758 -0.39721,0.2648 -1.85363,0.9262 -2.51563,1.0586 l -4.36914,-9.40039 2.11719,-1.0586 c 1.24125,-0.5958 2.38971,-0.89345 3.42383,-0.85156 z"
             style="fill:#ffffff;fill-opacity:1;fill-rule:nonzero;stroke:none"
             inkscape:connector-curvature="0" /><path
             id="path4928"
             d="m 455.82363,305.17558 c -0.33115,0.66229 -0.44153,1.2142 0,1.98687 l 1.54535,2.42841 c 0.33114,0.66229 0.77267,0.77267 1.43496,0.33114 l 22.73868,-12.47316 0,0 c 0.77267,-0.44153 0.88306,-0.99344 0.44153,-1.54534 l -2.20764,-3.42184 c -0.44153,-0.88306 -1.10382,-0.88306 -1.98687,-0.33115 l -12.14202,6.95406 -0.11038,0 9.27208,-12.91469 c 0.55191,-0.66229 0.33115,-1.2142 0,-1.65572 l -0.77267,-1.21421 c -0.33115,-0.66229 -0.77267,-0.99343 -1.65573,-0.88305 l -16.11576,1.76611 -0.11039,-0.11038 12.03164,-7.72674 c 0.99343,-0.55191 0.88305,-1.10382 0.33114,-1.76611 l -1.76611,-2.86993 c -0.44153,-0.77267 -0.99344,-0.99344 -1.76611,-0.44153 l 0,0 -21.19333,14.34965 c -0.77268,0.6623 -0.77268,1.10382 -0.44153,1.76612 l 1.54535,2.4284 c 0.55191,0.88305 0.99343,0.99344 1.87649,0.88305 l 20.31028,-2.09725 0.11038,0.11038 -11.36934,16.44691 z"
             style="fill:#ffffff;fill-opacity:1;fill-rule:nonzero;stroke:none"
             inkscape:connector-curvature="0" /><path
             id="path4926"
             d="m 445.55811,265.65884 -10.92781,8.83056 c -0.55191,0.55191 -0.44153,1.10382 0,1.65573 l 2.53878,3.09069 c 0.55191,0.55191 0.99344,0.77268 1.65573,0.22077 l 11.14858,-9.1617 c 6.95406,-5.85025 7.17482,-12.03164 2.09725,-17.88188 -5.29833,-6.40215 -11.25895,-6.40215 -17.88187,-0.99344 l -11.14858,9.1617 c -0.66229,0.55191 -0.44152,1.21421 0,1.76612 l 2.53879,2.98031 c 0.55191,0.66229 0.88305,0.77267 1.54534,0.22076 l 10.81743,-8.83055 c 4.96719,-4.08414 7.72674,-3.53223 10.15514,-0.6623 2.31802,2.75955 2.31802,5.62948 -2.53878,9.60323"
             style="fill:#ffffff;fill-opacity:1;fill-rule:nonzero;stroke:none"
             inkscape:connector-curvature="0" /><path
             id="path4924"
             d="m 413.76811,251.30919 c -0.22076,0.66229 -0.11038,1.32458 0.55191,1.98688 l 1.98687,1.87649 c 0.6623,0.55191 1.10382,0.44153 1.54535,0 l 18.65455,-17.99226 c 0,-0.11038 0.11038,-0.11038 0.11038,-0.11038 0.44153,-0.55191 0.44153,-1.10382 -0.11038,-1.54535 l -2.98031,-2.75954 c -0.77268,-0.77268 -1.32459,-0.55191 -2.09726,0.33114 l -9.82399,9.82399 0,0 5.40871,-14.90156 c 0.33115,-0.77267 0,-1.2142 -0.33114,-1.54535 l -1.10382,-0.99343 c -0.66229,-0.55191 -0.99344,-0.77268 -1.8765,-0.44153 l -15.12232,5.96062 -0.11038,-0.11038 9.60323,-10.59666 c 0.77267,-0.88306 0.44152,-1.2142 -0.22077,-1.8765 l -2.4284,-2.20764 c -0.66229,-0.66229 -1.2142,-0.77267 -1.76611,-0.11038 0,0 -0.11038,0.11038 -0.11038,0.11038 l -16.5573,19.42723 c -0.66229,0.77267 -0.5519,1.2142 0,1.76611 l 2.20764,1.98687 c 0.6623,0.66229 1.21421,0.66229 1.98688,0.33115 l 18.98569,-7.39559 0.11038,0.11038 -6.51253,18.87531 z"
             style="fill:#ffffff;fill-opacity:1;fill-rule:nonzero;stroke:none"
             inkscape:connector-curvature="0" /><path
             id="path4922"
             d="m 401.73648,211.13017 1.65573,1.10381 c 0.55191,0.44153 1.10382,0.22077 1.43496,-0.22076 l 1.2142,-1.76611 c 0.33115,-0.33115 0.33115,-0.88306 -0.11038,-1.2142 l -8.38903,-6.18139 c -0.55191,-0.33115 -1.10381,-0.22076 -1.43496,0.11038 l -1.2142,1.76611 c -0.44153,0.55191 -0.33115,1.10382 0.11038,1.43497 l 1.54535,1.10382 -11.81087,15.895 -1.76611,-1.32459 c -0.55191,-0.33114 -1.10382,-0.11038 -1.43497,0.33115 l -1.2142,1.65573 c -0.33114,0.44153 -0.33114,0.99344 0.11038,1.32458 l 8.83056,6.40215 c 0.44153,0.33115 0.99344,0.33115 1.32458,-0.11038 l 1.32459,-1.76611 c 0.33114,-0.55191 0.33114,-0.99344 -0.22077,-1.43496 l -1.76611,-1.21421 11.81087,-15.89499 z"
             style="fill:#ffffff;fill-opacity:1;fill-rule:nonzero;stroke:none"
             inkscape:connector-curvature="0" /><path
             id="path4920"
             d="m 380.98467,193.35867 c 0.55191,-0.88305 0.44153,-0.99343 -0.22076,-1.43496 l -3.97375,-2.31802 c -0.66229,-0.44153 -0.77267,-0.33115 -1.32458,0.33114 l -11.25896,18.76493 -6.40215,-3.75298 c -0.6623,-0.44153 -1.21421,-0.33115 -1.54535,0.44152 l -1.54535,2.53879 c -0.44153,0.66229 -0.22076,1.10382 0.44153,1.43496 l 16.99882,10.04476 1.76611,1.10382 c 0.66229,0.33115 0.99344,0.22076 1.32458,-0.22076 0,0 0,-0.11039 0,-0.11039 l 1.43497,-2.98031 c 0.33114,-0.66229 0,-1.10382 -0.77268,-1.54535 l -6.18138,-3.6426 11.25895,-18.65455 z"
             style="fill:#ffffff;fill-opacity:1;fill-rule:nonzero;stroke:none"
             inkscape:connector-curvature="0" /><path
             id="path4916"
             d="m 284.95239,160.02333 1.98687,0.33114 c 0.66229,0 1.10382,-0.33114 1.2142,-0.88305 l 0.33115,-2.09726 c 0.11038,-0.55191 -0.22077,-0.99344 -0.77268,-1.10382 l -10.26552,-1.76611 c -0.55191,-0.11038 -1.10382,0.22076 -1.10382,0.66229 l -0.44152,2.20764 c -0.11039,0.66229 0.22076,1.10382 0.77267,1.2142 l 1.87649,0.33115 -3.31145,19.42722 -2.20764,-0.33115 c -0.6623,-0.11038 -0.99344,0.33115 -1.10382,0.88306 l -0.44153,2.09726 c 0,0.44152 0.22076,0.88305 0.77267,0.99343 l 10.81743,1.8765 c 0.55191,0.11038 0.99344,-0.33115 1.10382,-0.6623 l 0.33115,-2.20763 c 0.11038,-0.6623 -0.22077,-1.10382 -0.77268,-1.21421 l -2.20763,-0.33114 3.42184,-19.42722 z"
             style="fill:#ffffff;fill-opacity:1;fill-rule:nonzero;stroke:none"
             inkscape:connector-curvature="0" /><path
             id="path4914"
             d="m 252.05857,172.3861 c 0.22076,-1.32458 1.87649,-1.87649 2.86993,-2.31802 l 4.8568,-1.76611 c 3.31146,-1.10382 5.5191,-3.09069 5.85025,-6.84368 0.44152,-5.73986 -3.97375,-9.49284 -9.49285,-9.93437 -2.64917,-0.22077 -5.85024,0.11038 -8.60979,0.77267 -0.66229,0.11038 -0.88306,0.44153 -0.88306,0.77267 0,0.22077 0,0.44153 0.11038,0.6623 l 0.88306,3.42184 c 0,0.33114 0.22076,0.77267 0.77267,0.77267 0.11039,0 0.44153,0 0.6623,-0.11038 2.09725,-0.66229 4.41527,-0.88306 6.40215,-0.77268 1.76611,0.11039 3.75298,1.21421 3.6426,3.20108 -0.11038,1.54535 -1.43496,2.09726 -2.75955,2.64917 l -5.51909,2.09725 c -3.20108,1.10382 -5.29834,3.42184 -5.62948,6.84368 -0.44153,5.07757 4.52566,8.49941 9.27208,8.83056 2.98031,0.22076 5.5191,-0.11038 8.16826,-0.99344 0.6623,-0.22076 0.88306,-0.44153 0.99344,-0.88305 0,-0.11039 -0.11038,-0.33115 -0.11038,-0.66229 l -1.10382,-3.20108 c -0.11038,-0.55191 -0.33115,-0.66229 -0.66229,-0.77267 -0.22077,0 -0.44153,0.11038 -0.77268,0.11038 -1.76611,0.55191 -3.97374,1.10382 -5.62947,0.88305 -1.65573,-0.11038 -3.42184,-0.88305 -3.31146,-2.75955"
             style="fill:#ffffff;fill-opacity:1;fill-rule:nonzero;stroke:none"
             inkscape:connector-curvature="0" /><path
             id="path4912"
             d="m 4.2511124,299.5461 -13.4665966,-8.27865 c -0.7726736,-0.44152 -1.2142018,-0.22076 -1.6557288,0.44153 l -1.986875,3.20108 c -0.55191,0.77267 -0.55191,1.2142 0.220764,1.76611 l 21.9660057,13.35621 c 0.9934373,0.55191 1.3245833,0.22077 1.8764933,-0.44152 l 1.766111,-2.86993 c 0.331146,-0.77268 0.441527,-1.21421 0.110382,-1.8765 l -7.5059723,-18.76493 0,0 13.5769783,8.27865 c 0.772674,0.44153 1.324584,0.22076 1.655729,-0.44153 l 2.097257,-3.42184 c 0.55191,-0.88306 0.110382,-1.2142 -0.441527,-1.54535 L 0.49812648,275.59322 c -0.88305552,-0.55191 -1.21420134,-0.33115 -1.65572908,0.33114 l -1.7661111,2.98032 c -0.4415277,0.55191 -0.4415277,1.2142 -0.2207638,1.87649 l 7.3955899,18.65455 0,0.11038 z"
             style="fill:#ffffff;fill-opacity:1;fill-rule:nonzero;stroke:none"
             inkscape:connector-curvature="0" /><path
             id="path4910"
             d="m 16.172362,259.8086 c 0.331146,-0.55191 0.110382,-1.10382 -0.331146,-1.43496 l -1.655729,-1.32459 c -0.331146,-0.22076 -0.993437,-0.22076 -1.324583,0.11038 l -6.2917708,8.27865 c -0.4415278,0.55191 -0.2207639,1.10382 0,1.32458 l 1.766111,1.32459 c 0.5519097,0.44152 1.1038194,0.33114 1.4349652,-0.11039 l 1.2142016,-1.54534 15.784617,12.14201 -1.324583,1.65573 c -0.441528,0.55191 -0.220764,1.10382 0.220764,1.43496 l 1.766111,1.21421 c 0.331146,0.33114 0.883055,0.33114 1.214201,-0.11039 l 6.622917,-8.60979 c 0.441527,-0.44152 0.331145,-0.99343 0,-1.32458 l -1.766111,-1.2142 c -0.55191,-0.55191 -1.10382,-0.33115 -1.434966,0.11038 l -1.434965,1.65573 -15.784617,-11.92125 1.324583,-1.65573 z"
             style="fill:#ffffff;fill-opacity:1;fill-rule:nonzero;stroke:none"
             inkscape:connector-curvature="0" /><path
             id="path4908"
             d="m 36.261875,239.0568 c 0.55191,-0.55191 0.441528,-1.10382 -0.110382,-1.65573 l -2.207639,-2.09726 c -0.662291,-0.55191 -1.214201,-0.44153 -1.766111,0.11038 l -10.486284,11.25896 c -0.55191,0.66229 -0.662292,1.10382 0.110382,1.76611 l 18.985694,17.44035 c 0.551909,0.44153 1.103819,0.44153 1.655729,-0.11038 l 2.759548,-2.98032 c 0.55191,-0.66229 0.662292,-1.10382 0,-1.65573 l -15.894999,-14.57041 6.954062,-7.50597 z"
             style="fill:#ffffff;fill-opacity:1;fill-rule:nonzero;stroke:none"
             inkscape:connector-curvature="0" /><path
             id="path4906"
             d="m 64.188506,221.39569 -2.649167,5.40871 c -1.545347,2.98031 -1.434965,6.07101 0.662292,8.72017 3.311458,4.08414 9.161701,3.0907 12.914687,0.11039 2.207639,-1.8765 3.863368,-3.86337 5.187951,-6.29177 0.331146,-0.6623 0.331146,-0.99344 0.110382,-1.21421 -0.110382,-0.22076 -0.331146,-0.33114 -0.55191,-0.44152 l -2.980312,-1.65573 c -0.441528,-0.22077 -0.772674,-0.22077 -1.103819,0 -0.110382,0.11038 -0.220764,0.33114 -0.441528,0.55191 -0.772674,1.65573 -2.097257,3.42184 -3.42184,4.41527 -1.214202,1.10382 -3.090695,1.76612 -4.304896,0.33115 -0.772674,-1.10382 0,-2.64917 0.441528,-3.75299 l 2.31802,-4.52566 c 1.545348,-3.09069 1.766112,-6.071 -0.551909,-8.94093 -3.642604,-4.52566 -9.382465,-4.19452 -13.797743,-0.77268 -1.986875,1.65573 -4.194513,4.08414 -5.629479,6.40216 -0.441527,0.66229 -0.441527,0.99343 -0.110382,1.2142 0.110382,0.22076 0.331146,0.33114 0.55191,0.44153 l 2.869931,1.87649 c 0.441527,0.22076 0.772673,0.44153 1.214201,0.11038 0.110382,-0.22076 0.220764,-0.33115 0.331146,-0.55191 1.103819,-1.87649 2.649166,-3.6426 4.194513,-4.96719 1.324584,-1.10382 3.532223,-1.76611 4.856806,-0.22076 0.883055,1.2142 0.441528,2.53878 -0.110382,3.75299"
             style="fill:#ffffff;fill-opacity:1;fill-rule:nonzero;stroke:none"
             inkscape:connector-curvature="0" /><path
             id="path4902"
             d="m 104.80906,208.03947 c -0.66229,0.44153 -0.77267,0.88306 -0.44153,1.54535 l 1.43497,2.75955 c 0.33114,0.55191 0.77267,0.77267 1.43496,0.33114 l 17.55073,-9.05132 1.87649,-0.99343 c 0.6623,-0.33115 0.77268,-0.77268 0.44153,-1.21421 0,0 0,-0.11038 0,-0.11038 l -1.76611,-2.75955 c -0.55191,-0.66229 -1.10382,-0.55191 -1.76611,-0.11038 l -6.40215,3.20108 -10.15514,-19.20646 c -0.44153,-0.77267 -0.55191,-0.88305 -1.32458,-0.55191 l -4.08414,2.20764 c -0.77267,0.33115 -0.77267,0.44153 -0.33114,1.2142 l 10.15514,19.31684 -6.62292,3.42184 z"
             style="fill:#ffffff;fill-opacity:1;fill-rule:nonzero;stroke:none"
             inkscape:connector-curvature="0" /><path
             id="path4900"
             d="m 135.05371,173.37954 c 0.55191,-0.22076 0.66229,-0.77267 0.55191,-1.32458 l -0.88305,-1.98688 c -0.11039,-0.44152 -0.6623,-0.77267 -1.21421,-0.44152 l -9.60322,3.75298 c -0.55191,0.33115 -0.77268,0.88306 -0.6623,1.2142 l 0.88306,2.09726 c 0.22076,0.66229 0.66229,0.77267 1.32458,0.55191 l 1.65573,-0.66229 7.50597,18.3234 -1.98687,0.77267 c -0.66229,0.33115 -0.77267,0.88306 -0.55191,1.32459 l 0.88305,1.98687 c 0.11039,0.44153 0.55191,0.77268 1.10382,0.55191 l 10.15514,-4.08413 c 0.55191,-0.22076 0.77268,-0.66229 0.66229,-1.2142 l -0.88305,-1.98688 c -0.33115,-0.66229 -0.77268,-0.77267 -1.32458,-0.55191 l -2.09726,0.77268 -7.39559,-18.3234 1.87649,-0.77268 z"
             style="fill:#ffffff;fill-opacity:1;fill-rule:nonzero;stroke:none"
             inkscape:connector-curvature="0" /><path
             id="path4898"
             d="m 157.90277,180.44399 3.97375,-3.31146 c 2.64917,-2.31802 3.97375,-5.07757 2.86993,-8.60979 -1.65573,-5.5191 -7.17482,-7.39559 -12.47316,-5.85025 -2.53878,0.77268 -5.40871,2.20764 -7.72673,3.86337 -0.55191,0.33115 -0.66229,0.66229 -0.55191,0.99344 0,0.22076 0.22076,0.44153 0.33114,0.66229 l 1.98688,2.75955 c 0.22076,0.44153 0.55191,0.66229 1.10382,0.55191 0.11038,-0.11038 0.33114,-0.11038 0.55191,-0.44153 1.76611,-1.2142 3.75298,-2.31802 5.73986,-2.98031 1.65573,-0.44153 3.97375,-0.22077 4.52566,1.65573 0.44153,1.54534 -0.44153,2.53878 -1.54535,3.42184 l -4.52566,3.97375 c -2.4284,2.20764 -3.6426,5.18795 -2.64916,8.38903 1.54534,4.96718 7.39559,6.29177 11.92124,4.8568 2.75955,-0.77267 5.07757,-1.98687 7.17483,-3.75299 0.55191,-0.55191 0.66229,-0.88305 0.55191,-1.2142 0,-0.11038 -0.11038,-0.33114 -0.33115,-0.44152 l -2.09725,-2.64917 c -0.33115,-0.55191 -0.55191,-0.66229 -0.99344,-0.55191 -0.11038,0.11038 -0.33115,0.22076 -0.66229,0.44153 -1.32458,1.10382 -3.31146,2.31802 -4.85681,2.75955 -1.54534,0.55191 -3.53222,0.44152 -4.08413,-1.43497 -0.33114,-1.2142 0.99344,-2.4284 1.76611,-3.09069"
             style="fill:#ffffff;fill-opacity:1;fill-rule:nonzero;stroke:none"
             inkscape:connector-curvature="0" /><path
             id="path4896"
             d="m 215.30138,178.34673 -3.20107,-25.27747 c -0.11039,-0.99343 -0.6623,-1.2142 -1.32459,-1.10381 l -3.42184,0.44152 c -0.77267,0.11039 -1.32458,0.44153 -1.65573,1.10382 l -10.04475,17.32997 -0.11039,0 -1.98687,-15.56386 c -0.11038,-0.88305 -0.55191,-1.10382 -1.32458,-0.99343 l -3.75299,0.44152 c -0.88306,0.11039 -1.32458,0.33115 -1.10382,1.32459 l 3.0907,25.38784 c 0.11038,0.99344 0.66229,1.2142 1.54534,0.99344 l 3.31146,-0.33114 c 0.88306,-0.11039 1.2142,-0.44153 1.54535,-1.10382 l 10.04475,-17.44035 0.11039,0 1.98687,15.67423 c 0.11038,0.88306 0.55191,1.10382 1.32458,0.99344 l 3.97375,-0.44153 c 0.99344,-0.11038 0.99344,-0.77267 0.99344,-1.43496"
             style="fill:#ffffff;fill-opacity:1;fill-rule:nonzero;stroke:none"
             inkscape:connector-curvature="0" /><path
             id="path4888"
             d="m 235.50128,155.2769 c 0.66229,0 0.99343,-0.44152 0.99343,-0.99343 l 0,-2.20764 c 0,-0.44153 -0.33114,-0.88306 -0.88305,-0.88306 l -10.48629,0.11038 c -0.66229,0 -0.99343,0.44153 -0.99343,0.88306 l 0,2.20764 c 0,0.77267 0.44152,0.99344 0.99343,0.99344 l 1.98688,0 0.22076,19.75836 -2.09725,0.11038 c -0.6623,0 -0.99344,0.44153 -0.99344,0.99344 l 0,2.09726 c 0,0.55191 0.33114,0.99344 0.88305,0.99344 l 10.92782,-0.22077 c 0.66229,0 0.99343,-0.44153 0.99343,-0.88305 l 0,-2.20764 c 0,-0.66229 -0.44152,-0.99344 -0.99343,-0.99344 l -2.20764,0 -0.33115,-19.75837 1.98688,0 z"
             style="fill:#ffffff;fill-opacity:1;fill-rule:nonzero;stroke:none"
             inkscape:connector-curvature="0" /></g><path
           style="fill:#ffffff;fill-opacity:1;fill-rule:nonzero;stroke:none"
           d="m 433.19533,328.02464 8.83056,-3.09069 C 424.47516,291.81936 399.30808,263.34082 368.18037,241.70596 333.52044,217.53232 293.4518,203.40343 251.28589,200.31274 l 10.48629,10.59666 c 65.89802,7.83712 123.73815,44.59431 163.03412,103.53826 l 0.22077,0.33115 c 0.33114,0.55191 0.66229,0.99343 0.99344,1.43496 2.20763,3.20108 4.41527,6.7333 6.29177,10.26552 0.33114,0.55191 0.66229,0.99344 0.88305,1.54535"
           id="path4886"
           inkscape:connector-curvature="0" /><path
           style="fill:#ffffff;fill-opacity:1;fill-rule:nonzero;stroke:none"
           d="m 449.09033,394.03304 c 1.65573,0.66229 3.20108,0.99344 4.41528,0.99344 1.87649,0 3.42184,-0.55191 4.41528,-0.99344 0.11038,0 0.22076,-0.11038 0.33114,-0.11038 l 49.00958,-22.40754 c 3.31146,-1.43496 5.5191,-3.86336 6.40216,-6.95406 1.2142,-3.86337 0,-8.16826 -1.10382,-11.14857 -1.10382,-2.86993 -2.53879,-5.07757 -2.98032,-5.62948 -0.55191,-1.10382 -1.87649,-1.54535 -2.86993,-1.10382 l -20.08951,8.94093 -0.55191,-0.88305 c -2.86993,-3.86337 -4.41528,-7.83712 -5.18795,-10.70705 l -3.20108,1.32458 c 0.77268,2.86993 2.20764,6.62292 4.96719,10.48629 l 0.77267,1.10382 -23.29059,10.26552 c -1.10381,0.55191 -1.65572,1.76611 -1.2142,2.86993 l 0.33115,0.88305 c 1.98687,4.41528 2.64917,8.94094 1.98687,12.80431 -0.55191,3.42184 -2.20763,5.96062 -4.41527,7.06444 l -0.22077,0.11039 c -0.99343,0.44152 -1.98687,0.66229 -2.98031,0.66229 -1.54535,0 -3.09069,-0.55191 -4.63604,-1.54535 0.11038,1.43497 0.11038,2.64917 0.11038,3.97375"
           id="path4882"
           inkscape:connector-curvature="0" /><path
           inkscape:connector-curvature="0"
           id="path5817"
           style="fill:#274488;fill-opacity:1;fill-rule:nonzero;stroke:none"
           d="m 462.99846,370.89699 c 1.76611,4.63604 2.31802,9.38246 1.65573,13.57698 -0.11038,0.22076 -0.11038,0.55191 -0.22076,0.88305 l -0.55191,2.20764 41.94513,-19.20645 c 2.42841,-1.10382 3.97375,-2.64917 4.52566,-4.74643 1.32459,-4.41528 -1.43496,-10.15514 -2.64916,-12.47316 l -0.55191,-0.88305 -44.59431,19.64798 0.44153,0.99344 z" /><path
           inkscape:connector-curvature="0"
           id="path5813"
           style="fill:#274488;fill-opacity:1;fill-rule:nonzero;stroke:none"
           d="m 5.3880347,370.89699 c -1.766111,4.63604 -2.3180207,9.38246 -1.6557291,13.57698 0.1103819,0.22076 0.1103819,0.55191 0.2207639,0.88305 l 0.4415277,2.20764 -41.8347552,-19.20645 c -2.428403,-1.10382 -3.97375,-2.64917 -4.52566,-4.74643 -1.324583,-4.41528 1.434966,-10.15514 2.649167,-12.47316 l 0.55191,-0.88305 44.5943035,19.64798 -0.4415278,0.99344 z" /></g><g
         id="g4956"><path
           style="fill:#274488;fill-opacity:1;fill-rule:nonzero;stroke:none"
           d="m 444.77439,612.97563 -75.39086,68.65757 c -17.77149,-11.59011 -40.9517,-18.65455 -66.44993,-18.65455 -26.60205,0 -50.77569,7.72673 -68.76795,20.31027 -17.99225,-12.58354 -42.1659,-20.31027 -68.76795,-20.31027 -25.49822,0 -48.67843,7.06444 -66.339542,18.65455 L 23.556911,612.97563 c 0,0 36.42604,-34.54955 36.646804,-62.47618 0.110382,-28.03701 -8.168264,-50.66531 -18.433784,-79.25423 -3.752986,-10.70705 -8.168264,-27.59549 -10.265521,-47.13309 -0.441527,-3.75299 -0.883055,-7.83712 -1.103819,-11.92125 -0.220764,-3.6426 -0.220764,-7.39559 -0.331146,-11.14858 -0.110382,-23.1802 3.863368,-47.90576 15.563854,-69.31985 1.766111,-3.20108 3.642604,-6.29177 5.739861,-9.27209 6.071006,-8.72017 55.41173,-90.40281 160.16419,-101.10985 l 0.44153,-0.33115 22.18677,-22.18677 22.29715,22.18677 0.33115,0.33115 c 104.75246,10.70704 154.09319,92.38968 160.16419,101.10985 2.09726,2.98032 4.08414,6.07101 5.73987,9.27209 11.70048,21.41409 15.67423,46.13965 15.56385,69.31985 0,3.75299 -0.11038,7.50598 -0.33115,11.14858 -0.22076,4.08413 -0.66229,8.16826 -0.99343,11.92125 -2.20764,19.5376 -6.51254,36.42604 -10.37591,47.13309 -10.15513,28.58892 -18.54416,51.21722 -18.3234,79.25423 0.11038,27.92663 36.53642,62.47618 36.53642,62.47618"
           id="path5893"
           inkscape:connector-curvature="0" /><g
           id="g4843"><path
             id="path4618"
             d="m 183.72111,545.75303 45.25659,96.14267 c -1.65573,3.6426 1.10382,8.16826 4.63604,8.16826 3.53222,0 6.84368,-4.52566 5.18795,-8.05788 l 45.58774,-95.59076 c 7.72674,-3.75299 11.14858,-8.49941 10.70705,-11.70049 -0.33114,-3.42184 -2.75955,-5.51909 -5.62948,-6.62291 0.22077,-17.32997 -0.55191,-78.81271 -0.33114,-113.91416 3.86337,-0.88306 3.86337,-4.96719 3.53222,-18.21303 -0.22076,-12.69392 0.88306,-16.99881 -7.50597,-16.99881 -1.10382,0 -3.31146,0.11038 -3.31146,0.11038 l 0,4.30489 c -0.11038,2.20764 -0.11038,2.86993 -1.32458,3.31146 -3.53223,1.43497 -7.28521,2.64917 -11.36934,4.3049 -2.86993,0.99344 -89.18861,31.90038 -89.18861,31.90038 0,0 -3.97375,1.10382 -3.97375,4.96719 0,0.33114 -0.11038,3.6426 -0.11038,4.74642 l 0,12.36278 c 0,3.20107 2.09725,4.30489 3.97375,4.08413 0.11038,0 0.11038,0.33114 0.11038,0.55191 -0.11038,11.36934 -0.22076,70.8652 -0.22076,77.15697 -3.97375,1.21421 -5.07757,3.97375 -5.07757,3.97375 -1.8765,4.08414 0.11038,10.26552 9.05132,15.01195"
             style="fill:#ffffff;fill-opacity:1;fill-rule:nonzero;stroke:none"
             inkscape:connector-curvature="0" /><g
             id="g4830"><path
               inkscape:connector-curvature="0"
               id="path5833"
               style="fill:#274488;fill-opacity:1;fill-rule:nonzero;stroke:none"
               d="m 282.21491,427.41255 c 0,0.11038 -5.18795,1.54535 -8.94094,2.20764 -4.63604,0.77267 -7.39559,0.88305 -8.27864,0.99344 -0.99344,0.22076 -3.53222,0.22076 -3.42184,1.65573 0,0.99343 1.10382,1.2142 2.20764,1.32458 1.65573,0.11038 5.96062,-0.33115 8.49941,-0.66229 6.071,-0.88306 9.93437,-2.09726 9.93437,-1.8765 l 0,7.61636 c 0,0.22076 -8.49941,3.09069 -17.66111,4.08413 -6.18139,0.55191 -9.05132,0.44153 -12.69392,0.55191 -0.6623,0 -2.09726,-0.22076 -2.09726,0.99344 0,1.2142 1.32458,1.32458 1.76611,1.43496 4.63604,0.44153 10.59667,0.55191 16.77806,0.11038 6.84368,-0.44152 13.79774,-2.86993 13.79774,-2.64916 l 0,8.16826 c -2.64917,1.2142 -6.51254,2.4284 -9.71361,2.98031 -4.08413,0.66229 -9.49285,0.99344 -10.26552,0.99344 -0.77268,0 -1.10382,0.44153 -1.2142,0.77267 -0.11039,0.55191 0.22076,0.99344 0.99343,1.21421 1.2142,0.22076 4.19452,0.33114 7.83712,0.22076 2.64917,-0.11038 9.05132,-0.77267 12.2524,-1.2142 l -0.11039,6.29177 c -6.071,3.20108 -15.45347,4.74642 -21.52447,5.62948 -9.16171,1.43496 -17.55073,1.65573 -18.9857,1.65573 -0.77267,0.11038 -1.54534,0.11038 -1.65573,0.88305 0,0.66229 0.44153,1.2142 1.65573,1.2142 1.10382,0 8.27865,0.22077 19.53761,-0.77267 5.40871,-0.44153 16.11576,-2.53878 20.97256,-3.53222 l -0.11038,6.18139 c -5.40871,2.64916 -13.90812,4.63604 -26.16052,6.40215 -15.01194,2.20764 -43.71125,1.2142 -45.25659,0.99344 -2.09726,-0.11039 -2.42841,0.33114 -2.53879,1.10382 -0.11038,0.77267 0.66229,1.2142 2.20764,1.54534 1.54535,0.22077 21.19333,2.09726 37.08833,1.32459 12.03163,-0.55191 29.3616,-3.97375 34.65993,-4.96719 l -0.11038,4.8568 c -9.05132,6.18139 -23.95288,6.84368 -24.94632,6.84368 -0.99344,0.11039 -1.65573,0.55191 -1.76611,1.10382 -0.11038,0.55191 0.55191,0.99344 1.32458,1.10382 0.77268,0.11039 2.98032,0.33115 7.61636,0 3.75298,-0.22076 13.79774,-2.31802 17.77149,-3.20107 l -0.11038,4.8568 c -6.7333,3.97375 -22.29715,6.29177 -34.32878,7.39559 0,0 -1.43497,0.11038 -4.08414,0.22077 l -0.22076,-3.20108 c 0,-0.99344 -0.77267,-1.65573 -1.76611,-1.65573 -7.06445,0.33115 -9.60323,0.33115 -16.66767,0 l -0.11039,0 c -0.88305,0 -1.65573,0.66229 -1.65573,1.65573 l -0.22076,3.20108 c -6.40215,-0.22077 -13.90812,-0.77268 -22.29715,-1.65573 -1.2142,-0.11038 -2.4284,-0.44153 -2.53879,0.44153 -0.22076,0.55191 0.11039,0.99343 1.65573,1.43496 1.2142,0.22076 17.88188,2.53879 22.07639,2.98031 0.22076,0 0.55191,0 0.88306,0 l -1.10382,20.53104 c 0,0.44153 0.22076,0.88306 0.44152,1.32459 0.33115,0.33114 0.77268,0.55191 1.21421,0.55191 8.60979,0.33114 11.5901,0.33114 19.97913,0 0.44153,0 0.88305,-0.22077 1.2142,-0.55191 0.22076,-0.33115 0.44153,-0.77268 0.44153,-1.10382 3.86336,-0.11038 7.72673,-0.33115 10.81743,-0.55191 6.51253,-0.33115 21.85562,-2.53879 25.93975,-3.0907 l 0,4.74643 c -0.77267,0.55191 -1.87649,0.88305 -2.75955,1.32458 -4.30489,1.65573 -20.97256,4.52566 -44.70468,4.52566 -23.8425,0 -38.08177,-3.09069 -40.28941,-3.6426 -2.4284,-0.6623 -5.07757,-1.54535 -4.96719,-3.0907 l 0.33115,-53.756 c -0.33115,-3.64261 0.11038,-18.10264 0.22076,-21.52448 0.11038,-5.62948 8.94094,-9.1617 28.25778,-15.895 20.19989,-7.39559 45.69812,-15.34309 64.90458,-20.64142 l 0,11.5901" /><path
               inkscape:connector-curvature="0"
               id="path5837"
               style="fill:#274488;fill-opacity:1;fill-rule:nonzero;stroke:none"
               d="m 265.27128,416.26397 c -3.86337,1.10382 -5.85024,1.76611 -9.71361,2.98031 -0.44153,0.11038 -0.77267,-0.11038 -0.77267,-0.55191 0,-6.84368 0,-10.26552 0,-16.77805 0,-0.44153 0.33114,-0.77268 0.66229,-0.99344 3.86337,-1.32458 5.85024,-1.98687 9.82399,-3.31146 0.33115,-0.22076 0.66229,0.11038 0.66229,0.44153 0,6.51253 0,10.15514 0,17.21958 0,0.44153 -0.33114,0.88306 -0.66229,0.99344" /><path
               inkscape:connector-curvature="0"
               id="path5841"
               style="fill:#274488;fill-opacity:1;fill-rule:nonzero;stroke:none"
               d="m 248.96787,421.2422 c -3.97375,1.2142 -5.85024,1.76611 -9.82399,3.09069 -0.33115,0.11039 -0.66229,-0.11038 -0.66229,-0.44152 0,-6.51254 0,-9.824 0,-16.33653 0,-0.33115 0.33114,-0.77267 0.66229,-0.88306 3.86337,-1.32458 5.85024,-2.09725 9.82399,-3.42184 0.33115,-0.11038 0.66229,0 0.66229,0.44153 0,6.51254 0,9.93438 0,16.66767 0,0.33115 -0.33114,0.77268 -0.66229,0.88306" /><path
               inkscape:connector-curvature="0"
               id="path5845"
               style="fill:#274488;fill-opacity:1;fill-rule:nonzero;stroke:none"
               d="m 216.23962,432.03755 c -3.97375,1.32458 -5.85024,1.98687 -9.82399,3.53222 -0.33115,0.11038 -0.66229,-0.11038 -0.66229,-0.44153 l 0,-16.00538 c 0,-0.33114 0.33114,-0.77267 0.66229,-0.88305 3.86337,-1.32459 5.85024,-2.09726 9.82399,-3.53222 0.33115,-0.11039 0.66229,0.11038 0.66229,0.44152 0,6.51254 0,9.71361 0,16.00538 0,0.33115 -0.33114,0.6623 -0.66229,0.88306" /><path
               inkscape:connector-curvature="0"
               id="path5849"
               style="fill:#274488;fill-opacity:1;fill-rule:nonzero;stroke:none"
               d="m 272.29157,550.31181 c -0.33115,0.55191 -0.55191,1.2142 -0.99344,2.09726 -3.86337,1.43496 -13.57698,3.86336 -20.53104,4.52566 -1.32458,0.11038 -3.31146,0.22076 -3.31146,1.2142 0,0.88305 0.77268,1.2142 2.98032,1.2142 5.62947,-0.11038 14.68079,-1.54535 18.65454,-2.31802 -1.10382,2.4284 -2.4284,5.29833 -3.86336,8.38903 -7.50598,2.86993 -21.74525,3.75298 -24.28403,3.97375 -2.75955,0.33114 -3.6426,0.66229 -3.42184,1.54534 0.11038,0.88306 1.87649,0.77268 6.18139,0.88306 4.96718,0.11038 15.895,-0.77268 18.98569,-1.10382 -0.99344,2.20764 -2.09726,4.52566 -3.20108,7.06444 -4.19451,2.86993 -12.14201,3.42184 -14.34965,3.53223 -2.09725,0.11038 -2.86993,0.88305 -2.75955,1.54534 0.11039,0.77268 1.21421,0.99344 2.09726,1.10382 0.77267,0 9.93438,0.11038 10.70705,0.22077 0.55191,0 1.10382,0.33114 0.66229,1.10381 -0.88305,1.98688 -1.43496,3.20108 -2.4284,5.18796 -1.43497,0.66229 -3.31146,1.2142 -4.85681,1.43496 -1.32458,0.22077 -5.62948,0.44153 -7.83711,0.66229 -1.21421,0.33115 -1.43497,0.55191 -1.43497,0.99344 0,0.55191 0.33115,0.88306 1.43497,0.99344 2.75954,0.22076 7.83711,0 8.94093,0.11038 0.77268,0 1.65573,0.33115 1.32459,0.99344 -0.55191,1.32458 -1.10382,2.4284 -1.65573,3.6426 -1.2142,0.55191 -3.0907,0.88306 -4.63605,1.2142 -1.98687,0.44153 -5.73986,0.77268 -8.83055,0.88306 -0.77267,0 -1.43497,0.44153 -1.43497,0.88305 0,0.44153 0.33115,0.88306 1.21421,0.99344 2.09725,0.33115 6.51253,0.33115 8.27864,0.44153 1.43497,0.11038 3.20108,0.33114 2.64917,1.54535 -0.99344,1.98687 -1.54535,3.42184 -2.53879,5.29833 -1.32458,0 -3.6426,0.11038 -5.29833,0.33115 -0.66229,0.11038 -1.54535,0.22076 -1.54535,0.77267 -0.11038,0.55191 0.77268,0.88305 1.54535,1.2142 0.55191,0.22076 2.4284,0.77267 3.75299,1.10382 -0.6623,1.2142 -1.10382,2.31802 -1.65573,3.53222 -1.8765,0.11038 -5.29834,0.33115 -7.9475,0.33115 -1.10382,0 -1.65573,0.55191 -1.65573,0.99343 0,0.44153 0.22076,0.77268 1.43496,0.99344 1.98688,0.55191 5.07757,0.77268 6.62292,0.88306 -1.76611,3.75298 -3.42184,7.39559 -4.96719,10.70705 -12.14201,-25.93976 -34.43916,-73.73514 -38.08177,-81.35149 12.58354,2.98031 29.58236,4.08413 37.52986,4.08413 7.9475,0 25.82938,-1.2142 38.5233,-3.86337" /><path
               inkscape:connector-curvature="0"
               id="path5853"
               style="fill:#274488;fill-opacity:1;fill-rule:nonzero;stroke:none"
               d="m 199.8479,437.90987 c -3.86337,1.43497 -5.85024,2.09726 -9.82399,3.6426 -0.33115,0.11039 -0.66229,0 -0.66229,-0.44152 l 0,-16.22615 c 0,-0.44153 0.33114,-0.88305 0.66229,-0.88305 3.97375,-1.43497 5.96062,-2.09726 9.82399,-3.53223 0.44153,0 0.66229,0.11039 0.66229,0.55191 l 0,16.00538 c 0,0.33115 -0.22076,0.6623 -0.66229,0.88306" /><path
               inkscape:connector-curvature="0"
               id="path5857"
               style="fill:#274488;fill-opacity:1;fill-rule:nonzero;stroke:none"
               d="m 232.6203,426.46326 c -3.97375,1.2142 -5.85024,1.98687 -9.82399,3.31146 -0.33115,0.11038 -0.66229,-0.11038 -0.66229,-0.44153 l 0,-16.00538 c 0,-0.33115 0.33114,-0.77267 0.66229,-0.88306 3.86337,-1.43496 5.85024,-2.09725 9.82399,-3.42184 0.33115,-0.22076 0.66229,0 0.66229,0.33115 0,6.51253 0,9.82399 0,16.22614 0,0.33115 -0.33114,0.77268 -0.66229,0.88306" /><path
               inkscape:connector-curvature="0"
               id="path5869"
               style="fill:#274488;fill-opacity:1;fill-rule:nonzero;stroke:none"
               d="m 259.25546,516.64531 c 0.88306,0.11038 4.85681,0.11038 10.04476,-0.55191 3.86336,-0.55191 9.49284,-1.76611 12.03163,-2.31802 l 0,4.41528 c -5.29834,2.20764 -17.44035,4.41527 -23.95288,5.18795 -3.97375,0.55191 -8.60979,0.99344 -13.13545,1.32458 l -0.88306,-17.32996 c 2.31802,-0.11038 3.86337,-0.11038 3.86337,-0.11038 2.98031,-0.22077 5.96062,-0.33115 8.94094,-0.6623 11.47972,-1.10382 21.08295,-3.31145 25.27746,-4.19451 l 0,6.18139 c -6.51253,5.40871 -21.52448,5.85024 -22.40753,5.85024 -0.88306,0 -1.76611,0.22077 -1.76611,1.10382 0,0.88306 1.10381,0.99344 1.98687,1.10382" /><path
               inkscape:connector-curvature="0"
               id="path5873"
               style="fill:#274488;fill-opacity:1;fill-rule:nonzero;stroke:none"
               d="m 188.73244,534.62653 c 1.98687,0.44153 17.21958,5.96062 45.03583,5.96062 27.70587,0 44.26316,-6.071 46.25003,-6.95406 2.20764,-0.99343 4.19452,-1.65573 5.18796,0 0.88305,1.65573 -0.22077,3.75299 -1.76612,4.74643 -6.071,3.86336 -27.37472,8.72017 -49.67187,8.38902 -22.40753,-0.11038 -44.81507,-5.07757 -47.90576,-6.40215 -3.20108,-1.2142 -4.52566,-3.09069 -3.53222,-4.8568 1.65573,-2.98032 4.41528,-1.43497 6.40215,-0.88306" /><path
               inkscape:connector-curvature="0"
               id="path5877"
               style="fill:#274488;fill-opacity:1;fill-rule:nonzero;stroke:none"
               d="m 281.55262,411.42924 c -3.86337,1.2142 -5.85024,1.76611 -9.71361,2.86993 -0.44153,0.11038 -0.66229,-0.11038 -0.66229,-0.55191 -0.11038,-7.28521 -0.11038,-10.92781 -0.11038,-17.44035 0,-0.44152 0.33114,-0.77267 0.66229,-0.99343 3.97375,-1.32459 5.96062,-1.98688 9.82399,-3.42184 0.33115,-0.11039 0.66229,0.11038 0.66229,0.44152 l 0,18.10264 c 0,0.44153 -0.33114,0.88306 -0.66229,0.99344" /><path
               inkscape:connector-curvature="0"
               id="path5881"
               style="fill:#274488;fill-opacity:1;fill-rule:nonzero;stroke:none"
               d="m 228.06153,502.1632 c 5.07757,0.11038 11.47972,0 11.47972,0 l 1.2142,22.40753 c -5.29833,0.33115 -14.0185,-0.11038 -14.0185,-0.11038 l 1.32458,-22.29715 z" /></g></g><g
           id="g4865"
           style="fill:#ffffff"><path
             id="path4692"
             transform="matrix(0.83369911,0,0,-0.83369906,-50.912262,696.70034)"
             d="m 379.67773,493.125 c -6.62001,0 -11.7832,4.7666 -11.7832,10.72461 0,5.16361 3.44236,7.9441 6.88477,10.0625 -5.56081,3.17761 -8.8711,6.22198 -8.8711,11.65039 0,6.35521 5.0305,10.72461 12.3125,10.72461 8.07642,0 13.90235,-5.03162 13.90235,-12.04883 0,-5.6932 -4.10427,-8.86957 -8.73828,-11.51758 3.83961,-2.1184 7.41406,-4.76804 7.41406,-9.93164 0,-5.56081 -4.76589,-9.66406 -11.1211,-9.66406 z m -0.11914,3.38867 c 3.70722,0 6.35547,2.78067 6.35547,6.35547 0,4.10441 -3.04618,6.22215 -5.95898,7.94336 -3.7072,-2.1184 -6.61914,-4.23656 -6.61914,-8.07617 0,-3.57481 2.64785,-6.22266 6.22265,-6.22266 z m -1.33789,19.3711 c 5.56081,3.0452 8.3418,5.29598 8.3418,9.40039 0,4.2368 -3.44176,7.41406 -7.94336,7.41406 -4.50161,0 -7.67969,-3.17726 -7.67969,-7.41406 0,-3.83961 2.38245,-7.0172 7.28125,-9.40039 z"
             style="fill:#ffffff;fill-opacity:1;fill-rule:nonzero;stroke:none"
             inkscape:connector-curvature="0" /><path
             id="path4690"
             d="m 239.3536,250.81248 -0.11038,-0.22076 -0.22076,0 c 0,0 -3.97375,0 -6.29177,-0.22076 l -0.11038,0 -0.44153,0.88305 16.99882,29.03045 -10.70705,0 c -1.65573,0 -3.75299,-0.22076 -5.5191,-1.54535 l -0.22076,-0.11038 -0.77268,0.44153 0.11039,0.22076 c 0.55191,1.54535 0.99343,4.19452 1.2142,5.18796 l 0,0.22076 0.22076,0 c 1.2142,0 2.53879,0 3.97375,0 l 12.2524,0 c 1.54534,0 2.31802,0 3.75298,0 l 0.33115,0.11038 0,-0.33114 c 0,-0.44153 0.33114,-2.64917 0.44153,-3.0907 l 0.11038,-0.11038 -0.11038,-0.11038 c -2.64917,-2.98032 -5.73987,-8.49941 -8.49941,-13.35622 -4.41528,-8.05788 -6.07101,-12.47316 -6.40216,-16.99882"
             style="fill:#ffffff;fill-opacity:1;fill-rule:nonzero;stroke:none"
             inkscape:connector-curvature="0" /><path
             id="path4686"
             transform="matrix(0.83369911,0,0,-0.83369906,-50.912262,696.70034)"
             d="m 323.53906,492.33008 c -6.75241,0 -11.91601,4.6342 -11.91601,10.72461 0,5.0312 3.44236,7.94368 6.88476,9.92969 -5.42841,3.30999 -8.86914,6.35479 -8.86914,11.7832 0,6.22281 5.03049,10.72461 12.3125,10.72461 8.07642,0 13.90235,-5.16248 13.90235,-12.17969 0,-5.69322 -4.10428,-8.87111 -8.73829,-11.38672 3.83962,-2.1184 7.41407,-4.76608 7.41407,-9.92969 0,-5.56082 -4.63502,-9.66601 -10.99024,-9.66601 z m -0.21094,3.34961 c 3.70723,0 6.35547,2.78066 6.35547,6.35547 0,4.1044 -3.04618,6.22215 -5.95898,7.94336 -3.7072,-2.11841 -6.75195,-4.23657 -6.75195,-8.07618 0,-3.5748 2.78066,-6.22265 6.35546,-6.22265 z m -1.35156,19.38281 c 5.56081,3.0452 8.3418,5.29598 8.3418,9.40039 0,4.10441 -3.44176,7.41602 -7.94336,7.41602 -4.50161,0 -7.67969,-3.17921 -7.67969,-7.41602 0,-3.83961 2.38245,-7.01719 7.28125,-9.40039 z"
             style="fill:#ffffff;fill-opacity:1;fill-rule:nonzero;stroke:none"
             inkscape:connector-curvature="0" /><path
             id="path4684"
             d="m 202.48604,251.14363 c -0.55191,0.11038 -1.65573,0.22076 -2.75955,0.22076 -0.88306,0 -1.76611,-0.11038 -2.86993,-0.22076 l -0.44153,0 0.11038,0.33115 c 0.44153,2.75954 0.55191,5.51909 0.55191,8.60979 l 0,15.67423 c 0,4.41528 -0.33115,4.85681 -1.76611,4.85681 -0.33115,0 -0.99344,-0.11038 -1.76611,-0.22077 l -2.4284,-0.55191 c -0.77268,-0.22076 -1.21421,-0.33114 -1.76612,-0.66229 l -0.11038,0 -0.66229,0.55191 0.11038,0.22077 c 0.33115,0.66229 0.77268,1.76611 0.99344,2.75954 l 0.11038,0.22077 0.11038,0 c 1.32459,0.11038 2.20764,0.22076 3.64261,0.55191 l 5.18795,1.10382 c 0.99344,0.22076 2.09726,0.44153 2.98031,0.77267 l 0.11038,0 0.6623,-0.55191 -0.11039,-0.11038 c -0.44152,-2.98031 -0.55191,-6.29177 -0.55191,-8.16826 l 0,-16.99882 c 0,-3.42184 0.33115,-6.18139 0.88306,-7.9475 l 0.11038,-0.44153 -0.33114,0 z"
             style="fill:#ffffff;fill-opacity:1;fill-rule:nonzero;stroke:none"
             inkscape:connector-curvature="0" /></g><g
           id="g4871"
           style="fill:#ffffff"><path
             id="path4682"
             transform="matrix(0.83369911,0,0,-0.83369906,-50.912262,696.70034)"
             d="m 294.2793,406.79883 c -15.49082,0 -26.21485,11.65238 -26.21485,28.59961 0,16.68242 10.59142,28.06836 27.40625,28.06836 5.69321,0 12.04846,-1.58934 16.94727,-3.31055 0.9268,-3.1776 1.19276,-4.10376 2.25195,-7.94336 0.52961,-1.72121 -0.53023,-2.24989 -1.45703,-1.58789 -3.83961,2.51561 -6.61991,3.57422 -11.25391,3.57422 -11.65121,0 -18.53598,-7.4154 -18.80078,-20.39063 3.57481,-0.13241 11.51774,-0.26367 17.21094,-0.26367 l 13.76953,0 c 1.98601,0 1.98633,-4.76697 1.98633,-5.82617 0,-12.97522 -8.34088,-20.91992 -21.8457,-20.91992 z m -0.82032,6.28906 c 4.89882,0 8.60547,3.70708 8.60547,8.73828 0,3.44241 -1.85427,4.90039 -6.48828,4.90039 l -12.44531,0.39649 c 0.5296,-8.87082 3.44331,-14.03516 10.32812,-14.03516 z"
             style="fill:#ffffff;fill-opacity:1;fill-rule:nonzero;stroke:none"
             inkscape:connector-curvature="0" /><path
             id="path4696"
             transform="matrix(0.83369911,0,0,-0.83369906,-50.912262,696.70034)"
             d="m 430.65234,406.66797 c -19.33042,0 -29.6582,12.44535 -29.6582,29.39258 0,17.21202 10.06294,27.14257 27.14258,27.14257 18.00642,0 29.52539,-11.52019 29.52539,-29.92382 0,-16.81484 -9.79774,-26.61133 -27.00977,-26.61133 z m -1.69531,6.16992 c 8.47361,0 13.24024,8.20716 13.24024,23.30078 0,13.90203 -4.50254,21.05274 -12.84375,21.05274 -8.34123,0 -12.8418,-8.07672 -12.8418,-23.30274 0,-12.84282 3.4421,-21.05078 12.44531,-21.05078 z"
             style="fill:#ffffff;fill-opacity:1;fill-rule:nonzero;stroke:none"
             inkscape:connector-curvature="0" /><path
             id="path4698"
             d="m 371.81193,312.07446 c -2.98031,0 -5.96062,-0.11038 -7.61635,-0.11038 0.88305,4.96719 1.2142,10.70705 1.2142,17.44035 l 0,8.05788 c 0,5.29833 -0.44153,11.5901 -8.05788,11.5901 -2.64917,0 -5.29834,-1.10382 -7.39559,-3.09069 -2.31802,-2.31802 -2.98032,-4.3049 -2.98032,-10.04476 l 0,-6.51253 c 0,-8.49941 0.55191,-13.57698 1.8765,-17.44035 -1.43497,0 -4.41528,0.11038 -7.28521,0.11038 -3.09069,0 -5.96062,-0.11038 -7.50597,-0.11038 0.77267,4.96719 1.10382,10.70705 1.10382,17.44035 l 0,11.25895 c 0,4.52566 -0.44153,11.25896 -1.98688,16.11577 4.08413,0 9.71361,0 13.68736,0.33114 l -0.33114,-7.9475 3.75298,3.20108 c 4.52566,3.75298 8.16827,5.40871 12.80431,5.40871 10.59666,0 14.23927,-6.071 14.23927,-16.44691 l 0,-11.92124 c 0,-8.49941 0.55191,-13.57698 1.87649,-17.44035 -1.54535,0 -4.52566,0.11038 -7.39559,0.11038"
             style="fill:#ffffff;fill-opacity:1;fill-rule:nonzero;stroke:none"
             inkscape:connector-curvature="0" /><path
             id="path4694"
             d="m 282.40256,356.00647 c -0.33115,-1.32458 -1.32458,-5.07757 -1.87649,-6.62291 -3.53223,0.33114 -5.62948,0.44152 -8.05788,0.44152 l -4.08414,0 c -0.11038,-3.09069 -0.22076,-6.73329 -0.22076,-9.38246 l 0,-10.3759 c 0,-6.95407 0.77267,-12.14202 6.84368,-12.14202 1.87649,0 3.42184,0.44153 5.85024,1.65573 0.44153,0.22077 1.32459,0.22077 0.99344,-1.10382 -0.55191,-1.98687 -1.10382,-3.86336 -1.65573,-6.18139 -5.5191,-1.43496 -7.83712,-1.76611 -10.70705,-1.76611 -7.9475,0 -13.02507,3.31146 -13.02507,14.57042 l 0,14.01851 c 0,4.41527 0,7.72673 -0.11038,10.81743 -2.4284,0 -5.07757,-0.33115 -6.29177,-0.55191 -0.22076,0 -0.88305,0 -0.55191,0.99343 0,0.33115 1.2142,4.52566 1.65573,5.96063 1.10382,-0.11038 3.31146,-0.22077 5.5191,-0.22077 0,3.64261 -0.22077,5.5191 -0.33115,8.27865 3.20108,0.99344 9.05132,3.6426 11.59011,5.18795 0.99343,0.66229 1.43496,-0.22076 1.32458,-1.2142 -0.11038,-1.10382 -0.77267,-4.08413 -0.88306,-12.2524 l 6.40216,0 c 2.20763,0 4.63604,0.11039 6.95406,0.6623 0.44153,0.11038 0.88305,-0.11039 0.66229,-0.77268"
             style="fill:#ffffff;fill-opacity:1;fill-rule:nonzero;stroke:none"
             inkscape:connector-curvature="0" /><path
             id="path4688"
             d="m 231.73725,311.96408 c -1.43497,0 -4.41528,0.11038 -7.17483,0.11038 -2.86993,0 -5.73986,-0.11038 -7.50597,-0.11038 0.88306,5.18795 1.10382,9.71361 1.10382,16.22614 l 0,11.0382 c 0,4.30489 -0.33114,12.25239 -1.87649,17.1092 3.42184,0 8.83055,0.11038 12.47316,0.33114 l -0.11038,-10.48628 3.31145,4.3049 c 4.08414,5.51909 6.95407,7.17482 11.25896,7.17482 1.54535,0 2.31802,-0.11038 3.97375,-0.88305 -1.32458,-4.63605 -2.64917,-9.49285 -3.42184,-12.36278 -0.22076,-0.55191 -0.77267,-1.43497 -1.54535,-0.44153 -1.76611,1.87649 -2.09725,2.64917 -4.19451,2.64917 -2.64917,0 -4.74642,-1.43497 -6.29177,-3.97375 -1.32458,-2.09726 -1.76611,-3.86337 -1.76611,-8.16827 l 0,-7.39559 c 0,-7.9475 0.44153,-11.25895 1.76611,-15.12232"
             style="fill:#ffffff;fill-opacity:1;fill-rule:nonzero;stroke:none"
             inkscape:connector-curvature="0" /><path
             id="path4680"
             d="m 158.99555,321.23616 c -1.32458,-3.20107 -1.98687,-5.62948 -2.75955,-9.27208 -0.99343,0.11038 -3.09069,0.11038 -5.18795,0.11038 -1.76611,0 -4.08413,-0.11038 -5.73986,-0.11038 -0.66229,3.97375 -1.43496,6.40215 -2.75955,10.48628 l -5.96062,18.21302 c -1.8765,5.5191 -3.97375,11.47972 -7.9475,16.11577 5.96062,-0.22077 10.59666,0 16.33652,0.44152 0.44153,-4.41527 1.32459,-8.72017 2.64917,-12.91468 l 3.31146,-11.47972 c 0.88305,-2.75955 2.64917,-8.83056 2.64917,-8.83056 0.55191,1.98688 1.32458,3.97375 1.98687,5.62948 l 5.18795,13.57698 c 0.88306,2.4284 2.09726,6.071 2.4284,9.71361 0,1.2142 0.11039,2.4284 0,3.97375 1.32459,-0.11038 3.64261,-0.11038 5.62948,-0.11038 1.76611,0 4.74643,0.22076 6.07101,0.44152 1.32458,0.11039 1.10382,-0.66229 0.66229,-1.10382 -3.09069,-3.97375 -5.62948,-9.38246 -7.9475,-14.90156 l -8.60979,-19.97913 z"
             style="fill:#ffffff;fill-opacity:1;fill-rule:nonzero;stroke:none"
             inkscape:connector-curvature="0" /><path
             id="path4678"
             d="m 131.84159,321.34654 c -0.66229,-2.20764 -2.53878,-9.1617 -2.75954,-9.82399 -10.15514,0.44153 -16.88844,0.44153 -22.84907,0.44153 -7.505968,0 -12.362774,0 -16.446905,0 0.662291,4.74642 1.214201,10.26552 1.214201,17.1092 l 0,28.36816 c 0,4.63604 -0.220764,13.35621 -1.766111,17.44034 2.980312,-0.22076 5.187951,-0.22076 7.39559,-0.22076 l 16.998815,0 c 6.07101,0 8.49941,0.22076 15.12233,0.22076 -1.2142,-4.30489 -2.4284,-8.83055 -2.98031,-10.59666 -0.44153,-1.76611 -1.43497,-0.44153 -1.54535,-0.22077 -2.75955,4.08414 -8.27865,4.52566 -13.35621,4.52566 -1.65573,0 -3.53223,-0.11038 -5.85025,-0.11038 -0.11038,-1.54535 -0.33114,-5.85024 -0.33114,-9.82399 l 0,-9.1617 7.50597,0 c 5.5191,0 11.03819,0.44153 13.24583,0.77267 0.88306,0 0.66229,-0.66229 0.66229,-0.66229 -0.66229,-2.53878 -1.54534,-5.73986 -2.09725,-7.83712 -5.85025,0.55191 -8.94094,0.66229 -13.02507,0.66229 l -6.40216,0 0,-12.8043 c 0,-8.27865 0.88306,-11.03819 10.81743,-11.03819 5.5191,0 8.6098,0 14.6808,4.52565 0.99344,0.88306 2.31802,0.44153 1.76611,-1.76611"
             style="fill:#ffffff;fill-opacity:1;fill-rule:nonzero;stroke:none"
             inkscape:connector-curvature="0" /></g><g
           id="g4768"
           style="fill:#ffffff"><g
             id="g4706"
             style="fill:#ffffff"><path
               style="fill:#ffffff;fill-opacity:1;fill-rule:nonzero;stroke:none"
               d="m 86.805762,566.39445 c 1.876493,1.32458 4.967188,1.87649 8.168264,1.2142 3.201076,-0.66229 5.850244,-2.31802 7.285204,-4.19451 -1.98687,-1.32459 -4.967183,-1.8765 -8.16826,-1.2142 -3.201076,0.66229 -5.850242,2.31802 -7.285208,4.19451"
               id="path4676"
               inkscape:connector-curvature="0" /><path
               style="fill:#ffffff;fill-opacity:1;fill-rule:nonzero;stroke:none"
               d="m 83.052776,577.98455 c 2.207639,0.55191 5.187952,-0.11038 7.9475,-1.98687 2.86993,-1.76611 4.856805,-4.3049 5.519097,-6.62292 -2.097257,-0.55191 -5.077569,0.11038 -7.9475,1.98688 -2.759548,1.76611 -4.856805,4.30489 -5.519097,6.62291"
               id="path4674"
               inkscape:connector-curvature="0" /><path
               style="fill:#ffffff;fill-opacity:1;fill-rule:nonzero;stroke:none"
               d="m 77.423297,588.47084 c 2.207639,0.44153 5.187952,-0.22077 8.057882,-1.98688 2.86993,-1.87649 4.856805,-4.41527 5.519097,-6.73329 -2.207639,-0.44153 -5.187951,0.22076 -8.057882,1.98687 -2.759548,1.76611 -4.746423,4.3049 -5.519097,6.7333"
               id="path4672"
               inkscape:connector-curvature="0" /><path
               style="fill:#ffffff;fill-opacity:1;fill-rule:nonzero;stroke:none"
               d="m 78.747881,613.30677 c 2.097257,-0.88305 4.304895,-3.20107 5.850242,-6.40215 1.545348,-3.20107 2.097257,-6.51253 1.545348,-8.94093 -2.097257,0.88305 -4.304896,3.20107 -5.850243,6.40215 -1.545347,3.20107 -2.097257,6.51253 -1.545347,8.94093"
               id="path4670"
               inkscape:connector-curvature="0" /><path
               style="fill:#ffffff;fill-opacity:1;fill-rule:nonzero;stroke:none"
               d="m 85.039651,621.80618 c 1.655729,-1.54534 3.201077,-4.52566 3.752986,-8.05788 0.55191,-3.6426 0,-6.95406 -1.103819,-9.05132 -1.766111,1.54535 -3.201076,4.52566 -3.752986,8.05789 -0.55191,3.6426 -0.110382,6.95406 1.103819,9.05131"
               id="path4668"
               inkscape:connector-curvature="0" /><path
               style="fill:#ffffff;fill-opacity:1;fill-rule:nonzero;stroke:none"
               d="m 88.351109,623.79306 c 0.110382,3.75299 1.324584,6.84368 2.869931,8.60979 1.324583,-1.98687 2.207639,-5.18795 1.986875,-8.94094 -0.220764,-3.53222 -1.324583,-6.62291 -2.869931,-8.38902 -1.324583,1.87649 -2.207638,5.18795 -1.986875,8.72017"
               id="path4666"
               inkscape:connector-curvature="0" /><path
               style="fill:#ffffff;fill-opacity:1;fill-rule:nonzero;stroke:none"
               d="m 91.993713,594.98337 c 1.65573,-1.54534 3.090695,-4.52566 3.642605,-8.05788 0.551909,-3.6426 0.110381,-6.95406 -1.10382,-9.05132 -1.766111,1.54535 -3.201076,4.52566 -3.752986,8.16827 -0.441528,3.53222 0,6.84368 1.214201,8.94093"
               id="path4664"
               inkscape:connector-curvature="0" /><path
               style="fill:#ffffff;fill-opacity:1;fill-rule:nonzero;stroke:none"
               d="m 88.682255,586.37358 c -2.207639,0.44153 -4.856805,2.20764 -6.954062,4.96719 -2.097257,2.86993 -3.201076,5.96062 -3.090694,8.38903 2.207639,-0.33115 4.856805,-2.09726 6.84368,-4.85681 2.097257,-2.86993 3.201076,-5.96062 3.201076,-8.49941"
               id="path4662"
               inkscape:connector-curvature="0" /><path
               style="fill:#ffffff;fill-opacity:1;fill-rule:nonzero;stroke:none"
               d="m 87.24729,594.87299 c -0.331146,2.20764 0.220764,5.07757 1.766111,7.83712 1.545347,2.75955 3.642604,4.74642 5.519097,5.40871 0.441528,-2.20764 -0.220764,-5.18795 -1.766111,-7.9475 -1.434965,-2.75954 -3.642604,-4.74642 -5.519097,-5.29833"
               id="path4660"
               inkscape:connector-curvature="0" /><path
               style="fill:#ffffff;fill-opacity:1;fill-rule:nonzero;stroke:none"
               d="m 94.201352,615.73518 c 2.207639,1.98687 4.746424,3.09069 6.733298,2.98031 -0.33115,-2.20764 -1.76611,-4.74642 -4.084131,-6.84368 -2.207639,-1.98688 -4.746424,-3.09069 -6.733298,-2.98031 0.331145,2.20764 1.766111,4.74642 4.084131,6.84368"
               id="path4658"
               inkscape:connector-curvature="0" /><path
               style="fill:#ffffff;fill-opacity:1;fill-rule:nonzero;stroke:none"
               d="m 97.181665,627.43566 c 1.876493,2.98032 4.304895,4.96719 6.402155,5.62948 0.33114,-2.53878 -0.55191,-5.85024 -2.42841,-8.72017 -1.766107,-3.0907 -4.304891,-5.07757 -6.402148,-5.62948 -0.220764,2.4284 0.55191,5.73986 2.428403,8.72017"
               id="path4656"
               inkscape:connector-curvature="0" /><path
               style="fill:#ffffff;fill-opacity:1;fill-rule:nonzero;stroke:none"
               d="m 103.58382,564.95949 c -2.09726,0.88305 -4.194517,3.20107 -5.739864,6.40215 -1.545347,3.20107 -1.876493,6.62291 -1.324583,8.94093 1.986875,-0.88305 4.194517,-3.20107 5.739857,-6.40215 1.43497,-3.31146 1.8765,-6.62291 1.32459,-8.94093"
               id="path4654"
               inkscape:connector-curvature="0" /><path
               style="fill:#ffffff;fill-opacity:1;fill-rule:nonzero;stroke:none"
               d="m 110.64826,559.33001 c -1.54535,-1.8765 -4.30489,-3.31146 -7.50597,-3.75299 -3.311459,-0.44153 -6.291771,0.33115 -8.057882,1.76611 1.434965,1.76611 4.304895,3.20108 7.505972,3.64261 3.20108,0.44152 6.18139,-0.22077 8.05788,-1.65573"
               id="path4652"
               inkscape:connector-curvature="0" /><path
               style="fill:#ffffff;fill-opacity:1;fill-rule:nonzero;stroke:none"
               d="m 113.51819,565.29063 c 2.64917,-2.09726 4.52566,-4.74642 5.07757,-7.06444 -2.20764,-0.44153 -5.07757,0.44152 -7.83712,2.53878 -2.75955,1.87649 -4.63604,4.63604 -5.18795,7.06445 2.20764,0.33114 5.07757,-0.55191 7.9475,-2.53879"
               id="path4650"
               inkscape:connector-curvature="0" /><path
               style="fill:#ffffff;fill-opacity:1;fill-rule:nonzero;stroke:none"
               d="m 119.80996,556.57046 c 0.11038,0 0.11038,-0.11038 0.11038,-0.11038 0.88306,-0.44153 1.76612,-0.77268 2.64917,-1.21421 0,0 0.99344,0.6623 2.86993,1.32459 1.87649,0.77267 4.41528,0.99344 7.06445,0.22076 3.20107,-0.77267 5.73986,-2.53878 7.06444,-4.52566 -1.87649,-1.2142 -4.85681,-1.54535 -8.16826,-0.77267 -2.98032,0.77267 -5.5191,2.4284 -6.84368,4.30489 -0.44153,-0.33114 -0.77268,-0.66229 -1.21421,-0.99343 3.42184,-2.09726 6.18139,-4.74643 8.94094,-8.27865 -1.10382,-1.65573 -1.54535,-2.53878 -2.64916,-4.19451 -2.09726,4.63604 -4.19452,8.38902 -7.06445,11.5901 -2.98031,-3.20108 -5.5191,-7.06444 -7.50597,-11.5901 -1.10382,1.65573 -1.65573,2.4284 -2.64917,4.08413 2.64917,3.53222 5.73986,6.29177 9.27209,8.38903 -0.33115,0.33114 -0.77268,0.66229 -1.10382,1.10382 -1.43497,-1.98688 -3.86337,-3.64261 -6.95407,-4.41528 -3.20107,-0.77268 -6.29177,-0.44153 -8.16826,0.77267 1.2142,1.98688 3.86337,3.75299 7.06444,4.52566 2.75955,0.77268 5.29834,0.55191 7.17483,-0.22076 l 0.11038,0"
               id="path4648"
               inkscape:connector-curvature="0" /><path
               style="fill:#ffffff;fill-opacity:1;fill-rule:nonzero;stroke:none"
               d="m 131.40007,565.29063 c 2.75954,1.98688 5.62947,2.86993 7.83711,2.53879 -0.55191,-2.42841 -2.4284,-5.18796 -5.07757,-7.06445 -2.75954,-2.09726 -5.73986,-2.98031 -7.83711,-2.53878 0.44152,2.31802 2.31802,4.96718 5.07757,7.06444"
               id="path4646"
               inkscape:connector-curvature="0" /><path
               style="fill:#ffffff;fill-opacity:1;fill-rule:nonzero;stroke:none"
               d="m 142.32788,560.98574 c 3.20107,-0.44153 5.96062,-1.8765 7.50597,-3.64261 -1.87649,-1.43496 -4.85681,-2.20764 -8.16826,-1.76611 -3.20108,0.44153 -5.96063,1.87649 -7.39559,3.75299 1.76611,1.43496 4.74642,2.09725 8.05788,1.65573"
               id="path4644"
               inkscape:connector-curvature="0" /><path
               style="fill:#ffffff;fill-opacity:1;fill-rule:nonzero;stroke:none"
               d="m 142.65902,573.90042 c 1.54535,3.20108 3.64261,5.5191 5.73986,6.40215 0.55191,-2.31802 0.11039,-5.73986 -1.43496,-8.94093 -1.43497,-3.20108 -3.6426,-5.5191 -5.73986,-6.40215 -0.44153,2.31802 -0.11038,5.62947 1.43496,8.94093"
               id="path4642"
               inkscape:connector-curvature="0" /><path
               style="fill:#ffffff;fill-opacity:1;fill-rule:nonzero;stroke:none"
               d="m 141.22406,633.06514 c 2.20764,-0.66229 4.63604,-2.64916 6.51253,-5.62948 1.76611,-2.98031 2.64917,-6.29177 2.31802,-8.72017 -2.09725,0.55191 -4.52566,2.53878 -6.40215,5.62948 -1.87649,2.86993 -2.64917,6.18139 -2.4284,8.72017"
               id="path4640"
               inkscape:connector-curvature="0" /><path
               style="fill:#ffffff;fill-opacity:1;fill-rule:nonzero;stroke:none"
               d="m 154.80104,608.8915 c -1.98688,-0.11038 -4.52566,0.99343 -6.84368,2.98031 -2.31802,2.09726 -3.75299,4.63604 -4.08413,6.84368 1.98687,0.11038 4.52565,-0.99344 6.84368,-2.98031 2.31802,-2.09726 3.75298,-4.63604 4.08413,-6.84368"
               id="path4638"
               inkscape:connector-curvature="0" /><path
               style="fill:#ffffff;fill-opacity:1;fill-rule:nonzero;stroke:none"
               d="m 153.58684,632.40285 c 1.65573,-1.76611 2.75954,-4.8568 2.86993,-8.60979 0.33114,-3.53222 -0.55191,-6.84368 -1.8765,-8.72017 -1.54534,1.76611 -2.75955,4.8568 -2.98031,8.38902 -0.11038,3.75299 0.66229,6.95407 1.98688,8.94094"
               id="path4636"
               inkscape:connector-curvature="0" /><path
               style="fill:#ffffff;fill-opacity:1;fill-rule:nonzero;stroke:none"
               d="m 159.87861,621.80618 c 1.2142,-2.09725 1.65573,-5.40871 1.10382,-9.05131 -0.55191,-3.53223 -2.09726,-6.51254 -3.75299,-8.05789 -1.2142,2.09726 -1.65573,5.40872 -1.10382,9.05132 0.55191,3.53222 1.98688,6.51254 3.75299,8.05788"
               id="path4634"
               inkscape:connector-curvature="0" /><path
               style="fill:#ffffff;fill-opacity:1;fill-rule:nonzero;stroke:none"
               d="m 166.06,613.30677 c 0.5519,-2.4284 0.11038,-5.73986 -1.43497,-8.94093 -1.54535,-3.20108 -3.86337,-5.5191 -5.85024,-6.40215 -0.55191,2.4284 -0.11038,5.73986 1.43496,8.94093 1.54535,3.20108 3.75299,5.5191 5.85025,6.40215"
               id="path4632"
               inkscape:connector-curvature="0" /><path
               style="fill:#ffffff;fill-opacity:1;fill-rule:nonzero;stroke:none"
               d="m 153.91798,579.75067 c 0.66229,2.31802 2.64917,4.8568 5.5191,6.73329 2.86993,1.76611 5.73986,2.42841 7.9475,1.98688 -0.66229,-2.4284 -2.64917,-4.96719 -5.5191,-6.7333 -2.86993,-1.76611 -5.85024,-2.4284 -7.9475,-1.98687"
               id="path4630"
               inkscape:connector-curvature="0" /><path
               style="fill:#ffffff;fill-opacity:1;fill-rule:nonzero;stroke:none"
               d="m 152.92454,594.98337 c 1.10382,-2.09725 1.65573,-5.40871 1.10382,-8.94093 -0.55191,-3.64261 -1.98687,-6.62292 -3.75298,-8.16827 -1.10382,2.09726 -1.65573,5.40872 -1.10382,9.05132 0.55191,3.53222 1.98687,6.51254 3.75298,8.05788"
               id="path4628"
               inkscape:connector-curvature="0" /><path
               style="fill:#ffffff;fill-opacity:1;fill-rule:nonzero;stroke:none"
               d="m 159.3267,594.87299 c 2.09725,2.75955 4.63604,4.52566 6.84368,4.85681 0.11038,-2.42841 -0.99344,-5.5191 -3.0907,-8.38903 -2.09725,-2.75955 -4.63604,-4.52566 -6.84368,-4.96719 0,2.53879 0.99344,5.62948 3.0907,8.49941"
               id="path4626"
               inkscape:connector-curvature="0" /><path
               style="fill:#ffffff;fill-opacity:1;fill-rule:nonzero;stroke:none"
               d="m 157.67097,594.87299 c -1.98688,0.55191 -4.08413,2.53879 -5.62948,5.29833 -1.54535,2.75955 -2.09726,5.73986 -1.76611,7.9475 1.87649,-0.66229 3.97375,-2.64916 5.51909,-5.40871 1.54535,-2.75955 2.20764,-5.62948 1.8765,-7.83712"
               id="path4624"
               inkscape:connector-curvature="0" /><path
               style="fill:#ffffff;fill-opacity:1;fill-rule:nonzero;stroke:none"
               d="m 158.00211,566.39445 c -1.32458,-1.87649 -3.97375,-3.53222 -7.2852,-4.19451 -3.20108,-0.6623 -6.18139,-0.11039 -8.05789,1.2142 1.32459,1.87649 3.97375,3.53222 7.28521,4.19451 3.20108,0.66229 6.18139,0.11038 8.05788,-1.2142"
               id="path4622"
               inkscape:connector-curvature="0" /><path
               style="fill:#ffffff;fill-opacity:1;fill-rule:nonzero;stroke:none"
               d="m 156.236,571.36164 c -2.75955,-1.8765 -5.85024,-2.53879 -7.9475,-1.98688 0.66229,2.31802 2.64917,4.85681 5.5191,6.62292 2.86993,1.87649 5.85024,2.53878 7.9475,1.98687 -0.66229,-2.31802 -2.64917,-4.8568 -5.5191,-6.62291"
               id="path4620"
               inkscape:connector-curvature="0" /></g><g
             id="g4737"
             style="fill:#ffffff"><path
               style="fill:#ffffff;fill-opacity:1;fill-rule:nonzero;stroke:none"
               d="m 385.38891,581.73754 c -2.86993,-1.76611 -5.85024,-2.4284 -7.9475,-1.98687 0.66229,2.31802 2.64917,4.8568 5.5191,6.73329 2.75955,1.76611 5.85024,2.42841 7.9475,1.98688 -0.66229,-2.4284 -2.64917,-4.96719 -5.5191,-6.7333"
               id="path4704"
               inkscape:connector-curvature="0" /><path
               style="fill:#ffffff;fill-opacity:1;fill-rule:nonzero;stroke:none"
               d="m 379.75943,571.36164 c -2.75955,-1.8765 -5.73986,-2.53879 -7.9475,-1.98688 0.66229,2.31802 2.64917,4.85681 5.5191,6.62292 2.86993,1.87649 5.85024,2.53878 8.05788,1.98687 -0.77267,-2.31802 -2.75955,-4.8568 -5.62948,-6.62291"
               id="path4702"
               inkscape:connector-curvature="0" /><path
               style="fill:#ffffff;fill-opacity:1;fill-rule:nonzero;stroke:none"
               d="m 374.35072,562.19994 c -3.20108,-0.6623 -6.29177,-0.11039 -8.16827,1.2142 1.32459,1.87649 4.08413,3.53222 7.28521,4.19451 3.20108,0.66229 6.18139,0.11038 8.05788,-1.2142 -1.32458,-1.87649 -3.97375,-3.53222 -7.17482,-4.19451"
               id="path4700"
               inkscape:connector-curvature="0" /><path
               style="fill:#ffffff;fill-opacity:1;fill-rule:nonzero;stroke:none"
               d="m 309.00461,586.48396 c 2.75955,-1.87649 4.8568,-4.41527 5.51909,-6.73329 -2.20763,-0.44153 -5.18795,0.22076 -7.9475,1.98687 -2.86993,1.76611 -4.96718,4.3049 -5.62947,6.7333 2.20763,0.44153 5.18795,-0.22077 8.05788,-1.98688"
               id="path4616"
               inkscape:connector-curvature="0" /><path
               style="fill:#ffffff;fill-opacity:1;fill-rule:nonzero;stroke:none"
               d="m 302.27131,613.30677 c 2.09726,-0.88305 4.30489,-3.20107 5.85024,-6.40215 1.54535,-3.20107 2.09726,-6.51253 1.54535,-8.94093 -2.09726,0.88305 -4.3049,3.20107 -5.85024,6.40215 -1.54535,3.20107 -2.09726,6.51253 -1.54535,8.94093"
               id="path4614"
               inkscape:connector-curvature="0" /><path
               style="fill:#ffffff;fill-opacity:1;fill-rule:nonzero;stroke:none"
               d="m 308.56308,621.80618 c 1.76611,-1.54534 3.20108,-4.52566 3.75299,-8.05788 0.55191,-3.6426 0.11038,-6.95406 -1.10382,-9.05132 -1.76611,1.54535 -3.20108,4.52566 -3.75299,8.05789 -0.55191,3.6426 -0.11038,6.95406 1.10382,9.05131"
               id="path4612"
               inkscape:connector-curvature="0" /><path
               style="fill:#ffffff;fill-opacity:1;fill-rule:nonzero;stroke:none"
               d="m 311.87454,623.79306 c 0.22076,3.75299 1.32458,6.84368 2.86993,8.60979 1.43496,-1.98687 2.20764,-5.18795 1.98687,-8.94094 -0.22076,-3.53222 -1.32458,-6.62291 -2.86993,-8.38902 -1.43496,1.87649 -2.20764,5.18795 -1.98687,8.72017"
               id="path4610"
               inkscape:connector-curvature="0" /><path
               style="fill:#ffffff;fill-opacity:1;fill-rule:nonzero;stroke:none"
               d="m 317.6144,615.73518 c 2.31802,1.98687 4.8568,3.09069 6.95406,2.98031 -0.44153,-2.20764 -1.87649,-4.74642 -4.08413,-6.84368 -2.31802,-1.98688 -4.96719,-3.09069 -6.95406,-2.98031 0.33114,2.20764 1.87649,4.74642 4.08413,6.84368"
               id="path4608"
               inkscape:connector-curvature="0" /><path
               style="fill:#ffffff;fill-opacity:1;fill-rule:nonzero;stroke:none"
               d="m 320.70509,627.43566 c 1.8765,2.98032 4.3049,4.96719 6.40216,5.62948 0.33114,-2.53878 -0.55191,-5.85024 -2.31803,-8.72017 -1.98687,-3.0907 -4.30489,-5.07757 -6.51253,-5.62948 -0.22076,2.4284 0.55191,5.73986 2.4284,8.72017"
               id="path4606"
               inkscape:connector-curvature="0" /><path
               style="fill:#ffffff;fill-opacity:1;fill-rule:nonzero;stroke:none"
               d="m 327.10725,564.95949 c -2.09726,0.88305 -4.3049,3.20107 -5.73987,6.40215 -1.54534,3.20107 -1.98687,6.62291 -1.43496,8.94093 2.09726,-0.88305 4.3049,-3.20107 5.73986,-6.40215 1.54535,-3.31146 1.98688,-6.62291 1.43497,-8.94093"
               id="path4604"
               inkscape:connector-curvature="0" /><path
               style="fill:#ffffff;fill-opacity:1;fill-rule:nonzero;stroke:none"
               d="m 318.49745,567.60865 c 3.20108,-0.66229 5.85025,-2.31802 7.17483,-4.19451 -1.87649,-1.32459 -4.8568,-1.8765 -8.05788,-1.2142 -3.20108,0.66229 -5.85024,2.31802 -7.28521,4.19451 1.98688,1.32458 4.96719,1.87649 8.16826,1.2142"
               id="path4602"
               inkscape:connector-curvature="0" /><path
               style="fill:#ffffff;fill-opacity:1;fill-rule:nonzero;stroke:none"
               d="m 320.15318,569.37476 c -2.20764,-0.55191 -5.18795,0.11038 -8.05788,1.98688 -2.86993,1.76611 -4.8568,4.30489 -5.5191,6.62291 2.20764,0.55191 5.18796,-0.11038 7.9475,-1.98687 2.86993,-1.76611 4.85681,-4.3049 5.62948,-6.62292"
               id="path4600"
               inkscape:connector-curvature="0" /><path
               style="fill:#ffffff;fill-opacity:1;fill-rule:nonzero;stroke:none"
               d="m 315.51714,594.98337 c 1.76611,-1.54534 3.20108,-4.52566 3.64261,-8.05788 0.55191,-3.6426 0.11038,-6.95406 -1.10382,-9.05132 -1.76611,1.54535 -3.20108,4.52566 -3.64261,8.16827 -0.55191,3.53222 -0.11038,6.84368 1.10382,8.94093"
               id="path4598"
               inkscape:connector-curvature="0" /><path
               style="fill:#ffffff;fill-opacity:1;fill-rule:nonzero;stroke:none"
               d="m 312.0953,586.37358 c -2.09726,0.44153 -4.74642,2.20764 -6.84368,4.96719 -2.09726,2.86993 -3.20107,5.96062 -3.09069,8.38903 2.20764,-0.33115 4.74642,-2.09726 6.84368,-4.85681 2.09725,-2.86993 3.20107,-5.96062 3.09069,-8.49941"
               id="path4596"
               inkscape:connector-curvature="0" /><path
               style="fill:#ffffff;fill-opacity:1;fill-rule:nonzero;stroke:none"
               d="m 310.77072,594.87299 c -0.33115,2.20764 0.22076,5.07757 1.76611,7.83712 1.54535,2.75955 3.6426,4.74642 5.62948,5.40871 0.33114,-2.20764 -0.33115,-5.18795 -1.87649,-7.9475 -1.54535,-2.75954 -3.64261,-4.74642 -5.5191,-5.29833"
               id="path4594"
               inkscape:connector-curvature="0" /><path
               style="fill:#ffffff;fill-opacity:1;fill-rule:nonzero;stroke:none"
               d="m 334.06131,559.33001 c -1.43497,-1.8765 -4.19452,-3.31146 -7.39559,-3.75299 -3.31146,-0.44153 -6.18139,0.33115 -8.05788,1.76611 1.54534,1.76611 4.19451,3.20108 7.50597,3.64261 3.20107,0.44152 6.18139,-0.22077 7.9475,-1.65573"
               id="path4592"
               inkscape:connector-curvature="0" /><path
               style="fill:#ffffff;fill-opacity:1;fill-rule:nonzero;stroke:none"
               d="m 337.04162,565.29063 c 2.64917,-2.09726 4.52566,-4.74642 5.07757,-7.06444 -2.20764,-0.44153 -5.07757,0.44152 -7.83712,2.53878 -2.75955,1.87649 -4.63604,4.63604 -5.18795,7.06445 2.20764,0.33114 5.18795,-0.55191 7.9475,-2.53879"
               id="path4590"
               inkscape:connector-curvature="0" /><path
               style="fill:#ffffff;fill-opacity:1;fill-rule:nonzero;stroke:none"
               d="m 345.87218,555.24587 c 0.77267,0.44153 1.65572,0.77268 2.53878,1.21421 0.11038,0 0.11038,0.11038 0.22076,0.11038 l 0,0 c 1.98688,0.77267 4.52566,0.99344 7.17483,0.22076 3.20108,-0.77267 5.85024,-2.53878 7.17483,-4.52566 -1.98688,-1.2142 -5.07757,-1.54535 -8.16827,-0.77267 -3.09069,0.77267 -5.62948,2.4284 -6.95406,4.41528 -0.44153,-0.44153 -0.77267,-0.77268 -1.2142,-1.10382 3.6426,-2.09726 6.7333,-4.85681 9.38246,-8.38903 -1.10382,-1.65573 -1.54534,-2.4284 -2.64916,-4.08413 -1.98688,4.52566 -4.52566,8.38902 -7.50597,11.5901 -2.86993,-3.20108 -5.07757,-6.95406 -7.17483,-11.5901 -0.99344,1.65573 -1.54535,2.53878 -2.53879,4.19451 2.64917,3.53222 5.40872,6.18139 8.83056,8.27865 -0.33115,0.33114 -0.77267,0.66229 -1.10382,0.99343 -1.43496,-1.87649 -3.86337,-3.53222 -6.95406,-4.30489 -3.20108,-0.77268 -6.18139,-0.44153 -8.16827,0.77267 1.32459,1.98688 3.86337,3.75299 7.06445,4.52566 2.64917,0.77268 5.18795,0.55191 7.17483,-0.22076 1.76611,-0.66229 2.86993,-1.32459 2.86993,-1.32459"
               id="path4588"
               inkscape:connector-curvature="0" /><path
               style="fill:#ffffff;fill-opacity:1;fill-rule:nonzero;stroke:none"
               d="m 354.92349,565.29063 c 2.75955,1.98688 5.62948,2.86993 7.83712,2.53879 -0.55191,-2.42841 -2.4284,-5.18796 -5.07757,-7.06445 -2.75955,-2.09726 -5.73986,-2.98031 -7.9475,-2.53878 0.55191,2.31802 2.42841,4.96718 5.18795,7.06444"
               id="path4586"
               inkscape:connector-curvature="0" /><path
               style="fill:#ffffff;fill-opacity:1;fill-rule:nonzero;stroke:none"
               d="m 365.85131,560.98574 c 3.20107,-0.44153 5.96062,-1.8765 7.39559,-3.64261 -1.76611,-1.43496 -4.74643,-2.20764 -7.9475,-1.76611 -3.31146,0.44153 -6.07101,1.87649 -7.50597,3.75299 1.76611,1.43496 4.74642,2.09725 8.05788,1.65573"
               id="path4584"
               inkscape:connector-curvature="0" /><path
               style="fill:#ffffff;fill-opacity:1;fill-rule:nonzero;stroke:none"
               d="m 366.18245,573.90042 c 1.54535,3.20108 3.64261,5.5191 5.73986,6.40215 0.55191,-2.31802 0.11039,-5.73986 -1.32458,-8.94093 -1.54535,-3.20108 -3.75299,-5.5191 -5.73986,-6.40215 -0.66229,2.31802 -0.22076,5.62947 1.32458,8.94093"
               id="path4582"
               inkscape:connector-curvature="0" /><path
               style="fill:#ffffff;fill-opacity:1;fill-rule:nonzero;stroke:none"
               d="m 364.74749,633.06514 c 2.20764,-0.66229 4.63604,-2.64916 6.51253,-5.62948 1.87649,-2.98031 2.64917,-6.29177 2.4284,-8.72017 -2.20763,0.55191 -4.63604,2.53878 -6.51253,5.62948 -1.87649,2.86993 -2.64917,6.18139 -2.4284,8.72017"
               id="path4580"
               inkscape:connector-curvature="0" /><path
               style="fill:#ffffff;fill-opacity:1;fill-rule:nonzero;stroke:none"
               d="m 378.32447,608.8915 c -1.98688,-0.11038 -4.52566,0.99343 -6.84368,2.98031 -2.31803,2.09726 -3.75299,4.63604 -4.08414,6.84368 1.98688,0.11038 4.52566,-0.99344 6.84368,-2.98031 2.31802,-2.09726 3.75299,-4.63604 4.08414,-6.84368"
               id="path4578"
               inkscape:connector-curvature="0" /><path
               style="fill:#ffffff;fill-opacity:1;fill-rule:nonzero;stroke:none"
               d="m 377.22065,632.40285 c 1.54534,-1.76611 2.64916,-4.8568 2.86993,-8.60979 0.11038,-3.53222 -0.66229,-6.84368 -1.98688,-8.72017 -1.65573,1.76611 -2.75955,4.8568 -2.86993,8.38902 -0.22076,3.75299 0.55191,6.95407 1.98688,8.94094"
               id="path4576"
               inkscape:connector-curvature="0" /><path
               style="fill:#ffffff;fill-opacity:1;fill-rule:nonzero;stroke:none"
               d="m 383.40204,621.80618 c 1.10381,-2.09725 1.65572,-5.40871 1.10381,-9.05131 -0.55191,-3.53223 -2.09725,-6.51254 -3.75298,-8.05789 -1.2142,2.09726 -1.65573,5.40872 -1.10382,9.05132 0.55191,3.53222 1.98687,6.51254 3.75299,8.05788"
               id="path4574"
               inkscape:connector-curvature="0" /><path
               style="fill:#ffffff;fill-opacity:1;fill-rule:nonzero;stroke:none"
               d="m 382.85013,594.87299 c 2.09725,2.75955 4.63604,4.52566 6.84368,4.85681 0.11038,-2.42841 -0.99344,-5.5191 -3.0907,-8.38903 -2.09726,-2.75955 -4.63604,-4.52566 -6.84368,-4.96719 -0.11038,2.53879 0.99344,5.62948 3.0907,8.49941"
               id="path4572"
               inkscape:connector-curvature="0" /><path
               style="fill:#ffffff;fill-opacity:1;fill-rule:nonzero;stroke:none"
               d="m 377.55179,586.04244 c -0.55191,-3.64261 -1.98687,-6.62292 -3.75298,-8.16827 -1.10382,2.09726 -1.65573,5.40872 -1.10382,9.05132 0.55191,3.53222 1.98687,6.51254 3.75298,8.05788 1.10382,-2.09725 1.65573,-5.40871 1.10382,-8.94093"
               id="path4570"
               inkscape:connector-curvature="0" /><path
               style="fill:#ffffff;fill-opacity:1;fill-rule:nonzero;stroke:none"
               d="m 375.56492,600.17132 c -1.54535,2.75955 -2.09726,5.73986 -1.76611,7.9475 1.87649,-0.66229 3.97375,-2.64916 5.51909,-5.40871 1.54535,-2.75955 2.20764,-5.62948 1.76611,-7.83712 -1.87649,0.55191 -3.97375,2.53879 -5.51909,5.29833"
               id="path4568"
               inkscape:connector-curvature="0" /><path
               style="fill:#ffffff;fill-opacity:1;fill-rule:nonzero;stroke:none"
               d="m 389.58342,613.30677 c 0.55191,-2.4284 0.11039,-5.73986 -1.54534,-8.94093 -1.54535,-3.20108 -3.75299,-5.5191 -5.73986,-6.40215 -0.55191,2.4284 -0.11039,5.73986 1.43496,8.94093 1.54535,3.20108 3.75299,5.5191 5.85024,6.40215"
               id="path4566"
               inkscape:connector-curvature="0" /></g></g></g></g></g></svg>