<?xml version="1.0" encoding="UTF-8" standalone="no"?>
<!-- Generator: Adobe Illustrator 14.0.0, SVG Export Plug-In . SVG Version: 6.00 Build 43363)  -->

<svg
   xmlns:dc="http://purl.org/dc/elements/1.1/"
   xmlns:cc="http://creativecommons.org/ns#"
   xmlns:rdf="http://www.w3.org/1999/02/22-rdf-syntax-ns#"
   xmlns:svg="http://www.w3.org/2000/svg"
   xmlns="http://www.w3.org/2000/svg"
   xmlns:sodipodi="http://sodipodi.sourceforge.net/DTD/sodipodi-0.dtd"
   xmlns:inkscape="http://www.inkscape.org/namespaces/inkscape"
   version="1.2"
   id="Layer_1"
   x="0px"
   y="0px"
   width="623"
   height="700"
   viewBox="0 0 896.58352 1007.3972"
   xml:space="preserve"
   inkscape:version="0.91 r13725"
   sodipodi:docname="Watford.svg"><metadata
     id="metadata25"><rdf:RDF><cc:Work
         rdf:about=""><dc:format>image/svg+xml</dc:format><dc:type
           rdf:resource="http://purl.org/dc/dcmitype/StillImage" /><dc:title></dc:title></cc:Work></rdf:RDF></metadata><defs
     id="defs23" /><sodipodi:namedview
     pagecolor="#ffffff"
     bordercolor="#666666"
     borderopacity="1"
     objecttolerance="10"
     gridtolerance="10"
     guidetolerance="10"
     inkscape:pageopacity="0"
     inkscape:pageshadow="2"
     inkscape:window-width="1440"
     inkscape:window-height="788"
     id="namedview21"
     showgrid="false"
     inkscape:zoom="1.6754617"
     inkscape:cx="149.70758"
     inkscape:cy="166.99222"
     inkscape:window-x="0"
     inkscape:window-y="1"
     inkscape:window-maximized="1"
     inkscape:current-layer="Layer_1" /><g
     id="g4251"
     transform="matrix(2.2001271,0,0,2.2001271,-23.066695,-30.628109)"><g
       id="g4237"><polygon
         style="fill:#ed2127"
         points="2191.977,1284.701 2191.977,1293.381 2195.249,1293.381 2189.46,1306.662 2207.051,1324.253 2224.641,1306.662 2218.852,1293.381 2222.123,1293.381 2222.123,1284.701 "
         id="polygon5"
         transform="matrix(11.576693,0,0,11.576693,-25336.222,-14858.668)" /><path
         inkscape:connector-curvature="0"
         d="m 214.12986,114.40677 -115.790081,0 C 80.592709,155.122 40.062706,248.09442 33.186151,263.86188 48.791533,279.47883 191.72896,422.41626 214.12986,444.81716 l 0,-330.41039 0,0 z"
         id="path9" /><path
         style="fill:#fbee23"
         inkscape:connector-curvature="0"
         d="m 329.90837,114.40677 -115.79008,0 0,330.41039 C 236.51919,422.41626 379.44504,279.47883 395.062,263.86188 388.18544,248.09442 347.65544,155.122 329.90837,114.40677 l 0,0 z"
         id="path11" /><path
         style="fill:#fbee23"
         inkscape:connector-curvature="0"
         d="m 58.712759,33.011041 c 0,19.171003 0,43.134758 0,62.305761 9.400275,0 301.422351,0 310.822631,0 0,-19.171003 0,-43.134758 0,-62.305761 -32.14848,0 -278.674155,0 -310.822631,0 l 0,0 z"
         id="path7" /></g><g
       id="g4228"><polygon
         points="2199.703,1287.221 2199.006,1287.221 2198.425,1290.165 2197.843,1287.221 2197.109,1287.221 2196.519,1290.165 2195.927,1287.221 2195.219,1287.221 2196.122,1291.05 2196.915,1291.05 2197.451,1288.341 2198.037,1291.05 2198.8,1291.05 "
         id="polygon13"
         transform="matrix(11.576693,0,0,11.576693,-25336.222,-14858.668)" /><path
         inkscape:connector-curvature="0"
         d="m 144.11402,71.677195 4.87379,-15.061277 4.87379,15.061277 -9.74758,0 0,0 z m 14.82975,15.744303 8.48571,0 -14.23933,-38.724038 -8.41626,0 -14.23933,38.724038 8.48572,0 2.91732,-9.018244 14.10042,0 2.90575,9.018244 0,0 z"
         id="path15" /><polygon
         points="2203.029,1287.706 2203.029,1288.287 2203.945,1288.287 2203.945,1291.05 2204.647,1291.05 2204.647,1288.287 2205.544,1288.287 2205.683,1287.706 "
         id="polygon17"
         transform="matrix(11.576693,0,0,11.576693,-25336.222,-14858.668)" /><polygon
         points="2206.956,1289.02 2206.956,1288.287 2208.132,1288.287 2208.271,1287.706 2206.278,1287.706 2206.278,1291.05 2206.956,1291.05 2206.956,1289.6 2207.97,1289.6 2207.97,1289.02 "
         id="polygon19"
         transform="matrix(11.576693,0,0,11.576693,-25336.222,-14858.668)" /><path
         inkscape:connector-curvature="0"
         d="m 251.26789,82.269869 c -7.72165,0 -9.63181,-6.286144 -9.63181,-14.030952 0,-7.744807 1.91016,-14.030952 9.63181,-14.030952 7.72166,0 9.63181,6.286145 9.63181,14.030952 0,7.744808 -1.92173,14.030952 -9.63181,14.030952 l 0,0 z m 0,-34.058631 c -13.18585,0 -18.70793,8.960361 -18.70793,20.027679 0,11.055742 5.52208,20.027679 18.70793,20.027679 13.18586,0 18.71952,-8.971937 18.71952,-20.027679 0,-11.055741 -5.53366,-20.027679 -18.71952,-20.027679 l 0,0 z"
         id="path21" /><path
         inkscape:connector-curvature="0"
         d="m 293.34917,65.518394 -6.10091,0 0,-10.083299 6.10091,0 c 2.21115,0 5.54524,0.347301 5.54524,4.723291 0,4.37599 -3.33409,5.360008 -5.54524,5.360008 l 0,0 z m 4.97798,5.545236 0,-0.416761 c 2.59318,0 9.11086,-2.454258 9.11086,-10.731594 0,-8.265759 -6.3093,-11.206239 -13.53316,-11.206239 l -14.66767,0 0,38.712462 7.9995,0 0,-16.149487 0.67145,0 c 2.69737,0 12.1671,16.149487 12.1671,16.149487 l 10.09488,0 -11.84296,-16.357868 0,0 z"
         id="path23" /><path
         inkscape:connector-curvature="0"
         d="m 332.51312,80.695439 -6.12407,0 0,-25.260344 6.12407,0 c 5.27898,0 8.32365,5.105322 8.32365,12.722785 0.0116,7.629041 -3.0331,12.537559 -8.32365,12.537559 l 0,0 z m -0.26626,-31.986403 -13.75311,0 0,38.712462 13.75311,0 c 12.34076,0 17.48081,-8.265759 17.48081,-19.252041 0,-10.986281 -5.14005,-19.460421 -17.48081,-19.460421 l 0,0 z"
         id="path25" /></g><g
       id="g4243"><path
         inkscape:connector-curvature="0"
         d="m 148.60578,144.89978 c 0,1.18082 0.12734,1.92173 0.23153,2.59318 0.11577,0.71775 0.24311,1.44708 0.24311,3.32251 0,5.90411 -1.35447,8.67094 -2.29218,8.67094 -0.1968,0 -0.28942,0 -0.35888,0 -0.11577,-0.12734 -0.30099,-0.38203 -0.45149,-0.61356 -1.59758,-2.28061 -3.78558,-4.70014 -9.66654,-4.70014 -5.4642,0 -9.12243,3.87819 -9.12243,9.64338 0,8.46257 2.14169,15.30439 3.85504,20.80332 1.00717,3.19517 1.86384,5.95042 1.86384,7.79112 0,1.47024 -0.70617,2.91732 -1.13451,3.22989 -2.14169,0 -2.84787,-0.72933 -4.36441,-2.21114 -2.0375,-2.01435 -4.83906,-4.78118 -11.11363,-4.78118 -2.67422,0 -8.86775,0.91456 -8.86775,9.42343 0,3.70454 1.29659,6.87655 2.5353,9.9328 1.33132,3.25305 2.69737,6.61029 2.69737,11.02101 0,0.3473 0,3.47301 -1.05348,3.47301 -4.01711,0 -5.53366,-2.48899 -7.849,-6.87655 -2.02592,-3.83189 -4.538062,-8.57833 -10.361139,-8.57833 -9.562348,0 -9.562348,14.28564 -9.562348,19.65722 0,30.37724 28.825967,41.38668 48.205347,41.38668 3.68139,0 5.83466,-0.31257 7.91846,-0.61357 2.15327,-0.31257 4.17919,-0.61356 8.18472,-0.61356 11.76192,0 20.6644,2.35007 26.02441,6.79552 -2.95206,-1.12294 -6.47137,-1.86385 -10.66214,-1.86385 -10.11803,0 -13.8573,2.40795 -17.41134,5.3137 -1.33132,1.09979 -2.31534,1.89858 -4.12131,2.41953 l -14.37825,4.10973 14.58664,3.26462 c 6.08934,1.36605 9.45815,6.14723 13.03535,11.20624 3.80873,5.39474 8.11526,11.51881 16.03372,11.51881 0.74091,0 1.43551,0 2.10696,-0.16207 -0.68303,3.73927 -1.25028,8.47414 -1.25028,13.94991 0,7.90689 1.9333,10.98629 4.48018,14.19303 l 1.21555,1.62074 c 1.13452,1.65546 2.33849,3.26462 3.51931,4.8159 4.16761,5.51051 8.11527,10.7316 8.11527,17.87442 0,3.80873 0.18522,6.88813 0.35887,9.85176 0.18523,2.97521 0.33573,5.77677 0.33573,9.29609 0,10.53479 7.28174,13.79941 11.19466,15.54749 0.39361,0.18523 0.86825,0.39361 1.23871,0.57884 0.75248,3.60035 4.30653,4.78117 6.52925,5.49893 l 0.77564,0.25469 0.81037,0.32414 c 1.13451,0.48622 2.67421,1.15767 5.47577,1.15767 7.28174,0 10.47691,-5.40631 11.13678,-9.90965 0.12735,-0.11576 0.25469,-0.11576 0.37046,-0.16207 3.20674,-1.42393 9.88649,-4.36441 9.88649,-13.75311 0,-4.9201 -0.61356,-8.63622 -1.15767,-11.91242 -0.3936,-2.41953 -0.75248,-4.51491 -0.75248,-6.58714 0,-5.95042 2.44268,-8.97193 5.78834,-13.13954 4.51491,-5.62628 10.15276,-12.60702 10.15276,-28.33975 0,-5.56839 -0.31257,-9.82861 -0.72933,-13.04693 0.91456,0.20838 1.86385,0.35888 2.84787,0.35888 10.41902,0 14.01937,-6.25142 16.63571,-11.4262 4.88536,-9.68969 14.33194,-9.12243 14.33194,-9.12243 0,0 -7.47854,-12.94275 -25.29507,-12.94275 -5.42947,0 -9.59708,1.08821 -12.74594,2.51215 1.45866,-4.19077 3.94765,-6.05461 5.99673,-7.1544 4.92009,-2.60476 12.22498,-2.83629 18.69636,-2.83629 3.9708,0 6.78394,0.28942 9.51604,0.57883 2.57002,0.26627 5.22109,0.54411 8.63621,0.54411 26.26752,0 33.16723,-8.32364 40.46054,-17.13351 6.20511,-7.47854 10.31484,-14.73713 10.31484,-25.96652 0,-7.548 -2.17642,-15.60538 -8.31207,-15.60538 -5.30213,0 -7.58273,4.95482 -9.41185,8.93721 -2.188,4.74644 -3.47301,6.73763 -5.73046,6.73763 -2.95206,0 -5.34844,-2.90575 -5.34844,-6.47137 0,-3.29936 2.188,-7.46697 4.30653,-11.49566 2.40796,-4.60752 4.9201,-9.36554 4.9201,-14.08883 0,-2.66264 -1.09979,-5.03586 -3.10256,-6.67975 -1.66704,-1.37763 -3.80873,-2.14169 -6.04303,-2.14169 -4.66541,0 -8.38153,3.87819 -11.98188,7.62904 -2.29218,2.39637 -5.41789,5.64942 -7.31647,5.76519 -0.38203,-0.33572 -0.97244,-1.65547 -0.97244,-2.70894 0,-3.27621 1.45866,-8.11527 2.8826,-12.78067 1.52812,-5.02429 2.95205,-9.78231 2.95205,-13.59104 0,-8.23103 -4.79275,-11.90084 -9.55077,-11.90084 -4.32968,0 -7.14282,2.02592 -9.40027,3.65823 -1.6902,1.21556 -2.77841,1.92173 -4.10973,2.02592 0,0 -0.11577,-0.11576 -0.11577,-0.16207 0,-0.17365 0.0116,-3.93607 0.0116,-3.93607 0,-1.1924 0,-2.35007 0,-3.46144 0,-8.71725 -0.35888,-14.64451 -3.73927,-18.03648 -1.64389,-1.65547 -3.79716,-2.48899 -6.39033,-2.48899 -11.93558,0 -17.29558,15.76745 -17.29558,31.38441 0,7.24701 0.30099,13.64892 0.59041,19.83088 0.27784,5.90411 0.53253,11.46092 0.53253,17.50396 0,14.49402 -2.96364,26.36013 -5.49893,32.56523 -0.82195,-6.91128 -2.08381,-17.31873 -10.12961,-17.31873 -6.66818,0 -8.23103,8.52045 -10.02542,18.38379 -1.62073,8.85617 -3.85504,20.98854 -9.35396,20.98854 -4.6191,0 -5.95042,-8.4394 -7.23544,-19.47199 -1.25028,-10.81263 -2.67421,-23.06078 -12.29445,-23.06078 -10.46533,0 -11.14835,13.56789 -11.58827,22.53983 -0.11576,1.12294 -0.12734,2.45425 -0.23153,3.73927 -2.55845,-5.01271 -5.63785,-13.63735 -5.63785,-21.5558 0,-10.04857 0.62514,-17.92073 1.25028,-25.53819 0.59042,-7.29332 1.20398,-14.84132 1.20398,-24.01006 0,-20.21291 -5.02428,-25.67711 -9.45816,-30.49301 l -0.31257,-0.33572 c -2.97521,-3.2299 -5.77677,-6.28615 -10.18749,-6.28615 -6.26299,0 -9.57392,5.98515 -9.57392,11.86611 l 0,0 z"
         id="path27" /><path
         style="fill:#ed2127"
         inkscape:connector-curvature="0"
         d="m 242.21492,313.13228 -0.6483,1.06506 c 0,0 -3.60035,-1.16925 -6.92286,-1.16925 -5.98515,0 -8.18472,4.10973 -8.18472,4.10973 0,0 1.96804,-1.16925 5.84623,-1.16925 5.14005,0 8.87932,2.75525 8.87932,3.78558 0,1.06506 -1.586,1.63231 -2.85944,1.63231 0,2.47742 -3.36882,5.89254 -13.52158,5.89254 0,5.00113 3.09098,8.32364 3.09098,9.78231 -2.5816,0 -2.95206,2.47741 -2.95206,6.87655 0,0 -3.55404,-14.07726 -3.55404,-19.73826 0,-8.36995 3.36882,-14.69082 10.52321,-14.69082 5.1169,0 10.30326,3.6235 10.30326,3.6235 l 0,0 z m 21.63684,-28.17767 c 1.57443,0 2.45426,0.27784 2.45426,0.27784 -9.43501,1.72493 -9.33082,13.12797 -16.87882,13.12797 -1.64389,0 -2.7321,-0.74091 -2.7321,-0.74091 1.06506,-2.07223 4.59595,-2.57002 4.59595,-5.36001 -2.44269,0 -4.23707,0.20838 -6.63345,0.69461 0.0116,-0.91456 7.55958,-7.9995 19.19416,-7.9995 l 0,0 z m -63.17401,59.59682 0,-6.07777 c 0,-1.6902 -0.75249,-2.41953 -2.24588,-2.41953 l 3.93607,-8.98351 0,-0.89141 c -6.96917,0 -13.0122,-1.40078 -13.0122,-6.3556 l -1.96804,0 c -0.41676,0 -1.31974,-0.47464 -1.31974,-1.31974 0,-0.61357 2.33849,-3.26463 7.86057,-3.26463 4.21392,0 6.73764,1.77123 6.73764,1.77123 0,0 -2.3848,-5.61469 -8.79829,-5.61469 -3.78558,0 -4.7696,0.50937 -4.7696,0.50937 0,0 2.29219,-2.95206 5.37159,-2.95206 9.67812,0 12.20183,6.07777 12.20183,16.78621 0,11.33358 -3.99395,18.81213 -3.99395,18.81213 l 0,0 z m -26.88109,-50.54385 c 0,0.98402 3.13729,1.73651 4.95483,1.73651 0,1.12294 -2.19957,2.75525 -4.24865,2.75525 -7.90688,0 -4.07499,-12.25972 -19.87718,-15.33912 0,0 0.8451,-0.37045 2.89417,-0.37045 12.47968,0 16.09161,9.67811 22.87555,9.67811 -1.97962,0.21996 -6.59872,0.37046 -6.59872,1.5397 l 0,0 z m 158.20709,-80.81689 c -6.32087,0 -5.89254,15.66327 -15.15389,15.66327 -5.1169,0 -9.16874,-4.58437 -9.16874,-10.29168 0,-8.32365 9.21505,-17.87442 9.21505,-25.5845 0,-3.29935 -2.77841,-5.00113 -5.33686,-5.00113 -6.21668,0 -12.53756,13.42897 -19.40254,13.42897 -3.22989,0 -4.68856,-4.21392 -4.68856,-6.55241 0,-7.47854 5.84623,-19.68038 5.84623,-26.37171 0,-5.37158 -2.44268,-8.09211 -5.73046,-8.09211 -6.10092,0 -8.13842,5.73047 -13.86888,5.73047 -2.18799,0 -3.50774,-2.39638 -3.50774,-3.93608 0,-15.01497 0.76406,-24.20686 -6.29772,-24.20686 -9.14559,0 -13.46369,13.82257 -13.46369,27.57568 0,13.96149 1.12294,24.76255 1.12294,37.34641 0,19.48357 -4.70014,35.81829 -8.79829,39.3376 0,0 -1.01875,11.34516 3.46143,11.34516 9.05298,0 23.75538,-25.35296 42.00024,-25.35296 8.23103,0 8.79829,5.05902 8.79829,7.10809 0,6.63345 -9.35397,10.01384 -9.35397,14.21618 0,2.15327 3.26463,2.3385 7.29332,2.3385 11.9703,0 20.76859,-7.38594 20.76859,-7.38594 0,0 -8.60149,10.19907 -22.06518,10.19907 -5.90411,0 -10.47691,-1.86385 -10.47691,-5.33685 0,-5.51051 11.13678,-9.90965 11.13678,-15.43174 0,-1.67862 -1.86385,-4.01711 -6.07776,-4.01711 -14.87605,0 -30.58563,28.15452 -42.83377,28.15452 -2.52372,0 -6.03145,-1.67862 -6.03145,-8.08053 0,-5.4642 -0.42834,-28.03875 -7.25859,-28.03875 -8.20788,0 -4.2718,39.37233 -19.39096,39.37233 -15.96426,0 -6.43664,-42.53277 -19.52988,-42.53277 -7.95319,0 -6.70291,11.51881 -7.95319,21.87995 -1.03033,8.48572 -3.48458,16.20737 -8.6941,16.20737 -6.87655,0 -11.73876,-3.16044 -17.59657,-6.78394 -3.72769,-2.30376 -7.68692,-4.5728 -10.9747,-7.03863 -5.33686,-3.99396 -8.26576,-7.98792 -13.53316,-7.98792 -2.80156,0 -5.89254,1.5397 -5.89254,4.41072 0,5.6147 5.89254,7.79111 5.89254,12.63017 0,2.7321 -3.99396,4.90852 -8.56675,4.90852 -13.89203,0 -22.23883,-9.11086 -22.23883,-12.76909 0,0 6.94602,9.81703 22.86397,9.81703 3.43828,0 4.70014,-0.76406 4.70014,-2.45426 0,-3.14886 -4.7696,-5.96199 -4.7696,-12.06291 0,-3.85504 3.00994,-7.01548 7.36278,-7.01548 5.54523,0 9.29608,4.05185 15.01497,8.20788 8.23103,5.98515 18.93947,12.75752 27.14734,12.75752 3.14886,0 5.25582,-1.40078 5.25582,-4.67699 0,-3.11413 -9.33081,-11.65773 -9.33081,-29.13853 0,-19.98138 2.45426,-31.14131 2.45426,-49.54825 0,-19.19416 -4.59595,-23.70907 -8.76356,-28.24713 -3.12571,-3.41513 -4.83906,-5.05902 -7.36278,-5.05902 -4.35283,0 -5.82307,4.7696 -5.82307,8.04581 0,2.00276 0.48622,2.13011 0.48622,5.91569 0,6.80709 -1.60916,12.47967 -6.10092,12.47967 -5.25582,0 -2.52372,-5.33686 -10.47691,-5.33686 -3.80873,0 -5.30212,2.7321 -5.30212,5.82308 0,13.18585 5.71888,22.59771 5.71888,28.58286 0,2.98678 -1.72492,7.0502 -4.79275,7.0502 -7.93003,0 -6.52925,-7.01547 -15.62853,-7.01547 -3.8782,0 -5.05902,2.24587 -5.05902,5.61469 0,6.51768 5.23267,11.50724 5.23267,20.94224 0,4.16761 -1.40078,7.29332 -4.86221,7.29332 -11.831384,0 -10.36114,-15.46647 -18.198566,-15.46647 -4.005535,0 -5.742039,5.24425 -5.742039,15.83692 0,28.33975 27.691445,37.57795 44.385045,37.57795 7.08493,0 7.84899,-1.21556 16.10318,-1.21556 38.74719,0 35.62148,23.72065 35.62148,23.72065 0,0 -4.95482,-11.17151 -20.25921,-11.17151 -14.92236,0 -13.30162,5.5105 -20.49075,7.58273 14.8992,3.34567 16.21895,22.63244 28.24713,22.63244 5.37159,0 8.03423,-4.10973 8.03423,-4.10973 0,0 -3.36882,8.68252 -3.36882,21.72945 0,8.91406 2.62791,10.12961 5.03586,13.67208 5.12848,7.53643 12.29445,14.19302 12.29445,24.84358 1.71335,0 3.00994,-7.93003 3.9708,-7.93003 0.62515,0 1.15767,1.22713 1.15767,2.97521 0,4.06342 -4.41072,11.21781 -4.41072,24.10267 0,7.72166 4.83906,10.22222 8.45099,11.85454 0.87983,0 5.93884,-10.61583 5.93884,-10.61583 -3.03309,8.26576 -2.10696,12.90801 -2.10696,13.46369 0,2.19957 2.14169,2.65106 4.87379,3.55405 1.55128,0.52095 2.35007,1.28501 5.07059,1.28501 6.34403,0 7.45539,-5.64943 7.45539,-7.87215 0,-2.24588 -2.29218,-6.4598 -2.29218,-8.98352 0,0 -0.11577,-1.5397 0.27784,-1.5397 0.78721,0 4.14446,8.82144 4.14446,8.82144 2.97521,-1.31974 7.98791,-3.24147 7.98791,-10.4306 0,-8.36994 -5.07059,-19.73826 -5.07059,-24.85516 0,-1.18082 0.41676,-1.96803 0.8451,-1.96803 0.98402,0 2.63949,4.63067 2.63949,4.63067 2.18799,-12.80382 15.65169,-14.01937 15.65169,-37.77475 0,-15.03812 -2.29219,-19.87718 -2.29219,-19.87718 0,0 3.99396,3.36882 8.21945,3.36882 14.49402,0 11.06732,-14.44771 22.44721,-19.26362 0,-1.43551 -6.12407,-6.59871 -16.7862,-6.59871 -13.4637,0 -17.81654,7.30489 -17.81654,7.30489 0,-21.13904 14.8066,-22.4009 29.74053,-22.4009 7.99949,0 11.43777,1.12294 18.15225,1.12294 24.50786,0 30.52774,-7.30489 37.5548,-15.79061 6.23983,-7.53643 9.40027,-14.03095 9.40027,-23.50069 0,-5.08216 -1.25028,-11.75034 -4.48018,-11.75034 l 0,0 z"
         id="path29" /><path
         style="fill:#ed2127"
         inkscape:connector-curvature="0"
         d="m 226.07701,322.8567 -0.55568,1.21556 c 0,0 1.16924,0.84509 3.68139,0.84509 5.05901,0 7.28174,-4.09814 6.78394,-4.58437 -0.48622,-0.48622 -2.67422,3.13729 -6.59872,3.13729 -2.33849,0 -3.31093,-0.61357 -3.31093,-0.61357 l 0,0 z"
         id="path31" /><path
         style="fill:#ed2127"
         inkscape:connector-curvature="0"
         d="m 231.55279,321.45592 c 0,0.38203 -0.4978,0.70618 -1.12294,0.70618 -0.61357,0 -1.12294,-0.31257 -1.12294,-0.70618 0,-0.38203 0.49779,-0.70617 1.12294,-0.70617 0.62514,0 1.12294,0.32414 1.12294,0.70617 l 0,0 z"
         id="path33" /><path
         style="fill:#ed2127"
         inkscape:connector-curvature="0"
         d="m 192.88663,319.5805 c 0.52095,0.39361 1.57443,3.04467 4.34126,3.04467 2.01435,0 2.29219,-0.75249 2.91733,-1.09979 0.62514,-0.3473 1.28501,0.31257 0.8914,0.89141 -0.39361,0.59041 -1.14609,1.33132 -3.71612,1.33132 -3.32251,0 -5.25581,-2.70895 -5.5105,-3.36882 -0.46307,-1.14609 0.0116,-1.5397 1.07663,-0.79879 l 0,0 z"
         id="path35" /><path
         style="fill:#ed2127"
         inkscape:connector-curvature="0"
         d="m 197.72569,320.36771 c 0,0.35888 -0.41676,0.6483 -0.92614,0.6483 -0.52095,0 -0.93771,-0.28942 -0.93771,-0.6483 0,-0.3473 0.41676,-0.63671 0.93771,-0.63671 0.50938,0 0.92614,0.28941 0.92614,0.63671 l 0,0 z"
         id="path37" /></g></g></svg>